<mxfile host="65bd71144e">
    <diagram id="VGQV7HufNm-GwwypJgXi" name="conceptual">
        <mxGraphModel dx="333" dy="285" grid="1" gridSize="10" guides="1" tooltips="1" connect="1" arrows="1" fold="1" page="1" pageScale="1" pageWidth="850" pageHeight="1100" math="0" shadow="0">
            <root>
                <mxCell id="0"/>
                <mxCell id="1" parent="0"/>
                <mxCell id="2" value="players" style="swimlane;fontStyle=0;childLayout=stackLayout;horizontal=1;startSize=26;horizontalStack=0;resizeParent=1;resizeParentMax=0;resizeLast=0;collapsible=1;marginBottom=0;align=center;fontSize=14;fillColor=#60a917;fontColor=#ffffff;strokeColor=#2D7600;" parent="1" vertex="1">
                    <mxGeometry x="30" y="40" width="160" height="236" as="geometry"/>
                </mxCell>
                <mxCell id="3" value="player_id" style="text;strokeColor=none;fillColor=none;spacingLeft=4;spacingRight=4;overflow=hidden;rotatable=0;points=[[0,0.5],[1,0.5]];portConstraint=eastwest;fontSize=12;" parent="2" vertex="1">
                    <mxGeometry y="26" width="160" height="30" as="geometry"/>
                </mxCell>
                <mxCell id="4" value="nickname" style="text;strokeColor=none;fillColor=none;spacingLeft=4;spacingRight=4;overflow=hidden;rotatable=0;points=[[0,0.5],[1,0.5]];portConstraint=eastwest;fontSize=12;" parent="2" vertex="1">
                    <mxGeometry y="56" width="160" height="30" as="geometry"/>
                </mxCell>
                <mxCell id="5" value="name" style="text;strokeColor=none;fillColor=none;spacingLeft=4;spacingRight=4;overflow=hidden;rotatable=0;points=[[0,0.5],[1,0.5]];portConstraint=eastwest;fontSize=12;" parent="2" vertex="1">
                    <mxGeometry y="86" width="160" height="30" as="geometry"/>
                </mxCell>
                <mxCell id="8" value="last_name" style="text;strokeColor=none;fillColor=none;spacingLeft=4;spacingRight=4;overflow=hidden;rotatable=0;points=[[0,0.5],[1,0.5]];portConstraint=eastwest;fontSize=12;" parent="2" vertex="1">
                    <mxGeometry y="116" width="160" height="30" as="geometry"/>
                </mxCell>
                <mxCell id="7" value="nationality" style="text;strokeColor=none;fillColor=none;spacingLeft=4;spacingRight=4;overflow=hidden;rotatable=0;points=[[0,0.5],[1,0.5]];portConstraint=eastwest;fontSize=12;" parent="2" vertex="1">
                    <mxGeometry y="146" width="160" height="30" as="geometry"/>
                </mxCell>
                <mxCell id="22" value="birthdate" style="text;strokeColor=none;fillColor=none;spacingLeft=4;spacingRight=4;overflow=hidden;rotatable=0;points=[[0,0.5],[1,0.5]];portConstraint=eastwest;fontSize=12;" parent="2" vertex="1">
                    <mxGeometry y="176" width="160" height="30" as="geometry"/>
                </mxCell>
                <mxCell id="6" style="text;strokeColor=none;fillColor=none;spacingLeft=4;spacingRight=4;overflow=hidden;rotatable=0;points=[[0,0.5],[1,0.5]];portConstraint=eastwest;fontSize=12;" parent="2" vertex="1">
                    <mxGeometry y="206" width="160" height="30" as="geometry"/>
                </mxCell>
                <mxCell id="9" value="teams" style="swimlane;fontStyle=0;childLayout=stackLayout;horizontal=1;startSize=26;horizontalStack=0;resizeParent=1;resizeParentMax=0;resizeLast=0;collapsible=1;marginBottom=0;align=center;fontSize=14;fillColor=#60a917;fontColor=#ffffff;strokeColor=#2D7600;" parent="1" vertex="1">
                    <mxGeometry x="30" y="360" width="160" height="146" as="geometry"/>
                </mxCell>
                <mxCell id="10" value="team_id" style="text;strokeColor=none;fillColor=none;spacingLeft=4;spacingRight=4;overflow=hidden;rotatable=0;points=[[0,0.5],[1,0.5]];portConstraint=eastwest;fontSize=12;" parent="9" vertex="1">
                    <mxGeometry y="26" width="160" height="30" as="geometry"/>
                </mxCell>
                <mxCell id="11" value="team_name" style="text;strokeColor=none;fillColor=none;spacingLeft=4;spacingRight=4;overflow=hidden;rotatable=0;points=[[0,0.5],[1,0.5]];portConstraint=eastwest;fontSize=12;" parent="9" vertex="1">
                    <mxGeometry y="56" width="160" height="30" as="geometry"/>
                </mxCell>
                <mxCell id="12" value="country_id" style="text;strokeColor=none;fillColor=none;spacingLeft=4;spacingRight=4;overflow=hidden;rotatable=0;points=[[0,0.5],[1,0.5]];portConstraint=eastwest;fontSize=12;" parent="9" vertex="1">
                    <mxGeometry y="86" width="160" height="30" as="geometry"/>
                </mxCell>
                <mxCell id="13" value="sede_id" style="text;strokeColor=none;fillColor=none;spacingLeft=4;spacingRight=4;overflow=hidden;rotatable=0;points=[[0,0.5],[1,0.5]];portConstraint=eastwest;fontSize=12;" parent="9" vertex="1">
                    <mxGeometry y="116" width="160" height="30" as="geometry"/>
                </mxCell>
                <mxCell id="16" value="players_team" style="swimlane;fontStyle=0;childLayout=stackLayout;horizontal=1;startSize=26;horizontalStack=0;resizeParent=1;resizeParentMax=0;resizeLast=0;collapsible=1;marginBottom=0;align=center;fontSize=14;fillColor=#e3c800;fontColor=#000000;strokeColor=#B09500;" parent="1" vertex="1">
                    <mxGeometry x="230" y="40" width="160" height="176" as="geometry"/>
                </mxCell>
                <mxCell id="17" value="player_team_id" style="text;strokeColor=none;fillColor=none;spacingLeft=4;spacingRight=4;overflow=hidden;rotatable=0;points=[[0,0.5],[1,0.5]];portConstraint=eastwest;fontSize=12;" parent="16" vertex="1">
                    <mxGeometry y="26" width="160" height="30" as="geometry"/>
                </mxCell>
                <mxCell id="18" value="player_id" style="text;strokeColor=none;fillColor=none;spacingLeft=4;spacingRight=4;overflow=hidden;rotatable=0;points=[[0,0.5],[1,0.5]];portConstraint=eastwest;fontSize=12;" parent="16" vertex="1">
                    <mxGeometry y="56" width="160" height="30" as="geometry"/>
                </mxCell>
                <mxCell id="19" value="team_id" style="text;strokeColor=none;fillColor=none;spacingLeft=4;spacingRight=4;overflow=hidden;rotatable=0;points=[[0,0.5],[1,0.5]];portConstraint=eastwest;fontSize=12;" parent="16" vertex="1">
                    <mxGeometry y="86" width="160" height="30" as="geometry"/>
                </mxCell>
                <mxCell id="20" value="start_time" style="text;strokeColor=none;fillColor=none;spacingLeft=4;spacingRight=4;overflow=hidden;rotatable=0;points=[[0,0.5],[1,0.5]];portConstraint=eastwest;fontSize=12;" parent="16" vertex="1">
                    <mxGeometry y="116" width="160" height="30" as="geometry"/>
                </mxCell>
                <mxCell id="21" value="end_time" style="text;strokeColor=none;fillColor=none;spacingLeft=4;spacingRight=4;overflow=hidden;rotatable=0;points=[[0,0.5],[1,0.5]];portConstraint=eastwest;fontSize=12;" parent="16" vertex="1">
                    <mxGeometry y="146" width="160" height="30" as="geometry"/>
                </mxCell>
                <mxCell id="23" value="seasons" style="swimlane;fontStyle=0;childLayout=stackLayout;horizontal=1;startSize=26;horizontalStack=0;resizeParent=1;resizeParentMax=0;resizeLast=0;collapsible=1;marginBottom=0;align=center;fontSize=14;fillColor=#60a917;fontColor=#ffffff;strokeColor=#2D7600;" parent="1" vertex="1">
                    <mxGeometry x="230" y="240" width="160" height="206" as="geometry"/>
                </mxCell>
                <mxCell id="24" value="season_id" style="text;strokeColor=none;fillColor=none;spacingLeft=4;spacingRight=4;overflow=hidden;rotatable=0;points=[[0,0.5],[1,0.5]];portConstraint=eastwest;fontSize=12;" parent="23" vertex="1">
                    <mxGeometry y="26" width="160" height="30" as="geometry"/>
                </mxCell>
                <mxCell id="25" value="season_name" style="text;strokeColor=none;fillColor=none;spacingLeft=4;spacingRight=4;overflow=hidden;rotatable=0;points=[[0,0.5],[1,0.5]];portConstraint=eastwest;fontSize=12;" parent="23" vertex="1">
                    <mxGeometry y="56" width="160" height="30" as="geometry"/>
                </mxCell>
                <mxCell id="26" value="start_time" style="text;strokeColor=none;fillColor=none;spacingLeft=4;spacingRight=4;overflow=hidden;rotatable=0;points=[[0,0.5],[1,0.5]];portConstraint=eastwest;fontSize=12;" parent="23" vertex="1">
                    <mxGeometry y="86" width="160" height="30" as="geometry"/>
                </mxCell>
                <mxCell id="27" value="end_time" style="text;strokeColor=none;fillColor=none;spacingLeft=4;spacingRight=4;overflow=hidden;rotatable=0;points=[[0,0.5],[1,0.5]];portConstraint=eastwest;fontSize=12;" parent="23" vertex="1">
                    <mxGeometry y="116" width="160" height="30" as="geometry"/>
                </mxCell>
                <mxCell id="28" value="country_id" style="text;strokeColor=none;fillColor=none;spacingLeft=4;spacingRight=4;overflow=hidden;rotatable=0;points=[[0,0.5],[1,0.5]];portConstraint=eastwest;fontSize=12;" parent="23" vertex="1">
                    <mxGeometry y="146" width="160" height="30" as="geometry"/>
                </mxCell>
                <mxCell id="LR6zOuGAmlWSbWsTb2dW-85" value="league_id" style="text;strokeColor=none;fillColor=none;spacingLeft=4;spacingRight=4;overflow=hidden;rotatable=0;points=[[0,0.5],[1,0.5]];portConstraint=eastwest;fontSize=12;" parent="23" vertex="1">
                    <mxGeometry y="176" width="160" height="30" as="geometry"/>
                </mxCell>
                <mxCell id="29" value="leagues" style="swimlane;fontStyle=0;childLayout=stackLayout;horizontal=1;startSize=26;horizontalStack=0;resizeParent=1;resizeParentMax=0;resizeLast=0;collapsible=1;marginBottom=0;align=center;fontSize=14;fillColor=#60a917;fontColor=#ffffff;strokeColor=#2D7600;" parent="1" vertex="1">
                    <mxGeometry x="440" y="270" width="160" height="146" as="geometry"/>
                </mxCell>
                <mxCell id="30" value="league_id" style="text;strokeColor=none;fillColor=none;spacingLeft=4;spacingRight=4;overflow=hidden;rotatable=0;points=[[0,0.5],[1,0.5]];portConstraint=eastwest;fontSize=12;" parent="29" vertex="1">
                    <mxGeometry y="26" width="160" height="30" as="geometry"/>
                </mxCell>
                <mxCell id="31" value="league_level" style="text;strokeColor=none;fillColor=none;spacingLeft=4;spacingRight=4;overflow=hidden;rotatable=0;points=[[0,0.5],[1,0.5]];portConstraint=eastwest;fontSize=12;" parent="29" vertex="1">
                    <mxGeometry y="56" width="160" height="30" as="geometry"/>
                </mxCell>
                <mxCell id="32" value="country_id" style="text;strokeColor=none;fillColor=none;spacingLeft=4;spacingRight=4;overflow=hidden;rotatable=0;points=[[0,0.5],[1,0.5]];portConstraint=eastwest;fontSize=12;" parent="29" vertex="1">
                    <mxGeometry y="86" width="160" height="30" as="geometry"/>
                </mxCell>
                <mxCell id="33" value="league_name" style="text;strokeColor=none;fillColor=none;spacingLeft=4;spacingRight=4;overflow=hidden;rotatable=0;points=[[0,0.5],[1,0.5]];portConstraint=eastwest;fontSize=12;" parent="29" vertex="1">
                    <mxGeometry y="116" width="160" height="30" as="geometry"/>
                </mxCell>
                <mxCell id="47" value="stadiums" style="swimlane;fontStyle=0;childLayout=stackLayout;horizontal=1;startSize=26;horizontalStack=0;resizeParent=1;resizeParentMax=0;resizeLast=0;collapsible=1;marginBottom=0;align=center;fontSize=14;fillColor=#60a917;fontColor=#ffffff;strokeColor=#2D7600;" parent="1" vertex="1">
                    <mxGeometry x="240" y="470" width="160" height="146" as="geometry"/>
                </mxCell>
                <mxCell id="48" value="stadium_id" style="text;strokeColor=none;fillColor=none;spacingLeft=4;spacingRight=4;overflow=hidden;rotatable=0;points=[[0,0.5],[1,0.5]];portConstraint=eastwest;fontSize=12;" parent="47" vertex="1">
                    <mxGeometry y="26" width="160" height="30" as="geometry"/>
                </mxCell>
                <mxCell id="49" value="stadium_name" style="text;strokeColor=none;fillColor=none;spacingLeft=4;spacingRight=4;overflow=hidden;rotatable=0;points=[[0,0.5],[1,0.5]];portConstraint=eastwest;fontSize=12;" parent="47" vertex="1">
                    <mxGeometry y="56" width="160" height="30" as="geometry"/>
                </mxCell>
                <mxCell id="50" value="city_id" style="text;strokeColor=none;fillColor=none;spacingLeft=4;spacingRight=4;overflow=hidden;rotatable=0;points=[[0,0.5],[1,0.5]];portConstraint=eastwest;fontSize=12;" parent="47" vertex="1">
                    <mxGeometry y="86" width="160" height="30" as="geometry"/>
                </mxCell>
                <mxCell id="86" value="insert_date" style="text;strokeColor=none;fillColor=none;spacingLeft=4;spacingRight=4;overflow=hidden;rotatable=0;points=[[0,0.5],[1,0.5]];portConstraint=eastwest;fontSize=12;" vertex="1" parent="47">
                    <mxGeometry y="116" width="160" height="30" as="geometry"/>
                </mxCell>
                <mxCell id="54" value="matches" style="swimlane;fontStyle=0;childLayout=stackLayout;horizontal=1;startSize=26;horizontalStack=0;resizeParent=1;resizeParentMax=0;resizeLast=0;collapsible=1;marginBottom=0;align=center;fontSize=14;fillColor=#60a917;fontColor=#ffffff;strokeColor=#2D7600;" parent="1" vertex="1">
                    <mxGeometry x="460" y="460" width="160" height="266" as="geometry"/>
                </mxCell>
                <mxCell id="55" value="match_id" style="text;strokeColor=none;fillColor=none;spacingLeft=4;spacingRight=4;overflow=hidden;rotatable=0;points=[[0,0.5],[1,0.5]];portConstraint=eastwest;fontSize=12;" parent="54" vertex="1">
                    <mxGeometry y="26" width="160" height="30" as="geometry"/>
                </mxCell>
                <mxCell id="56" value="sede_id" style="text;strokeColor=none;fillColor=none;spacingLeft=4;spacingRight=4;overflow=hidden;rotatable=0;points=[[0,0.5],[1,0.5]];portConstraint=eastwest;fontSize=12;" parent="54" vertex="1">
                    <mxGeometry y="56" width="160" height="30" as="geometry"/>
                </mxCell>
                <mxCell id="57" value="local_team_id" style="text;strokeColor=none;fillColor=none;spacingLeft=4;spacingRight=4;overflow=hidden;rotatable=0;points=[[0,0.5],[1,0.5]];portConstraint=eastwest;fontSize=12;" parent="54" vertex="1">
                    <mxGeometry y="86" width="160" height="30" as="geometry"/>
                </mxCell>
                <mxCell id="58" value="visitor_team_id" style="text;strokeColor=none;fillColor=none;spacingLeft=4;spacingRight=4;overflow=hidden;rotatable=0;points=[[0,0.5],[1,0.5]];portConstraint=eastwest;fontSize=12;" parent="54" vertex="1">
                    <mxGeometry y="116" width="160" height="30" as="geometry"/>
                </mxCell>
                <mxCell id="tS10c9Jfpi3jMHIvJ5XA-85" value="league_id" style="text;strokeColor=none;fillColor=none;spacingLeft=4;spacingRight=4;overflow=hidden;rotatable=0;points=[[0,0.5],[1,0.5]];portConstraint=eastwest;fontSize=12;" parent="54" vertex="1">
                    <mxGeometry y="146" width="160" height="30" as="geometry"/>
                </mxCell>
                <mxCell id="59" value="date" style="text;strokeColor=none;fillColor=none;spacingLeft=4;spacingRight=4;overflow=hidden;rotatable=0;points=[[0,0.5],[1,0.5]];portConstraint=eastwest;fontSize=12;" parent="54" vertex="1">
                    <mxGeometry y="176" width="160" height="30" as="geometry"/>
                </mxCell>
                <mxCell id="60" value="local_team_goals" style="text;strokeColor=none;fillColor=none;spacingLeft=4;spacingRight=4;overflow=hidden;rotatable=0;points=[[0,0.5],[1,0.5]];portConstraint=eastwest;fontSize=12;" parent="54" vertex="1">
                    <mxGeometry y="206" width="160" height="30" as="geometry"/>
                </mxCell>
                <mxCell id="61" value="visitor_team_goals" style="text;strokeColor=none;fillColor=none;spacingLeft=4;spacingRight=4;overflow=hidden;rotatable=0;points=[[0,0.5],[1,0.5]];portConstraint=eastwest;fontSize=12;" parent="54" vertex="1">
                    <mxGeometry y="236" width="160" height="30" as="geometry"/>
                </mxCell>
                <mxCell id="70" value="match_goals" style="swimlane;fontStyle=0;childLayout=stackLayout;horizontal=1;startSize=26;horizontalStack=0;resizeParent=1;resizeParentMax=0;resizeLast=0;collapsible=1;marginBottom=0;align=center;fontSize=14;fillColor=#60a917;fontColor=#ffffff;strokeColor=#2D7600;" parent="1" vertex="1">
                    <mxGeometry x="660" y="460" width="160" height="266" as="geometry"/>
                </mxCell>
                <mxCell id="71" value="match_goal_id" style="text;strokeColor=none;fillColor=none;spacingLeft=4;spacingRight=4;overflow=hidden;rotatable=0;points=[[0,0.5],[1,0.5]];portConstraint=eastwest;fontSize=12;" parent="70" vertex="1">
                    <mxGeometry y="26" width="160" height="30" as="geometry"/>
                </mxCell>
                <mxCell id="80" value="match_id" style="text;strokeColor=none;fillColor=none;spacingLeft=4;spacingRight=4;overflow=hidden;rotatable=0;points=[[0,0.5],[1,0.5]];portConstraint=eastwest;fontSize=12;" parent="70" vertex="1">
                    <mxGeometry y="56" width="160" height="30" as="geometry"/>
                </mxCell>
                <mxCell id="72" value="match_time" style="text;strokeColor=none;fillColor=none;spacingLeft=4;spacingRight=4;overflow=hidden;rotatable=0;points=[[0,0.5],[1,0.5]];portConstraint=eastwest;fontSize=12;" parent="70" vertex="1">
                    <mxGeometry y="86" width="160" height="30" as="geometry"/>
                </mxCell>
                <mxCell id="73" value="player_id" style="text;strokeColor=none;fillColor=none;spacingLeft=4;spacingRight=4;overflow=hidden;rotatable=0;points=[[0,0.5],[1,0.5]];portConstraint=eastwest;fontSize=12;" parent="70" vertex="1">
                    <mxGeometry y="116" width="160" height="30" as="geometry"/>
                </mxCell>
                <mxCell id="74" value="match_seq_goal" style="text;strokeColor=none;fillColor=none;spacingLeft=4;spacingRight=4;overflow=hidden;rotatable=0;points=[[0,0.5],[1,0.5]];portConstraint=eastwest;fontSize=12;" parent="70" vertex="1">
                    <mxGeometry y="146" width="160" height="30" as="geometry"/>
                </mxCell>
                <mxCell id="78" value="body_part" style="text;strokeColor=none;fillColor=none;spacingLeft=4;spacingRight=4;overflow=hidden;rotatable=0;points=[[0,0.5],[1,0.5]];portConstraint=eastwest;fontSize=12;" parent="70" vertex="1">
                    <mxGeometry y="176" width="160" height="30" as="geometry"/>
                </mxCell>
                <mxCell id="79" value="auto_goal" style="text;strokeColor=none;fillColor=none;spacingLeft=4;spacingRight=4;overflow=hidden;rotatable=0;points=[[0,0.5],[1,0.5]];portConstraint=eastwest;fontSize=12;" parent="70" vertex="1">
                    <mxGeometry y="206" width="160" height="30" as="geometry"/>
                </mxCell>
                <mxCell id="81" value="goal_type" style="text;strokeColor=none;fillColor=none;spacingLeft=4;spacingRight=4;overflow=hidden;rotatable=0;points=[[0,0.5],[1,0.5]];portConstraint=eastwest;fontSize=12;" parent="70" vertex="1">
                    <mxGeometry y="236" width="160" height="30" as="geometry"/>
                </mxCell>
                <mxCell id="82" value="league_season_teams" style="swimlane;fontStyle=0;childLayout=stackLayout;horizontal=1;startSize=26;horizontalStack=0;resizeParent=1;resizeParentMax=0;resizeLast=0;collapsible=1;marginBottom=0;align=center;fontSize=14;fillColor=#e3c800;fontColor=#000000;strokeColor=#B09500;" parent="1" vertex="1">
                    <mxGeometry x="650" y="40" width="180" height="116" as="geometry"/>
                </mxCell>
                <mxCell id="83" value="league_season_team_id" style="text;strokeColor=none;fillColor=none;spacingLeft=4;spacingRight=4;overflow=hidden;rotatable=0;points=[[0,0.5],[1,0.5]];portConstraint=eastwest;fontSize=12;" parent="82" vertex="1">
                    <mxGeometry y="26" width="180" height="30" as="geometry"/>
                </mxCell>
                <mxCell id="84" value="league_season_id" style="text;strokeColor=none;fillColor=none;spacingLeft=4;spacingRight=4;overflow=hidden;rotatable=0;points=[[0,0.5],[1,0.5]];portConstraint=eastwest;fontSize=12;" parent="82" vertex="1">
                    <mxGeometry y="56" width="180" height="30" as="geometry"/>
                </mxCell>
                <mxCell id="85" value="team_id" style="text;strokeColor=none;fillColor=none;spacingLeft=4;spacingRight=4;overflow=hidden;rotatable=0;points=[[0,0.5],[1,0.5]];portConstraint=eastwest;fontSize=12;" parent="82" vertex="1">
                    <mxGeometry y="86" width="180" height="30" as="geometry"/>
                </mxCell>
            </root>
        </mxGraphModel>
    </diagram>
    <diagram id="1Cpf1V4FgbXU2lQrPhP6" name="logical">
        <mxGraphModel dx="627" dy="348" grid="1" gridSize="10" guides="1" tooltips="1" connect="1" arrows="1" fold="1" page="1" pageScale="1" pageWidth="850" pageHeight="1100" math="0" shadow="0">
            <root>
                <mxCell id="tsfdQXIsgQZ40Di4_jB7-0"/>
                <mxCell id="tsfdQXIsgQZ40Di4_jB7-1" parent="tsfdQXIsgQZ40Di4_jB7-0"/>
                <mxCell id="tsfdQXIsgQZ40Di4_jB7-2" value="teams" style="shape=table;startSize=30;container=1;collapsible=1;childLayout=tableLayout;fixedRows=1;rowLines=0;fontStyle=1;align=center;resizeLast=1;fillColor=#60a917;fontColor=#ffffff;strokeColor=#2D7600;" parent="tsfdQXIsgQZ40Di4_jB7-1" vertex="1">
                    <mxGeometry x="40" y="40" width="200" height="160" as="geometry"/>
                </mxCell>
                <mxCell id="tsfdQXIsgQZ40Di4_jB7-3" value="" style="shape=partialRectangle;collapsible=0;dropTarget=0;pointerEvents=0;fillColor=none;top=0;left=0;bottom=0;right=0;points=[[0,0.5],[1,0.5]];portConstraint=eastwest;" parent="tsfdQXIsgQZ40Di4_jB7-2" vertex="1">
                    <mxGeometry y="30" width="200" height="30" as="geometry"/>
                </mxCell>
                <mxCell id="tsfdQXIsgQZ40Di4_jB7-4" value="PK" style="shape=partialRectangle;connectable=0;fillColor=none;top=0;left=0;bottom=0;right=0;fontStyle=1;overflow=hidden;" parent="tsfdQXIsgQZ40Di4_jB7-3" vertex="1">
                    <mxGeometry width="60" height="30" as="geometry">
                        <mxRectangle width="60" height="30" as="alternateBounds"/>
                    </mxGeometry>
                </mxCell>
                <mxCell id="tsfdQXIsgQZ40Di4_jB7-5" value="team_id" style="shape=partialRectangle;connectable=0;fillColor=none;top=0;left=0;bottom=0;right=0;align=left;spacingLeft=6;fontStyle=5;overflow=hidden;" parent="tsfdQXIsgQZ40Di4_jB7-3" vertex="1">
                    <mxGeometry x="60" width="140" height="30" as="geometry">
                        <mxRectangle width="140" height="30" as="alternateBounds"/>
                    </mxGeometry>
                </mxCell>
                <mxCell id="l-kACbrayyOa30SEy2cj-3" style="shape=partialRectangle;collapsible=0;dropTarget=0;pointerEvents=0;fillColor=none;top=0;left=0;bottom=0;right=0;points=[[0,0.5],[1,0.5]];portConstraint=eastwest;" parent="tsfdQXIsgQZ40Di4_jB7-2" vertex="1">
                    <mxGeometry y="60" width="200" height="30" as="geometry"/>
                </mxCell>
                <mxCell id="l-kACbrayyOa30SEy2cj-4" value="FK" style="shape=partialRectangle;connectable=0;fillColor=none;top=0;left=0;bottom=0;right=0;fontStyle=1;overflow=hidden;" parent="l-kACbrayyOa30SEy2cj-3" vertex="1">
                    <mxGeometry width="60" height="30" as="geometry">
                        <mxRectangle width="60" height="30" as="alternateBounds"/>
                    </mxGeometry>
                </mxCell>
                <mxCell id="l-kACbrayyOa30SEy2cj-5" value="country_id" style="shape=partialRectangle;connectable=0;fillColor=none;top=0;left=0;bottom=0;right=0;align=left;spacingLeft=6;fontStyle=5;overflow=hidden;" parent="l-kACbrayyOa30SEy2cj-3" vertex="1">
                    <mxGeometry x="60" width="140" height="30" as="geometry">
                        <mxRectangle width="140" height="30" as="alternateBounds"/>
                    </mxGeometry>
                </mxCell>
                <mxCell id="tsfdQXIsgQZ40Di4_jB7-6" value="" style="shape=partialRectangle;collapsible=0;dropTarget=0;pointerEvents=0;fillColor=none;top=0;left=0;bottom=1;right=0;points=[[0,0.5],[1,0.5]];portConstraint=eastwest;" parent="tsfdQXIsgQZ40Di4_jB7-2" vertex="1">
                    <mxGeometry y="90" width="200" height="30" as="geometry"/>
                </mxCell>
                <mxCell id="tsfdQXIsgQZ40Di4_jB7-7" value="FK" style="shape=partialRectangle;connectable=0;fillColor=none;top=0;left=0;bottom=0;right=0;fontStyle=1;overflow=hidden;" parent="tsfdQXIsgQZ40Di4_jB7-6" vertex="1">
                    <mxGeometry width="60" height="30" as="geometry">
                        <mxRectangle width="60" height="30" as="alternateBounds"/>
                    </mxGeometry>
                </mxCell>
                <mxCell id="tsfdQXIsgQZ40Di4_jB7-8" value="sede_id" style="shape=partialRectangle;connectable=0;fillColor=none;top=0;left=0;bottom=0;right=0;align=left;spacingLeft=6;fontStyle=5;overflow=hidden;" parent="tsfdQXIsgQZ40Di4_jB7-6" vertex="1">
                    <mxGeometry x="60" width="140" height="30" as="geometry">
                        <mxRectangle width="140" height="30" as="alternateBounds"/>
                    </mxGeometry>
                </mxCell>
                <mxCell id="tsfdQXIsgQZ40Di4_jB7-9" value="" style="shape=partialRectangle;collapsible=0;dropTarget=0;pointerEvents=0;fillColor=none;top=0;left=0;bottom=0;right=0;points=[[0,0.5],[1,0.5]];portConstraint=eastwest;" parent="tsfdQXIsgQZ40Di4_jB7-2" vertex="1">
                    <mxGeometry y="120" width="200" height="30" as="geometry"/>
                </mxCell>
                <mxCell id="tsfdQXIsgQZ40Di4_jB7-10" value="" style="shape=partialRectangle;connectable=0;fillColor=none;top=0;left=0;bottom=0;right=0;editable=1;overflow=hidden;" parent="tsfdQXIsgQZ40Di4_jB7-9" vertex="1">
                    <mxGeometry width="60" height="30" as="geometry">
                        <mxRectangle width="60" height="30" as="alternateBounds"/>
                    </mxGeometry>
                </mxCell>
                <mxCell id="tsfdQXIsgQZ40Di4_jB7-11" value="team_name" style="shape=partialRectangle;connectable=0;fillColor=none;top=0;left=0;bottom=0;right=0;align=left;spacingLeft=6;overflow=hidden;" parent="tsfdQXIsgQZ40Di4_jB7-9" vertex="1">
                    <mxGeometry x="60" width="140" height="30" as="geometry">
                        <mxRectangle width="140" height="30" as="alternateBounds"/>
                    </mxGeometry>
                </mxCell>
                <mxCell id="pjdz4UELF29xhSuXNnfH-0" value="sedes" style="shape=table;startSize=30;container=1;collapsible=1;childLayout=tableLayout;fixedRows=1;rowLines=0;fontStyle=1;align=center;resizeLast=1;fillColor=#60a917;fontColor=#ffffff;strokeColor=#2D7600;" parent="tsfdQXIsgQZ40Di4_jB7-1" vertex="1">
                    <mxGeometry x="40" y="230" width="200" height="130" as="geometry"/>
                </mxCell>
                <mxCell id="pjdz4UELF29xhSuXNnfH-1" value="" style="shape=partialRectangle;collapsible=0;dropTarget=0;pointerEvents=0;fillColor=none;top=0;left=0;bottom=0;right=0;points=[[0,0.5],[1,0.5]];portConstraint=eastwest;" parent="pjdz4UELF29xhSuXNnfH-0" vertex="1">
                    <mxGeometry y="30" width="200" height="30" as="geometry"/>
                </mxCell>
                <mxCell id="pjdz4UELF29xhSuXNnfH-2" value="PK" style="shape=partialRectangle;connectable=0;fillColor=none;top=0;left=0;bottom=0;right=0;fontStyle=1;overflow=hidden;" parent="pjdz4UELF29xhSuXNnfH-1" vertex="1">
                    <mxGeometry width="60" height="30" as="geometry">
                        <mxRectangle width="60" height="30" as="alternateBounds"/>
                    </mxGeometry>
                </mxCell>
                <mxCell id="pjdz4UELF29xhSuXNnfH-3" value="sede_id" style="shape=partialRectangle;connectable=0;fillColor=none;top=0;left=0;bottom=0;right=0;align=left;spacingLeft=6;fontStyle=5;overflow=hidden;" parent="pjdz4UELF29xhSuXNnfH-1" vertex="1">
                    <mxGeometry x="60" width="140" height="30" as="geometry">
                        <mxRectangle width="140" height="30" as="alternateBounds"/>
                    </mxGeometry>
                </mxCell>
                <mxCell id="pjdz4UELF29xhSuXNnfH-7" value="" style="shape=partialRectangle;collapsible=0;dropTarget=0;pointerEvents=0;fillColor=none;top=0;left=0;bottom=1;right=0;points=[[0,0.5],[1,0.5]];portConstraint=eastwest;" parent="pjdz4UELF29xhSuXNnfH-0" vertex="1">
                    <mxGeometry y="60" width="200" height="30" as="geometry"/>
                </mxCell>
                <mxCell id="pjdz4UELF29xhSuXNnfH-8" value="FK" style="shape=partialRectangle;connectable=0;fillColor=none;top=0;left=0;bottom=0;right=0;fontStyle=1;overflow=hidden;" parent="pjdz4UELF29xhSuXNnfH-7" vertex="1">
                    <mxGeometry width="60" height="30" as="geometry">
                        <mxRectangle width="60" height="30" as="alternateBounds"/>
                    </mxGeometry>
                </mxCell>
                <mxCell id="pjdz4UELF29xhSuXNnfH-9" value="city_id" style="shape=partialRectangle;connectable=0;fillColor=none;top=0;left=0;bottom=0;right=0;align=left;spacingLeft=6;fontStyle=5;overflow=hidden;" parent="pjdz4UELF29xhSuXNnfH-7" vertex="1">
                    <mxGeometry x="60" width="140" height="30" as="geometry">
                        <mxRectangle width="140" height="30" as="alternateBounds"/>
                    </mxGeometry>
                </mxCell>
                <mxCell id="pjdz4UELF29xhSuXNnfH-10" value="" style="shape=partialRectangle;collapsible=0;dropTarget=0;pointerEvents=0;fillColor=none;top=0;left=0;bottom=0;right=0;points=[[0,0.5],[1,0.5]];portConstraint=eastwest;" parent="pjdz4UELF29xhSuXNnfH-0" vertex="1">
                    <mxGeometry y="90" width="200" height="30" as="geometry"/>
                </mxCell>
                <mxCell id="pjdz4UELF29xhSuXNnfH-11" value="" style="shape=partialRectangle;connectable=0;fillColor=none;top=0;left=0;bottom=0;right=0;editable=1;overflow=hidden;" parent="pjdz4UELF29xhSuXNnfH-10" vertex="1">
                    <mxGeometry width="60" height="30" as="geometry">
                        <mxRectangle width="60" height="30" as="alternateBounds"/>
                    </mxGeometry>
                </mxCell>
                <mxCell id="pjdz4UELF29xhSuXNnfH-12" value="sede_name" style="shape=partialRectangle;connectable=0;fillColor=none;top=0;left=0;bottom=0;right=0;align=left;spacingLeft=6;overflow=hidden;" parent="pjdz4UELF29xhSuXNnfH-10" vertex="1">
                    <mxGeometry x="60" width="140" height="30" as="geometry">
                        <mxRectangle width="140" height="30" as="alternateBounds"/>
                    </mxGeometry>
                </mxCell>
                <mxCell id="0VIgxDBaqyU48NsNEDYT-0" style="edgeStyle=none;html=1;exitX=0;exitY=0.5;exitDx=0;exitDy=0;entryX=0;entryY=0.5;entryDx=0;entryDy=0;endArrow=ERoneToMany;endFill=0;startArrow=ERone;startFill=0;" parent="tsfdQXIsgQZ40Di4_jB7-1" source="pjdz4UELF29xhSuXNnfH-1" target="tsfdQXIsgQZ40Di4_jB7-6" edge="1">
                    <mxGeometry relative="1" as="geometry">
                        <Array as="points">
                            <mxPoint x="20" y="275"/>
                            <mxPoint x="20" y="210"/>
                            <mxPoint x="20" y="145"/>
                        </Array>
                    </mxGeometry>
                </mxCell>
                <mxCell id="MkAD5w6b0ZQLQb-dVJd5-0" value="leagues" style="shape=table;startSize=30;container=1;collapsible=1;childLayout=tableLayout;fixedRows=1;rowLines=0;fontStyle=1;align=center;resizeLast=1;fillColor=#60a917;fontColor=#ffffff;strokeColor=#2D7600;" parent="tsfdQXIsgQZ40Di4_jB7-1" vertex="1">
                    <mxGeometry x="280" y="40" width="200" height="130" as="geometry"/>
                </mxCell>
                <mxCell id="MkAD5w6b0ZQLQb-dVJd5-1" value="" style="shape=partialRectangle;collapsible=0;dropTarget=0;pointerEvents=0;fillColor=none;top=0;left=0;bottom=0;right=0;points=[[0,0.5],[1,0.5]];portConstraint=eastwest;" parent="MkAD5w6b0ZQLQb-dVJd5-0" vertex="1">
                    <mxGeometry y="30" width="200" height="30" as="geometry"/>
                </mxCell>
                <mxCell id="MkAD5w6b0ZQLQb-dVJd5-2" value="PK" style="shape=partialRectangle;connectable=0;fillColor=none;top=0;left=0;bottom=0;right=0;fontStyle=1;overflow=hidden;" parent="MkAD5w6b0ZQLQb-dVJd5-1" vertex="1">
                    <mxGeometry width="60" height="30" as="geometry">
                        <mxRectangle width="60" height="30" as="alternateBounds"/>
                    </mxGeometry>
                </mxCell>
                <mxCell id="MkAD5w6b0ZQLQb-dVJd5-3" value="league_id" style="shape=partialRectangle;connectable=0;fillColor=none;top=0;left=0;bottom=0;right=0;align=left;spacingLeft=6;fontStyle=5;overflow=hidden;" parent="MkAD5w6b0ZQLQb-dVJd5-1" vertex="1">
                    <mxGeometry x="60" width="140" height="30" as="geometry">
                        <mxRectangle width="140" height="30" as="alternateBounds"/>
                    </mxGeometry>
                </mxCell>
                <mxCell id="MkAD5w6b0ZQLQb-dVJd5-4" value="" style="shape=partialRectangle;collapsible=0;dropTarget=0;pointerEvents=0;fillColor=none;top=0;left=0;bottom=1;right=0;points=[[0,0.5],[1,0.5]];portConstraint=eastwest;" parent="MkAD5w6b0ZQLQb-dVJd5-0" vertex="1">
                    <mxGeometry y="60" width="200" height="30" as="geometry"/>
                </mxCell>
                <mxCell id="MkAD5w6b0ZQLQb-dVJd5-5" value="FK" style="shape=partialRectangle;connectable=0;fillColor=none;top=0;left=0;bottom=0;right=0;fontStyle=1;overflow=hidden;" parent="MkAD5w6b0ZQLQb-dVJd5-4" vertex="1">
                    <mxGeometry width="60" height="30" as="geometry">
                        <mxRectangle width="60" height="30" as="alternateBounds"/>
                    </mxGeometry>
                </mxCell>
                <mxCell id="MkAD5w6b0ZQLQb-dVJd5-6" value="country_id" style="shape=partialRectangle;connectable=0;fillColor=none;top=0;left=0;bottom=0;right=0;align=left;spacingLeft=6;fontStyle=5;overflow=hidden;" parent="MkAD5w6b0ZQLQb-dVJd5-4" vertex="1">
                    <mxGeometry x="60" width="140" height="30" as="geometry">
                        <mxRectangle width="140" height="30" as="alternateBounds"/>
                    </mxGeometry>
                </mxCell>
                <mxCell id="MkAD5w6b0ZQLQb-dVJd5-7" value="" style="shape=partialRectangle;collapsible=0;dropTarget=0;pointerEvents=0;fillColor=none;top=0;left=0;bottom=0;right=0;points=[[0,0.5],[1,0.5]];portConstraint=eastwest;" parent="MkAD5w6b0ZQLQb-dVJd5-0" vertex="1">
                    <mxGeometry y="90" width="200" height="30" as="geometry"/>
                </mxCell>
                <mxCell id="MkAD5w6b0ZQLQb-dVJd5-8" value="" style="shape=partialRectangle;connectable=0;fillColor=none;top=0;left=0;bottom=0;right=0;editable=1;overflow=hidden;" parent="MkAD5w6b0ZQLQb-dVJd5-7" vertex="1">
                    <mxGeometry width="60" height="30" as="geometry">
                        <mxRectangle width="60" height="30" as="alternateBounds"/>
                    </mxGeometry>
                </mxCell>
                <mxCell id="MkAD5w6b0ZQLQb-dVJd5-9" value="league_name" style="shape=partialRectangle;connectable=0;fillColor=none;top=0;left=0;bottom=0;right=0;align=left;spacingLeft=6;overflow=hidden;" parent="MkAD5w6b0ZQLQb-dVJd5-7" vertex="1">
                    <mxGeometry x="60" width="140" height="30" as="geometry">
                        <mxRectangle width="140" height="30" as="alternateBounds"/>
                    </mxGeometry>
                </mxCell>
                <mxCell id="3TNu02OT9TbTIcQYDvQB-0" value="seasons" style="shape=table;startSize=30;container=1;collapsible=1;childLayout=tableLayout;fixedRows=1;rowLines=0;fontStyle=1;align=center;resizeLast=1;fillColor=#60a917;fontColor=#ffffff;strokeColor=#2D7600;" parent="tsfdQXIsgQZ40Di4_jB7-1" vertex="1">
                    <mxGeometry x="280" y="200" width="200" height="220" as="geometry"/>
                </mxCell>
                <mxCell id="3TNu02OT9TbTIcQYDvQB-1" value="" style="shape=partialRectangle;collapsible=0;dropTarget=0;pointerEvents=0;fillColor=none;top=0;left=0;bottom=0;right=0;points=[[0,0.5],[1,0.5]];portConstraint=eastwest;" parent="3TNu02OT9TbTIcQYDvQB-0" vertex="1">
                    <mxGeometry y="30" width="200" height="30" as="geometry"/>
                </mxCell>
                <mxCell id="3TNu02OT9TbTIcQYDvQB-2" value="PK" style="shape=partialRectangle;connectable=0;fillColor=none;top=0;left=0;bottom=0;right=0;fontStyle=1;overflow=hidden;" parent="3TNu02OT9TbTIcQYDvQB-1" vertex="1">
                    <mxGeometry width="60" height="30" as="geometry">
                        <mxRectangle width="60" height="30" as="alternateBounds"/>
                    </mxGeometry>
                </mxCell>
                <mxCell id="3TNu02OT9TbTIcQYDvQB-3" value="season_id" style="shape=partialRectangle;connectable=0;fillColor=none;top=0;left=0;bottom=0;right=0;align=left;spacingLeft=6;fontStyle=5;overflow=hidden;" parent="3TNu02OT9TbTIcQYDvQB-1" vertex="1">
                    <mxGeometry x="60" width="140" height="30" as="geometry">
                        <mxRectangle width="140" height="30" as="alternateBounds"/>
                    </mxGeometry>
                </mxCell>
                <mxCell id="W_oQx9cOyM4ksDAvMMfU-0" style="shape=partialRectangle;collapsible=0;dropTarget=0;pointerEvents=0;fillColor=none;top=0;left=0;bottom=0;right=0;points=[[0,0.5],[1,0.5]];portConstraint=eastwest;" parent="3TNu02OT9TbTIcQYDvQB-0" vertex="1">
                    <mxGeometry y="60" width="200" height="30" as="geometry"/>
                </mxCell>
                <mxCell id="W_oQx9cOyM4ksDAvMMfU-1" value="FK" style="shape=partialRectangle;connectable=0;fillColor=none;top=0;left=0;bottom=0;right=0;fontStyle=1;overflow=hidden;" parent="W_oQx9cOyM4ksDAvMMfU-0" vertex="1">
                    <mxGeometry width="60" height="30" as="geometry">
                        <mxRectangle width="60" height="30" as="alternateBounds"/>
                    </mxGeometry>
                </mxCell>
                <mxCell id="W_oQx9cOyM4ksDAvMMfU-2" value="league_id" style="shape=partialRectangle;connectable=0;fillColor=none;top=0;left=0;bottom=0;right=0;align=left;spacingLeft=6;fontStyle=5;overflow=hidden;" parent="W_oQx9cOyM4ksDAvMMfU-0" vertex="1">
                    <mxGeometry x="60" width="140" height="30" as="geometry">
                        <mxRectangle width="140" height="30" as="alternateBounds"/>
                    </mxGeometry>
                </mxCell>
                <mxCell id="3TNu02OT9TbTIcQYDvQB-4" value="" style="shape=partialRectangle;collapsible=0;dropTarget=0;pointerEvents=0;fillColor=none;top=0;left=0;bottom=1;right=0;points=[[0,0.5],[1,0.5]];portConstraint=eastwest;" parent="3TNu02OT9TbTIcQYDvQB-0" vertex="1">
                    <mxGeometry y="90" width="200" height="30" as="geometry"/>
                </mxCell>
                <mxCell id="3TNu02OT9TbTIcQYDvQB-5" value="FK" style="shape=partialRectangle;connectable=0;fillColor=none;top=0;left=0;bottom=0;right=0;fontStyle=1;overflow=hidden;" parent="3TNu02OT9TbTIcQYDvQB-4" vertex="1">
                    <mxGeometry width="60" height="30" as="geometry">
                        <mxRectangle width="60" height="30" as="alternateBounds"/>
                    </mxGeometry>
                </mxCell>
                <mxCell id="3TNu02OT9TbTIcQYDvQB-6" value="country_id" style="shape=partialRectangle;connectable=0;fillColor=none;top=0;left=0;bottom=0;right=0;align=left;spacingLeft=6;fontStyle=5;overflow=hidden;" parent="3TNu02OT9TbTIcQYDvQB-4" vertex="1">
                    <mxGeometry x="60" width="140" height="30" as="geometry">
                        <mxRectangle width="140" height="30" as="alternateBounds"/>
                    </mxGeometry>
                </mxCell>
                <mxCell id="3TNu02OT9TbTIcQYDvQB-7" value="" style="shape=partialRectangle;collapsible=0;dropTarget=0;pointerEvents=0;fillColor=none;top=0;left=0;bottom=0;right=0;points=[[0,0.5],[1,0.5]];portConstraint=eastwest;" parent="3TNu02OT9TbTIcQYDvQB-0" vertex="1">
                    <mxGeometry y="120" width="200" height="30" as="geometry"/>
                </mxCell>
                <mxCell id="3TNu02OT9TbTIcQYDvQB-8" value="" style="shape=partialRectangle;connectable=0;fillColor=none;top=0;left=0;bottom=0;right=0;editable=1;overflow=hidden;" parent="3TNu02OT9TbTIcQYDvQB-7" vertex="1">
                    <mxGeometry width="60" height="30" as="geometry">
                        <mxRectangle width="60" height="30" as="alternateBounds"/>
                    </mxGeometry>
                </mxCell>
                <mxCell id="3TNu02OT9TbTIcQYDvQB-9" value="season_name" style="shape=partialRectangle;connectable=0;fillColor=none;top=0;left=0;bottom=0;right=0;align=left;spacingLeft=6;overflow=hidden;" parent="3TNu02OT9TbTIcQYDvQB-7" vertex="1">
                    <mxGeometry x="60" width="140" height="30" as="geometry">
                        <mxRectangle width="140" height="30" as="alternateBounds"/>
                    </mxGeometry>
                </mxCell>
                <mxCell id="3TNu02OT9TbTIcQYDvQB-10" style="shape=partialRectangle;collapsible=0;dropTarget=0;pointerEvents=0;fillColor=none;top=0;left=0;bottom=0;right=0;points=[[0,0.5],[1,0.5]];portConstraint=eastwest;" parent="3TNu02OT9TbTIcQYDvQB-0" vertex="1">
                    <mxGeometry y="150" width="200" height="30" as="geometry"/>
                </mxCell>
                <mxCell id="3TNu02OT9TbTIcQYDvQB-11" style="shape=partialRectangle;connectable=0;fillColor=none;top=0;left=0;bottom=0;right=0;editable=1;overflow=hidden;" parent="3TNu02OT9TbTIcQYDvQB-10" vertex="1">
                    <mxGeometry width="60" height="30" as="geometry">
                        <mxRectangle width="60" height="30" as="alternateBounds"/>
                    </mxGeometry>
                </mxCell>
                <mxCell id="3TNu02OT9TbTIcQYDvQB-12" value="start_date" style="shape=partialRectangle;connectable=0;fillColor=none;top=0;left=0;bottom=0;right=0;align=left;spacingLeft=6;overflow=hidden;" parent="3TNu02OT9TbTIcQYDvQB-10" vertex="1">
                    <mxGeometry x="60" width="140" height="30" as="geometry">
                        <mxRectangle width="140" height="30" as="alternateBounds"/>
                    </mxGeometry>
                </mxCell>
                <mxCell id="1Mbgfy2Yttn2_F8jvUnS-0" style="shape=partialRectangle;collapsible=0;dropTarget=0;pointerEvents=0;fillColor=none;top=0;left=0;bottom=0;right=0;points=[[0,0.5],[1,0.5]];portConstraint=eastwest;" parent="3TNu02OT9TbTIcQYDvQB-0" vertex="1">
                    <mxGeometry y="180" width="200" height="30" as="geometry"/>
                </mxCell>
                <mxCell id="1Mbgfy2Yttn2_F8jvUnS-1" style="shape=partialRectangle;connectable=0;fillColor=none;top=0;left=0;bottom=0;right=0;editable=1;overflow=hidden;" parent="1Mbgfy2Yttn2_F8jvUnS-0" vertex="1">
                    <mxGeometry width="60" height="30" as="geometry">
                        <mxRectangle width="60" height="30" as="alternateBounds"/>
                    </mxGeometry>
                </mxCell>
                <mxCell id="1Mbgfy2Yttn2_F8jvUnS-2" value="end_date" style="shape=partialRectangle;connectable=0;fillColor=none;top=0;left=0;bottom=0;right=0;align=left;spacingLeft=6;overflow=hidden;" parent="1Mbgfy2Yttn2_F8jvUnS-0" vertex="1">
                    <mxGeometry x="60" width="140" height="30" as="geometry">
                        <mxRectangle width="140" height="30" as="alternateBounds"/>
                    </mxGeometry>
                </mxCell>
                <mxCell id="W_oQx9cOyM4ksDAvMMfU-3" style="edgeStyle=none;html=1;exitX=1;exitY=0.5;exitDx=0;exitDy=0;entryX=1;entryY=0.5;entryDx=0;entryDy=0;startArrow=ERone;startFill=0;endArrow=ERoneToMany;endFill=0;" parent="tsfdQXIsgQZ40Di4_jB7-1" source="MkAD5w6b0ZQLQb-dVJd5-1" target="W_oQx9cOyM4ksDAvMMfU-0" edge="1">
                    <mxGeometry relative="1" as="geometry">
                        <Array as="points">
                            <mxPoint x="520" y="85"/>
                            <mxPoint x="520" y="275"/>
                        </Array>
                    </mxGeometry>
                </mxCell>
                <mxCell id="HxI9Si3AzG1dbNCf2LfI-0" value="season_teams" style="shape=table;startSize=30;container=1;collapsible=1;childLayout=tableLayout;fixedRows=1;rowLines=0;fontStyle=1;align=center;resizeLast=1;fillColor=#e3c800;fontColor=#000000;strokeColor=#B09500;" parent="tsfdQXIsgQZ40Di4_jB7-1" vertex="1">
                    <mxGeometry x="580" y="40" width="200" height="130" as="geometry"/>
                </mxCell>
                <mxCell id="HxI9Si3AzG1dbNCf2LfI-1" value="" style="shape=partialRectangle;collapsible=0;dropTarget=0;pointerEvents=0;fillColor=none;top=0;left=0;bottom=0;right=0;points=[[0,0.5],[1,0.5]];portConstraint=eastwest;" parent="HxI9Si3AzG1dbNCf2LfI-0" vertex="1">
                    <mxGeometry y="30" width="200" height="30" as="geometry"/>
                </mxCell>
                <mxCell id="HxI9Si3AzG1dbNCf2LfI-2" value="PK" style="shape=partialRectangle;connectable=0;fillColor=none;top=0;left=0;bottom=0;right=0;fontStyle=1;overflow=hidden;" parent="HxI9Si3AzG1dbNCf2LfI-1" vertex="1">
                    <mxGeometry width="60" height="30" as="geometry">
                        <mxRectangle width="60" height="30" as="alternateBounds"/>
                    </mxGeometry>
                </mxCell>
                <mxCell id="HxI9Si3AzG1dbNCf2LfI-3" value="season_team_id" style="shape=partialRectangle;connectable=0;fillColor=none;top=0;left=0;bottom=0;right=0;align=left;spacingLeft=6;fontStyle=5;overflow=hidden;" parent="HxI9Si3AzG1dbNCf2LfI-1" vertex="1">
                    <mxGeometry x="60" width="140" height="30" as="geometry">
                        <mxRectangle width="140" height="30" as="alternateBounds"/>
                    </mxGeometry>
                </mxCell>
                <mxCell id="RLAO6huBOZZ7muSH_AnO-0" style="shape=partialRectangle;collapsible=0;dropTarget=0;pointerEvents=0;fillColor=none;top=0;left=0;bottom=0;right=0;points=[[0,0.5],[1,0.5]];portConstraint=eastwest;" parent="HxI9Si3AzG1dbNCf2LfI-0" vertex="1">
                    <mxGeometry y="60" width="200" height="30" as="geometry"/>
                </mxCell>
                <mxCell id="RLAO6huBOZZ7muSH_AnO-1" value="FK" style="shape=partialRectangle;connectable=0;fillColor=none;top=0;left=0;bottom=0;right=0;fontStyle=1;overflow=hidden;" parent="RLAO6huBOZZ7muSH_AnO-0" vertex="1">
                    <mxGeometry width="60" height="30" as="geometry">
                        <mxRectangle width="60" height="30" as="alternateBounds"/>
                    </mxGeometry>
                </mxCell>
                <mxCell id="RLAO6huBOZZ7muSH_AnO-2" value="season_id" style="shape=partialRectangle;connectable=0;fillColor=none;top=0;left=0;bottom=0;right=0;align=left;spacingLeft=6;fontStyle=5;overflow=hidden;" parent="RLAO6huBOZZ7muSH_AnO-0" vertex="1">
                    <mxGeometry x="60" width="140" height="30" as="geometry">
                        <mxRectangle width="140" height="30" as="alternateBounds"/>
                    </mxGeometry>
                </mxCell>
                <mxCell id="HxI9Si3AzG1dbNCf2LfI-4" value="" style="shape=partialRectangle;collapsible=0;dropTarget=0;pointerEvents=0;fillColor=none;top=0;left=0;bottom=1;right=0;points=[[0,0.5],[1,0.5]];portConstraint=eastwest;" parent="HxI9Si3AzG1dbNCf2LfI-0" vertex="1">
                    <mxGeometry y="90" width="200" height="30" as="geometry"/>
                </mxCell>
                <mxCell id="HxI9Si3AzG1dbNCf2LfI-5" value="FK" style="shape=partialRectangle;connectable=0;fillColor=none;top=0;left=0;bottom=0;right=0;fontStyle=1;overflow=hidden;" parent="HxI9Si3AzG1dbNCf2LfI-4" vertex="1">
                    <mxGeometry width="60" height="30" as="geometry">
                        <mxRectangle width="60" height="30" as="alternateBounds"/>
                    </mxGeometry>
                </mxCell>
                <mxCell id="HxI9Si3AzG1dbNCf2LfI-6" value="team_id" style="shape=partialRectangle;connectable=0;fillColor=none;top=0;left=0;bottom=0;right=0;align=left;spacingLeft=6;fontStyle=5;overflow=hidden;" parent="HxI9Si3AzG1dbNCf2LfI-4" vertex="1">
                    <mxGeometry x="60" width="140" height="30" as="geometry">
                        <mxRectangle width="140" height="30" as="alternateBounds"/>
                    </mxGeometry>
                </mxCell>
                <mxCell id="RLAO6huBOZZ7muSH_AnO-3" style="edgeStyle=none;html=1;exitX=0;exitY=0.5;exitDx=0;exitDy=0;startArrow=ERone;startFill=0;endArrow=ERoneToMany;endFill=0;" parent="tsfdQXIsgQZ40Di4_jB7-1" source="tsfdQXIsgQZ40Di4_jB7-3" edge="1">
                    <mxGeometry relative="1" as="geometry">
                        <mxPoint x="580" y="140" as="targetPoint"/>
                        <Array as="points">
                            <mxPoint x="20" y="85"/>
                            <mxPoint x="20" y="10"/>
                            <mxPoint x="560" y="10"/>
                            <mxPoint x="560" y="140"/>
                        </Array>
                    </mxGeometry>
                </mxCell>
                <mxCell id="RLAO6huBOZZ7muSH_AnO-5" style="edgeStyle=none;html=1;exitX=1;exitY=0.5;exitDx=0;exitDy=0;entryX=0;entryY=0.5;entryDx=0;entryDy=0;startArrow=ERone;startFill=0;endArrow=ERoneToMany;endFill=0;" parent="tsfdQXIsgQZ40Di4_jB7-1" source="3TNu02OT9TbTIcQYDvQB-1" target="RLAO6huBOZZ7muSH_AnO-0" edge="1">
                    <mxGeometry relative="1" as="geometry">
                        <Array as="points">
                            <mxPoint x="550" y="245"/>
                            <mxPoint x="550" y="115"/>
                        </Array>
                    </mxGeometry>
                </mxCell>
                <mxCell id="u3rLqJC1RdhB7AkvsSWy-0" value="players" style="shape=table;startSize=30;container=1;collapsible=1;childLayout=tableLayout;fixedRows=1;rowLines=0;fontStyle=1;align=center;resizeLast=1;fillColor=#60a917;fontColor=#ffffff;strokeColor=#2D7600;" parent="tsfdQXIsgQZ40Di4_jB7-1" vertex="1">
                    <mxGeometry x="40" y="390" width="200" height="220" as="geometry"/>
                </mxCell>
                <mxCell id="u3rLqJC1RdhB7AkvsSWy-4" value="" style="shape=partialRectangle;collapsible=0;dropTarget=0;pointerEvents=0;fillColor=none;top=0;left=0;bottom=1;right=0;points=[[0,0.5],[1,0.5]];portConstraint=eastwest;" parent="u3rLqJC1RdhB7AkvsSWy-0" vertex="1">
                    <mxGeometry y="30" width="200" height="30" as="geometry"/>
                </mxCell>
                <mxCell id="u3rLqJC1RdhB7AkvsSWy-5" value="PK" style="shape=partialRectangle;connectable=0;fillColor=none;top=0;left=0;bottom=0;right=0;fontStyle=1;overflow=hidden;" parent="u3rLqJC1RdhB7AkvsSWy-4" vertex="1">
                    <mxGeometry width="60" height="30" as="geometry">
                        <mxRectangle width="60" height="30" as="alternateBounds"/>
                    </mxGeometry>
                </mxCell>
                <mxCell id="u3rLqJC1RdhB7AkvsSWy-6" value="player_id" style="shape=partialRectangle;connectable=0;fillColor=none;top=0;left=0;bottom=0;right=0;align=left;spacingLeft=6;fontStyle=5;overflow=hidden;" parent="u3rLqJC1RdhB7AkvsSWy-4" vertex="1">
                    <mxGeometry x="60" width="140" height="30" as="geometry">
                        <mxRectangle width="140" height="30" as="alternateBounds"/>
                    </mxGeometry>
                </mxCell>
                <mxCell id="u3rLqJC1RdhB7AkvsSWy-7" value="" style="shape=partialRectangle;collapsible=0;dropTarget=0;pointerEvents=0;fillColor=none;top=0;left=0;bottom=0;right=0;points=[[0,0.5],[1,0.5]];portConstraint=eastwest;" parent="u3rLqJC1RdhB7AkvsSWy-0" vertex="1">
                    <mxGeometry y="60" width="200" height="30" as="geometry"/>
                </mxCell>
                <mxCell id="u3rLqJC1RdhB7AkvsSWy-8" value="" style="shape=partialRectangle;connectable=0;fillColor=none;top=0;left=0;bottom=0;right=0;editable=1;overflow=hidden;" parent="u3rLqJC1RdhB7AkvsSWy-7" vertex="1">
                    <mxGeometry width="60" height="30" as="geometry">
                        <mxRectangle width="60" height="30" as="alternateBounds"/>
                    </mxGeometry>
                </mxCell>
                <mxCell id="u3rLqJC1RdhB7AkvsSWy-9" value="nickname" style="shape=partialRectangle;connectable=0;fillColor=none;top=0;left=0;bottom=0;right=0;align=left;spacingLeft=6;overflow=hidden;" parent="u3rLqJC1RdhB7AkvsSWy-7" vertex="1">
                    <mxGeometry x="60" width="140" height="30" as="geometry">
                        <mxRectangle width="140" height="30" as="alternateBounds"/>
                    </mxGeometry>
                </mxCell>
                <mxCell id="aFkSXeeQgMHv-YkKMuMo-0" style="shape=partialRectangle;collapsible=0;dropTarget=0;pointerEvents=0;fillColor=none;top=0;left=0;bottom=0;right=0;points=[[0,0.5],[1,0.5]];portConstraint=eastwest;" parent="u3rLqJC1RdhB7AkvsSWy-0" vertex="1">
                    <mxGeometry y="90" width="200" height="30" as="geometry"/>
                </mxCell>
                <mxCell id="aFkSXeeQgMHv-YkKMuMo-1" style="shape=partialRectangle;connectable=0;fillColor=none;top=0;left=0;bottom=0;right=0;editable=1;overflow=hidden;" parent="aFkSXeeQgMHv-YkKMuMo-0" vertex="1">
                    <mxGeometry width="60" height="30" as="geometry">
                        <mxRectangle width="60" height="30" as="alternateBounds"/>
                    </mxGeometry>
                </mxCell>
                <mxCell id="aFkSXeeQgMHv-YkKMuMo-2" value="name" style="shape=partialRectangle;connectable=0;fillColor=none;top=0;left=0;bottom=0;right=0;align=left;spacingLeft=6;overflow=hidden;" parent="aFkSXeeQgMHv-YkKMuMo-0" vertex="1">
                    <mxGeometry x="60" width="140" height="30" as="geometry">
                        <mxRectangle width="140" height="30" as="alternateBounds"/>
                    </mxGeometry>
                </mxCell>
                <mxCell id="aFkSXeeQgMHv-YkKMuMo-3" style="shape=partialRectangle;collapsible=0;dropTarget=0;pointerEvents=0;fillColor=none;top=0;left=0;bottom=0;right=0;points=[[0,0.5],[1,0.5]];portConstraint=eastwest;" parent="u3rLqJC1RdhB7AkvsSWy-0" vertex="1">
                    <mxGeometry y="120" width="200" height="30" as="geometry"/>
                </mxCell>
                <mxCell id="aFkSXeeQgMHv-YkKMuMo-4" style="shape=partialRectangle;connectable=0;fillColor=none;top=0;left=0;bottom=0;right=0;editable=1;overflow=hidden;" parent="aFkSXeeQgMHv-YkKMuMo-3" vertex="1">
                    <mxGeometry width="60" height="30" as="geometry">
                        <mxRectangle width="60" height="30" as="alternateBounds"/>
                    </mxGeometry>
                </mxCell>
                <mxCell id="aFkSXeeQgMHv-YkKMuMo-5" value="last_name" style="shape=partialRectangle;connectable=0;fillColor=none;top=0;left=0;bottom=0;right=0;align=left;spacingLeft=6;overflow=hidden;" parent="aFkSXeeQgMHv-YkKMuMo-3" vertex="1">
                    <mxGeometry x="60" width="140" height="30" as="geometry">
                        <mxRectangle width="140" height="30" as="alternateBounds"/>
                    </mxGeometry>
                </mxCell>
                <mxCell id="aFkSXeeQgMHv-YkKMuMo-6" style="shape=partialRectangle;collapsible=0;dropTarget=0;pointerEvents=0;fillColor=none;top=0;left=0;bottom=0;right=0;points=[[0,0.5],[1,0.5]];portConstraint=eastwest;" parent="u3rLqJC1RdhB7AkvsSWy-0" vertex="1">
                    <mxGeometry y="150" width="200" height="30" as="geometry"/>
                </mxCell>
                <mxCell id="aFkSXeeQgMHv-YkKMuMo-7" style="shape=partialRectangle;connectable=0;fillColor=none;top=0;left=0;bottom=0;right=0;editable=1;overflow=hidden;" parent="aFkSXeeQgMHv-YkKMuMo-6" vertex="1">
                    <mxGeometry width="60" height="30" as="geometry">
                        <mxRectangle width="60" height="30" as="alternateBounds"/>
                    </mxGeometry>
                </mxCell>
                <mxCell id="aFkSXeeQgMHv-YkKMuMo-8" value="birthdate" style="shape=partialRectangle;connectable=0;fillColor=none;top=0;left=0;bottom=0;right=0;align=left;spacingLeft=6;overflow=hidden;" parent="aFkSXeeQgMHv-YkKMuMo-6" vertex="1">
                    <mxGeometry x="60" width="140" height="30" as="geometry">
                        <mxRectangle width="140" height="30" as="alternateBounds"/>
                    </mxGeometry>
                </mxCell>
                <mxCell id="jPzgXkpK8env50SSelQF-0" style="shape=partialRectangle;collapsible=0;dropTarget=0;pointerEvents=0;fillColor=none;top=0;left=0;bottom=0;right=0;points=[[0,0.5],[1,0.5]];portConstraint=eastwest;" parent="u3rLqJC1RdhB7AkvsSWy-0" vertex="1">
                    <mxGeometry y="180" width="200" height="30" as="geometry"/>
                </mxCell>
                <mxCell id="jPzgXkpK8env50SSelQF-1" style="shape=partialRectangle;connectable=0;fillColor=none;top=0;left=0;bottom=0;right=0;editable=1;overflow=hidden;" parent="jPzgXkpK8env50SSelQF-0" vertex="1">
                    <mxGeometry width="60" height="30" as="geometry">
                        <mxRectangle width="60" height="30" as="alternateBounds"/>
                    </mxGeometry>
                </mxCell>
                <mxCell id="jPzgXkpK8env50SSelQF-2" value="nationality" style="shape=partialRectangle;connectable=0;fillColor=none;top=0;left=0;bottom=0;right=0;align=left;spacingLeft=6;overflow=hidden;" parent="jPzgXkpK8env50SSelQF-0" vertex="1">
                    <mxGeometry x="60" width="140" height="30" as="geometry">
                        <mxRectangle width="140" height="30" as="alternateBounds"/>
                    </mxGeometry>
                </mxCell>
                <mxCell id="Eugkp6UqVmqyzbSFeytQ-0" value="players_team" style="shape=table;startSize=30;container=1;collapsible=1;childLayout=tableLayout;fixedRows=1;rowLines=0;fontStyle=1;align=center;resizeLast=1;fillColor=#e3c800;fontColor=#000000;strokeColor=#B09500;" parent="tsfdQXIsgQZ40Di4_jB7-1" vertex="1">
                    <mxGeometry x="40" y="660" width="200" height="220" as="geometry"/>
                </mxCell>
                <mxCell id="Eugkp6UqVmqyzbSFeytQ-1" value="" style="shape=partialRectangle;collapsible=0;dropTarget=0;pointerEvents=0;fillColor=none;top=0;left=0;bottom=0;right=0;points=[[0,0.5],[1,0.5]];portConstraint=eastwest;" parent="Eugkp6UqVmqyzbSFeytQ-0" vertex="1">
                    <mxGeometry y="30" width="200" height="30" as="geometry"/>
                </mxCell>
                <mxCell id="Eugkp6UqVmqyzbSFeytQ-2" value="PK" style="shape=partialRectangle;connectable=0;fillColor=none;top=0;left=0;bottom=0;right=0;fontStyle=1;overflow=hidden;" parent="Eugkp6UqVmqyzbSFeytQ-1" vertex="1">
                    <mxGeometry width="60" height="30" as="geometry">
                        <mxRectangle width="60" height="30" as="alternateBounds"/>
                    </mxGeometry>
                </mxCell>
                <mxCell id="Eugkp6UqVmqyzbSFeytQ-3" value="player_team_id" style="shape=partialRectangle;connectable=0;fillColor=none;top=0;left=0;bottom=0;right=0;align=left;spacingLeft=6;fontStyle=5;overflow=hidden;" parent="Eugkp6UqVmqyzbSFeytQ-1" vertex="1">
                    <mxGeometry x="60" width="140" height="30" as="geometry">
                        <mxRectangle width="140" height="30" as="alternateBounds"/>
                    </mxGeometry>
                </mxCell>
                <mxCell id="Eugkp6UqVmqyzbSFeytQ-4" style="shape=partialRectangle;collapsible=0;dropTarget=0;pointerEvents=0;fillColor=none;top=0;left=0;bottom=0;right=0;points=[[0,0.5],[1,0.5]];portConstraint=eastwest;" parent="Eugkp6UqVmqyzbSFeytQ-0" vertex="1">
                    <mxGeometry y="60" width="200" height="30" as="geometry"/>
                </mxCell>
                <mxCell id="Eugkp6UqVmqyzbSFeytQ-5" value="FK" style="shape=partialRectangle;connectable=0;fillColor=none;top=0;left=0;bottom=0;right=0;fontStyle=1;overflow=hidden;" parent="Eugkp6UqVmqyzbSFeytQ-4" vertex="1">
                    <mxGeometry width="60" height="30" as="geometry">
                        <mxRectangle width="60" height="30" as="alternateBounds"/>
                    </mxGeometry>
                </mxCell>
                <mxCell id="Eugkp6UqVmqyzbSFeytQ-6" value="player_id" style="shape=partialRectangle;connectable=0;fillColor=none;top=0;left=0;bottom=0;right=0;align=left;spacingLeft=6;fontStyle=5;overflow=hidden;" parent="Eugkp6UqVmqyzbSFeytQ-4" vertex="1">
                    <mxGeometry x="60" width="140" height="30" as="geometry">
                        <mxRectangle width="140" height="30" as="alternateBounds"/>
                    </mxGeometry>
                </mxCell>
                <mxCell id="Eugkp6UqVmqyzbSFeytQ-7" value="" style="shape=partialRectangle;collapsible=0;dropTarget=0;pointerEvents=0;fillColor=none;top=0;left=0;bottom=1;right=0;points=[[0,0.5],[1,0.5]];portConstraint=eastwest;" parent="Eugkp6UqVmqyzbSFeytQ-0" vertex="1">
                    <mxGeometry y="90" width="200" height="30" as="geometry"/>
                </mxCell>
                <mxCell id="Eugkp6UqVmqyzbSFeytQ-8" value="FK" style="shape=partialRectangle;connectable=0;fillColor=none;top=0;left=0;bottom=0;right=0;fontStyle=1;overflow=hidden;" parent="Eugkp6UqVmqyzbSFeytQ-7" vertex="1">
                    <mxGeometry width="60" height="30" as="geometry">
                        <mxRectangle width="60" height="30" as="alternateBounds"/>
                    </mxGeometry>
                </mxCell>
                <mxCell id="Eugkp6UqVmqyzbSFeytQ-9" value="team_id" style="shape=partialRectangle;connectable=0;fillColor=none;top=0;left=0;bottom=0;right=0;align=left;spacingLeft=6;fontStyle=5;overflow=hidden;" parent="Eugkp6UqVmqyzbSFeytQ-7" vertex="1">
                    <mxGeometry x="60" width="140" height="30" as="geometry">
                        <mxRectangle width="140" height="30" as="alternateBounds"/>
                    </mxGeometry>
                </mxCell>
                <mxCell id="Eugkp6UqVmqyzbSFeytQ-13" style="shape=partialRectangle;collapsible=0;dropTarget=0;pointerEvents=0;fillColor=none;top=0;left=0;bottom=0;right=0;points=[[0,0.5],[1,0.5]];portConstraint=eastwest;" parent="Eugkp6UqVmqyzbSFeytQ-0" vertex="1">
                    <mxGeometry y="120" width="200" height="30" as="geometry"/>
                </mxCell>
                <mxCell id="Eugkp6UqVmqyzbSFeytQ-14" style="shape=partialRectangle;connectable=0;fillColor=none;top=0;left=0;bottom=0;right=0;editable=1;overflow=hidden;" parent="Eugkp6UqVmqyzbSFeytQ-13" vertex="1">
                    <mxGeometry width="60" height="30" as="geometry">
                        <mxRectangle width="60" height="30" as="alternateBounds"/>
                    </mxGeometry>
                </mxCell>
                <mxCell id="Eugkp6UqVmqyzbSFeytQ-15" value="start_date" style="shape=partialRectangle;connectable=0;fillColor=none;top=0;left=0;bottom=0;right=0;align=left;spacingLeft=6;overflow=hidden;" parent="Eugkp6UqVmqyzbSFeytQ-13" vertex="1">
                    <mxGeometry x="60" width="140" height="30" as="geometry">
                        <mxRectangle width="140" height="30" as="alternateBounds"/>
                    </mxGeometry>
                </mxCell>
                <mxCell id="Eugkp6UqVmqyzbSFeytQ-16" style="shape=partialRectangle;collapsible=0;dropTarget=0;pointerEvents=0;fillColor=none;top=0;left=0;bottom=0;right=0;points=[[0,0.5],[1,0.5]];portConstraint=eastwest;" parent="Eugkp6UqVmqyzbSFeytQ-0" vertex="1">
                    <mxGeometry y="150" width="200" height="30" as="geometry"/>
                </mxCell>
                <mxCell id="Eugkp6UqVmqyzbSFeytQ-17" style="shape=partialRectangle;connectable=0;fillColor=none;top=0;left=0;bottom=0;right=0;editable=1;overflow=hidden;" parent="Eugkp6UqVmqyzbSFeytQ-16" vertex="1">
                    <mxGeometry width="60" height="30" as="geometry">
                        <mxRectangle width="60" height="30" as="alternateBounds"/>
                    </mxGeometry>
                </mxCell>
                <mxCell id="Eugkp6UqVmqyzbSFeytQ-18" value="end_date" style="shape=partialRectangle;connectable=0;fillColor=none;top=0;left=0;bottom=0;right=0;align=left;spacingLeft=6;overflow=hidden;" parent="Eugkp6UqVmqyzbSFeytQ-16" vertex="1">
                    <mxGeometry x="60" width="140" height="30" as="geometry">
                        <mxRectangle width="140" height="30" as="alternateBounds"/>
                    </mxGeometry>
                </mxCell>
                <mxCell id="gq4MyZiORt4mINtFZCpM-11" style="shape=partialRectangle;collapsible=0;dropTarget=0;pointerEvents=0;fillColor=none;top=0;left=0;bottom=0;right=0;points=[[0,0.5],[1,0.5]];portConstraint=eastwest;" parent="Eugkp6UqVmqyzbSFeytQ-0" vertex="1">
                    <mxGeometry y="180" width="200" height="30" as="geometry"/>
                </mxCell>
                <mxCell id="gq4MyZiORt4mINtFZCpM-12" style="shape=partialRectangle;connectable=0;fillColor=none;top=0;left=0;bottom=0;right=0;editable=1;overflow=hidden;" parent="gq4MyZiORt4mINtFZCpM-11" vertex="1">
                    <mxGeometry width="60" height="30" as="geometry">
                        <mxRectangle width="60" height="30" as="alternateBounds"/>
                    </mxGeometry>
                </mxCell>
                <mxCell id="gq4MyZiORt4mINtFZCpM-13" value="tshirt_number" style="shape=partialRectangle;connectable=0;fillColor=none;top=0;left=0;bottom=0;right=0;align=left;spacingLeft=6;overflow=hidden;" parent="gq4MyZiORt4mINtFZCpM-11" vertex="1">
                    <mxGeometry x="60" width="140" height="30" as="geometry">
                        <mxRectangle width="140" height="30" as="alternateBounds"/>
                    </mxGeometry>
                </mxCell>
                <mxCell id="A-Ci93jQcMj89bMHBtfb-0" style="edgeStyle=none;html=1;entryX=0;entryY=0.5;entryDx=0;entryDy=0;startArrow=ERone;startFill=0;endArrow=ERoneToMany;endFill=0;exitX=0;exitY=0.5;exitDx=0;exitDy=0;" parent="tsfdQXIsgQZ40Di4_jB7-1" source="tsfdQXIsgQZ40Di4_jB7-3" target="Eugkp6UqVmqyzbSFeytQ-7" edge="1">
                    <mxGeometry relative="1" as="geometry">
                        <Array as="points">
                            <mxPoint x="10" y="85"/>
                            <mxPoint x="10" y="765"/>
                        </Array>
                    </mxGeometry>
                </mxCell>
                <mxCell id="A-Ci93jQcMj89bMHBtfb-1" style="edgeStyle=none;html=1;entryX=0;entryY=0.5;entryDx=0;entryDy=0;startArrow=ERone;startFill=0;endArrow=ERoneToMany;endFill=0;exitX=0;exitY=0.5;exitDx=0;exitDy=0;" parent="tsfdQXIsgQZ40Di4_jB7-1" source="u3rLqJC1RdhB7AkvsSWy-4" target="Eugkp6UqVmqyzbSFeytQ-4" edge="1">
                    <mxGeometry relative="1" as="geometry">
                        <Array as="points">
                            <mxPoint x="20" y="435"/>
                            <mxPoint x="20" y="735"/>
                        </Array>
                    </mxGeometry>
                </mxCell>
                <mxCell id="K-5YMMuWyl7_z5-dhDd7-0" value="matches" style="shape=table;startSize=30;container=1;collapsible=1;childLayout=tableLayout;fixedRows=1;rowLines=0;fontStyle=1;align=center;resizeLast=1;fillColor=#60a917;fontColor=#ffffff;strokeColor=#2D7600;" parent="tsfdQXIsgQZ40Di4_jB7-1" vertex="1">
                    <mxGeometry x="280" y="460" width="200" height="220" as="geometry"/>
                </mxCell>
                <mxCell id="K-5YMMuWyl7_z5-dhDd7-1" value="" style="shape=partialRectangle;collapsible=0;dropTarget=0;pointerEvents=0;fillColor=none;top=0;left=0;bottom=0;right=0;points=[[0,0.5],[1,0.5]];portConstraint=eastwest;" parent="K-5YMMuWyl7_z5-dhDd7-0" vertex="1">
                    <mxGeometry y="30" width="200" height="30" as="geometry"/>
                </mxCell>
                <mxCell id="K-5YMMuWyl7_z5-dhDd7-2" value="PK" style="shape=partialRectangle;connectable=0;fillColor=none;top=0;left=0;bottom=0;right=0;fontStyle=1;overflow=hidden;" parent="K-5YMMuWyl7_z5-dhDd7-1" vertex="1">
                    <mxGeometry width="60" height="30" as="geometry">
                        <mxRectangle width="60" height="30" as="alternateBounds"/>
                    </mxGeometry>
                </mxCell>
                <mxCell id="K-5YMMuWyl7_z5-dhDd7-3" value="match_id" style="shape=partialRectangle;connectable=0;fillColor=none;top=0;left=0;bottom=0;right=0;align=left;spacingLeft=6;fontStyle=5;overflow=hidden;" parent="K-5YMMuWyl7_z5-dhDd7-1" vertex="1">
                    <mxGeometry x="60" width="140" height="30" as="geometry">
                        <mxRectangle width="140" height="30" as="alternateBounds"/>
                    </mxGeometry>
                </mxCell>
                <mxCell id="K-5YMMuWyl7_z5-dhDd7-4" style="shape=partialRectangle;collapsible=0;dropTarget=0;pointerEvents=0;fillColor=none;top=0;left=0;bottom=0;right=0;points=[[0,0.5],[1,0.5]];portConstraint=eastwest;" parent="K-5YMMuWyl7_z5-dhDd7-0" vertex="1">
                    <mxGeometry y="60" width="200" height="30" as="geometry"/>
                </mxCell>
                <mxCell id="K-5YMMuWyl7_z5-dhDd7-5" value="FK" style="shape=partialRectangle;connectable=0;fillColor=none;top=0;left=0;bottom=0;right=0;fontStyle=1;overflow=hidden;" parent="K-5YMMuWyl7_z5-dhDd7-4" vertex="1">
                    <mxGeometry width="60" height="30" as="geometry">
                        <mxRectangle width="60" height="30" as="alternateBounds"/>
                    </mxGeometry>
                </mxCell>
                <mxCell id="K-5YMMuWyl7_z5-dhDd7-6" value="sede_id" style="shape=partialRectangle;connectable=0;fillColor=none;top=0;left=0;bottom=0;right=0;align=left;spacingLeft=6;fontStyle=5;overflow=hidden;" parent="K-5YMMuWyl7_z5-dhDd7-4" vertex="1">
                    <mxGeometry x="60" width="140" height="30" as="geometry">
                        <mxRectangle width="140" height="30" as="alternateBounds"/>
                    </mxGeometry>
                </mxCell>
                <mxCell id="uAyDHXlUssdemoD6bHyQ-0" style="shape=partialRectangle;collapsible=0;dropTarget=0;pointerEvents=0;fillColor=none;top=0;left=0;bottom=0;right=0;points=[[0,0.5],[1,0.5]];portConstraint=eastwest;" parent="K-5YMMuWyl7_z5-dhDd7-0" vertex="1">
                    <mxGeometry y="90" width="200" height="30" as="geometry"/>
                </mxCell>
                <mxCell id="uAyDHXlUssdemoD6bHyQ-1" value="FK" style="shape=partialRectangle;connectable=0;fillColor=none;top=0;left=0;bottom=0;right=0;fontStyle=1;overflow=hidden;" parent="uAyDHXlUssdemoD6bHyQ-0" vertex="1">
                    <mxGeometry width="60" height="30" as="geometry">
                        <mxRectangle width="60" height="30" as="alternateBounds"/>
                    </mxGeometry>
                </mxCell>
                <mxCell id="uAyDHXlUssdemoD6bHyQ-2" value="season_id" style="shape=partialRectangle;connectable=0;fillColor=none;top=0;left=0;bottom=0;right=0;align=left;spacingLeft=6;fontStyle=5;overflow=hidden;" parent="uAyDHXlUssdemoD6bHyQ-0" vertex="1">
                    <mxGeometry x="60" width="140" height="30" as="geometry">
                        <mxRectangle width="140" height="30" as="alternateBounds"/>
                    </mxGeometry>
                </mxCell>
                <mxCell id="p-k4w7msAGm8laucBorP-0" style="shape=partialRectangle;collapsible=0;dropTarget=0;pointerEvents=0;fillColor=none;top=0;left=0;bottom=0;right=0;points=[[0,0.5],[1,0.5]];portConstraint=eastwest;" parent="K-5YMMuWyl7_z5-dhDd7-0" vertex="1">
                    <mxGeometry y="120" width="200" height="30" as="geometry"/>
                </mxCell>
                <mxCell id="p-k4w7msAGm8laucBorP-1" value="FK" style="shape=partialRectangle;connectable=0;fillColor=none;top=0;left=0;bottom=0;right=0;fontStyle=1;overflow=hidden;" parent="p-k4w7msAGm8laucBorP-0" vertex="1">
                    <mxGeometry width="60" height="30" as="geometry">
                        <mxRectangle width="60" height="30" as="alternateBounds"/>
                    </mxGeometry>
                </mxCell>
                <mxCell id="p-k4w7msAGm8laucBorP-2" value="local_team_id" style="shape=partialRectangle;connectable=0;fillColor=none;top=0;left=0;bottom=0;right=0;align=left;spacingLeft=6;fontStyle=5;overflow=hidden;" parent="p-k4w7msAGm8laucBorP-0" vertex="1">
                    <mxGeometry x="60" width="140" height="30" as="geometry">
                        <mxRectangle width="140" height="30" as="alternateBounds"/>
                    </mxGeometry>
                </mxCell>
                <mxCell id="K-5YMMuWyl7_z5-dhDd7-7" value="" style="shape=partialRectangle;collapsible=0;dropTarget=0;pointerEvents=0;fillColor=none;top=0;left=0;bottom=1;right=0;points=[[0,0.5],[1,0.5]];portConstraint=eastwest;" parent="K-5YMMuWyl7_z5-dhDd7-0" vertex="1">
                    <mxGeometry y="150" width="200" height="30" as="geometry"/>
                </mxCell>
                <mxCell id="K-5YMMuWyl7_z5-dhDd7-8" value="FK" style="shape=partialRectangle;connectable=0;fillColor=none;top=0;left=0;bottom=0;right=0;fontStyle=1;overflow=hidden;" parent="K-5YMMuWyl7_z5-dhDd7-7" vertex="1">
                    <mxGeometry width="60" height="30" as="geometry">
                        <mxRectangle width="60" height="30" as="alternateBounds"/>
                    </mxGeometry>
                </mxCell>
                <mxCell id="K-5YMMuWyl7_z5-dhDd7-9" value="visitor_team_id" style="shape=partialRectangle;connectable=0;fillColor=none;top=0;left=0;bottom=0;right=0;align=left;spacingLeft=6;fontStyle=5;overflow=hidden;" parent="K-5YMMuWyl7_z5-dhDd7-7" vertex="1">
                    <mxGeometry x="60" width="140" height="30" as="geometry">
                        <mxRectangle width="140" height="30" as="alternateBounds"/>
                    </mxGeometry>
                </mxCell>
                <mxCell id="K-5YMMuWyl7_z5-dhDd7-10" value="" style="shape=partialRectangle;collapsible=0;dropTarget=0;pointerEvents=0;fillColor=none;top=0;left=0;bottom=0;right=0;points=[[0,0.5],[1,0.5]];portConstraint=eastwest;" parent="K-5YMMuWyl7_z5-dhDd7-0" vertex="1">
                    <mxGeometry y="180" width="200" height="30" as="geometry"/>
                </mxCell>
                <mxCell id="K-5YMMuWyl7_z5-dhDd7-11" value="" style="shape=partialRectangle;connectable=0;fillColor=none;top=0;left=0;bottom=0;right=0;editable=1;overflow=hidden;" parent="K-5YMMuWyl7_z5-dhDd7-10" vertex="1">
                    <mxGeometry width="60" height="30" as="geometry">
                        <mxRectangle width="60" height="30" as="alternateBounds"/>
                    </mxGeometry>
                </mxCell>
                <mxCell id="K-5YMMuWyl7_z5-dhDd7-12" value="date" style="shape=partialRectangle;connectable=0;fillColor=none;top=0;left=0;bottom=0;right=0;align=left;spacingLeft=6;overflow=hidden;" parent="K-5YMMuWyl7_z5-dhDd7-10" vertex="1">
                    <mxGeometry x="60" width="140" height="30" as="geometry">
                        <mxRectangle width="140" height="30" as="alternateBounds"/>
                    </mxGeometry>
                </mxCell>
                <mxCell id="YQf6tyQvpFC66mHpml7K-0" style="edgeStyle=none;html=1;startArrow=ERone;startFill=0;endArrow=ERoneToMany;endFill=0;exitX=1;exitY=0.5;exitDx=0;exitDy=0;entryX=1;entryY=0.5;entryDx=0;entryDy=0;" parent="tsfdQXIsgQZ40Di4_jB7-1" source="pjdz4UELF29xhSuXNnfH-1" target="K-5YMMuWyl7_z5-dhDd7-4" edge="1">
                    <mxGeometry relative="1" as="geometry">
                        <mxPoint x="270" y="535" as="targetPoint"/>
                        <Array as="points">
                            <mxPoint x="260" y="275"/>
                            <mxPoint x="260" y="440"/>
                            <mxPoint x="500" y="440"/>
                            <mxPoint x="500" y="535"/>
                        </Array>
                    </mxGeometry>
                </mxCell>
                <mxCell id="YQf6tyQvpFC66mHpml7K-3" style="edgeStyle=none;html=1;entryX=1;entryY=0.5;entryDx=0;entryDy=0;startArrow=ERone;startFill=0;endArrow=ERoneToMany;endFill=0;" parent="tsfdQXIsgQZ40Di4_jB7-1" target="uAyDHXlUssdemoD6bHyQ-0" edge="1">
                    <mxGeometry relative="1" as="geometry">
                        <mxPoint x="480" y="245" as="sourcePoint"/>
                        <Array as="points">
                            <mxPoint x="520" y="245"/>
                            <mxPoint x="520" y="565"/>
                        </Array>
                    </mxGeometry>
                </mxCell>
                <mxCell id="YQf6tyQvpFC66mHpml7K-4" style="edgeStyle=none;html=1;entryX=0;entryY=0.5;entryDx=0;entryDy=0;startArrow=ERone;startFill=0;endArrow=ERoneToMany;endFill=0;exitX=1;exitY=0.5;exitDx=0;exitDy=0;" parent="tsfdQXIsgQZ40Di4_jB7-1" source="tsfdQXIsgQZ40Di4_jB7-3" target="p-k4w7msAGm8laucBorP-0" edge="1">
                    <mxGeometry relative="1" as="geometry">
                        <Array as="points">
                            <mxPoint x="260" y="85"/>
                            <mxPoint x="260" y="595"/>
                        </Array>
                    </mxGeometry>
                </mxCell>
                <mxCell id="YQf6tyQvpFC66mHpml7K-5" style="edgeStyle=none;html=1;entryX=0;entryY=0.5;entryDx=0;entryDy=0;startArrow=ERone;startFill=0;endArrow=ERoneToMany;endFill=0;exitX=1;exitY=0.5;exitDx=0;exitDy=0;" parent="tsfdQXIsgQZ40Di4_jB7-1" source="tsfdQXIsgQZ40Di4_jB7-3" target="K-5YMMuWyl7_z5-dhDd7-7" edge="1">
                    <mxGeometry relative="1" as="geometry">
                        <Array as="points">
                            <mxPoint x="260" y="85"/>
                            <mxPoint x="260" y="625"/>
                        </Array>
                    </mxGeometry>
                </mxCell>
                <mxCell id="Mhqcv_uOE_dDusQeQv4D-0" value="match_goals" style="shape=table;startSize=30;container=1;collapsible=1;childLayout=tableLayout;fixedRows=1;rowLines=0;fontStyle=1;align=center;resizeLast=1;fillColor=#60a917;fontColor=#ffffff;strokeColor=#2D7600;" parent="tsfdQXIsgQZ40Di4_jB7-1" vertex="1">
                    <mxGeometry x="280" y="710" width="200" height="280" as="geometry"/>
                </mxCell>
                <mxCell id="Mhqcv_uOE_dDusQeQv4D-1" value="" style="shape=partialRectangle;collapsible=0;dropTarget=0;pointerEvents=0;fillColor=none;top=0;left=0;bottom=0;right=0;points=[[0,0.5],[1,0.5]];portConstraint=eastwest;" parent="Mhqcv_uOE_dDusQeQv4D-0" vertex="1">
                    <mxGeometry y="30" width="200" height="30" as="geometry"/>
                </mxCell>
                <mxCell id="Mhqcv_uOE_dDusQeQv4D-2" value="PK" style="shape=partialRectangle;connectable=0;fillColor=none;top=0;left=0;bottom=0;right=0;fontStyle=1;overflow=hidden;" parent="Mhqcv_uOE_dDusQeQv4D-1" vertex="1">
                    <mxGeometry width="60" height="30" as="geometry">
                        <mxRectangle width="60" height="30" as="alternateBounds"/>
                    </mxGeometry>
                </mxCell>
                <mxCell id="Mhqcv_uOE_dDusQeQv4D-3" value="match_goal_id" style="shape=partialRectangle;connectable=0;fillColor=none;top=0;left=0;bottom=0;right=0;align=left;spacingLeft=6;fontStyle=5;overflow=hidden;" parent="Mhqcv_uOE_dDusQeQv4D-1" vertex="1">
                    <mxGeometry x="60" width="140" height="30" as="geometry">
                        <mxRectangle width="140" height="30" as="alternateBounds"/>
                    </mxGeometry>
                </mxCell>
                <mxCell id="voL--kS4rmRhsgwNfEJT-0" style="shape=partialRectangle;collapsible=0;dropTarget=0;pointerEvents=0;fillColor=none;top=0;left=0;bottom=0;right=0;points=[[0,0.5],[1,0.5]];portConstraint=eastwest;" parent="Mhqcv_uOE_dDusQeQv4D-0" vertex="1">
                    <mxGeometry y="60" width="200" height="30" as="geometry"/>
                </mxCell>
                <mxCell id="voL--kS4rmRhsgwNfEJT-1" value="FK" style="shape=partialRectangle;connectable=0;fillColor=none;top=0;left=0;bottom=0;right=0;fontStyle=1;overflow=hidden;" parent="voL--kS4rmRhsgwNfEJT-0" vertex="1">
                    <mxGeometry width="60" height="30" as="geometry">
                        <mxRectangle width="60" height="30" as="alternateBounds"/>
                    </mxGeometry>
                </mxCell>
                <mxCell id="voL--kS4rmRhsgwNfEJT-2" value="match_id" style="shape=partialRectangle;connectable=0;fillColor=none;top=0;left=0;bottom=0;right=0;align=left;spacingLeft=6;fontStyle=5;overflow=hidden;" parent="voL--kS4rmRhsgwNfEJT-0" vertex="1">
                    <mxGeometry x="60" width="140" height="30" as="geometry">
                        <mxRectangle width="140" height="30" as="alternateBounds"/>
                    </mxGeometry>
                </mxCell>
                <mxCell id="Mhqcv_uOE_dDusQeQv4D-4" value="" style="shape=partialRectangle;collapsible=0;dropTarget=0;pointerEvents=0;fillColor=none;top=0;left=0;bottom=1;right=0;points=[[0,0.5],[1,0.5]];portConstraint=eastwest;" parent="Mhqcv_uOE_dDusQeQv4D-0" vertex="1">
                    <mxGeometry y="90" width="200" height="30" as="geometry"/>
                </mxCell>
                <mxCell id="Mhqcv_uOE_dDusQeQv4D-5" value="FK" style="shape=partialRectangle;connectable=0;fillColor=none;top=0;left=0;bottom=0;right=0;fontStyle=1;overflow=hidden;" parent="Mhqcv_uOE_dDusQeQv4D-4" vertex="1">
                    <mxGeometry width="60" height="30" as="geometry">
                        <mxRectangle width="60" height="30" as="alternateBounds"/>
                    </mxGeometry>
                </mxCell>
                <mxCell id="Mhqcv_uOE_dDusQeQv4D-6" value="player_id" style="shape=partialRectangle;connectable=0;fillColor=none;top=0;left=0;bottom=0;right=0;align=left;spacingLeft=6;fontStyle=5;overflow=hidden;" parent="Mhqcv_uOE_dDusQeQv4D-4" vertex="1">
                    <mxGeometry x="60" width="140" height="30" as="geometry">
                        <mxRectangle width="140" height="30" as="alternateBounds"/>
                    </mxGeometry>
                </mxCell>
                <mxCell id="Mhqcv_uOE_dDusQeQv4D-7" value="" style="shape=partialRectangle;collapsible=0;dropTarget=0;pointerEvents=0;fillColor=none;top=0;left=0;bottom=0;right=0;points=[[0,0.5],[1,0.5]];portConstraint=eastwest;" parent="Mhqcv_uOE_dDusQeQv4D-0" vertex="1">
                    <mxGeometry y="120" width="200" height="30" as="geometry"/>
                </mxCell>
                <mxCell id="Mhqcv_uOE_dDusQeQv4D-8" value="" style="shape=partialRectangle;connectable=0;fillColor=none;top=0;left=0;bottom=0;right=0;editable=1;overflow=hidden;" parent="Mhqcv_uOE_dDusQeQv4D-7" vertex="1">
                    <mxGeometry width="60" height="30" as="geometry">
                        <mxRectangle width="60" height="30" as="alternateBounds"/>
                    </mxGeometry>
                </mxCell>
                <mxCell id="Mhqcv_uOE_dDusQeQv4D-9" value="match_time" style="shape=partialRectangle;connectable=0;fillColor=none;top=0;left=0;bottom=0;right=0;align=left;spacingLeft=6;overflow=hidden;" parent="Mhqcv_uOE_dDusQeQv4D-7" vertex="1">
                    <mxGeometry x="60" width="140" height="30" as="geometry">
                        <mxRectangle width="140" height="30" as="alternateBounds"/>
                    </mxGeometry>
                </mxCell>
                <mxCell id="6_6QN5tSY5zsoPhm_Zfv-0" style="shape=partialRectangle;collapsible=0;dropTarget=0;pointerEvents=0;fillColor=none;top=0;left=0;bottom=0;right=0;points=[[0,0.5],[1,0.5]];portConstraint=eastwest;" parent="Mhqcv_uOE_dDusQeQv4D-0" vertex="1">
                    <mxGeometry y="150" width="200" height="30" as="geometry"/>
                </mxCell>
                <mxCell id="6_6QN5tSY5zsoPhm_Zfv-1" style="shape=partialRectangle;connectable=0;fillColor=none;top=0;left=0;bottom=0;right=0;editable=1;overflow=hidden;" parent="6_6QN5tSY5zsoPhm_Zfv-0" vertex="1">
                    <mxGeometry width="60" height="30" as="geometry">
                        <mxRectangle width="60" height="30" as="alternateBounds"/>
                    </mxGeometry>
                </mxCell>
                <mxCell id="6_6QN5tSY5zsoPhm_Zfv-2" value="match_seq_goal" style="shape=partialRectangle;connectable=0;fillColor=none;top=0;left=0;bottom=0;right=0;align=left;spacingLeft=6;overflow=hidden;" parent="6_6QN5tSY5zsoPhm_Zfv-0" vertex="1">
                    <mxGeometry x="60" width="140" height="30" as="geometry">
                        <mxRectangle width="140" height="30" as="alternateBounds"/>
                    </mxGeometry>
                </mxCell>
                <mxCell id="6_6QN5tSY5zsoPhm_Zfv-3" style="shape=partialRectangle;collapsible=0;dropTarget=0;pointerEvents=0;fillColor=none;top=0;left=0;bottom=0;right=0;points=[[0,0.5],[1,0.5]];portConstraint=eastwest;" parent="Mhqcv_uOE_dDusQeQv4D-0" vertex="1">
                    <mxGeometry y="180" width="200" height="30" as="geometry"/>
                </mxCell>
                <mxCell id="6_6QN5tSY5zsoPhm_Zfv-4" style="shape=partialRectangle;connectable=0;fillColor=none;top=0;left=0;bottom=0;right=0;editable=1;overflow=hidden;" parent="6_6QN5tSY5zsoPhm_Zfv-3" vertex="1">
                    <mxGeometry width="60" height="30" as="geometry">
                        <mxRectangle width="60" height="30" as="alternateBounds"/>
                    </mxGeometry>
                </mxCell>
                <mxCell id="6_6QN5tSY5zsoPhm_Zfv-5" value="body_part" style="shape=partialRectangle;connectable=0;fillColor=none;top=0;left=0;bottom=0;right=0;align=left;spacingLeft=6;overflow=hidden;" parent="6_6QN5tSY5zsoPhm_Zfv-3" vertex="1">
                    <mxGeometry x="60" width="140" height="30" as="geometry">
                        <mxRectangle width="140" height="30" as="alternateBounds"/>
                    </mxGeometry>
                </mxCell>
                <mxCell id="gq4MyZiORt4mINtFZCpM-0" style="shape=partialRectangle;collapsible=0;dropTarget=0;pointerEvents=0;fillColor=none;top=0;left=0;bottom=0;right=0;points=[[0,0.5],[1,0.5]];portConstraint=eastwest;" parent="Mhqcv_uOE_dDusQeQv4D-0" vertex="1">
                    <mxGeometry y="210" width="200" height="30" as="geometry"/>
                </mxCell>
                <mxCell id="gq4MyZiORt4mINtFZCpM-1" style="shape=partialRectangle;connectable=0;fillColor=none;top=0;left=0;bottom=0;right=0;editable=1;overflow=hidden;" parent="gq4MyZiORt4mINtFZCpM-0" vertex="1">
                    <mxGeometry width="60" height="30" as="geometry">
                        <mxRectangle width="60" height="30" as="alternateBounds"/>
                    </mxGeometry>
                </mxCell>
                <mxCell id="gq4MyZiORt4mINtFZCpM-2" value="auto_goal" style="shape=partialRectangle;connectable=0;fillColor=none;top=0;left=0;bottom=0;right=0;align=left;spacingLeft=6;overflow=hidden;" parent="gq4MyZiORt4mINtFZCpM-0" vertex="1">
                    <mxGeometry x="60" width="140" height="30" as="geometry">
                        <mxRectangle width="140" height="30" as="alternateBounds"/>
                    </mxGeometry>
                </mxCell>
                <mxCell id="gq4MyZiORt4mINtFZCpM-3" style="shape=partialRectangle;collapsible=0;dropTarget=0;pointerEvents=0;fillColor=none;top=0;left=0;bottom=0;right=0;points=[[0,0.5],[1,0.5]];portConstraint=eastwest;" parent="Mhqcv_uOE_dDusQeQv4D-0" vertex="1">
                    <mxGeometry y="240" width="200" height="30" as="geometry"/>
                </mxCell>
                <mxCell id="gq4MyZiORt4mINtFZCpM-4" style="shape=partialRectangle;connectable=0;fillColor=none;top=0;left=0;bottom=0;right=0;editable=1;overflow=hidden;" parent="gq4MyZiORt4mINtFZCpM-3" vertex="1">
                    <mxGeometry width="60" height="30" as="geometry">
                        <mxRectangle width="60" height="30" as="alternateBounds"/>
                    </mxGeometry>
                </mxCell>
                <mxCell id="gq4MyZiORt4mINtFZCpM-5" value="goal_type" style="shape=partialRectangle;connectable=0;fillColor=none;top=0;left=0;bottom=0;right=0;align=left;spacingLeft=6;overflow=hidden;" parent="gq4MyZiORt4mINtFZCpM-3" vertex="1">
                    <mxGeometry x="60" width="140" height="30" as="geometry">
                        <mxRectangle width="140" height="30" as="alternateBounds"/>
                    </mxGeometry>
                </mxCell>
                <mxCell id="gq4MyZiORt4mINtFZCpM-6" style="edgeStyle=none;html=1;entryX=1;entryY=0.5;entryDx=0;entryDy=0;startArrow=ERone;startFill=0;endArrow=ERoneToMany;endFill=0;exitX=1;exitY=0.5;exitDx=0;exitDy=0;" parent="tsfdQXIsgQZ40Di4_jB7-1" source="K-5YMMuWyl7_z5-dhDd7-1" target="voL--kS4rmRhsgwNfEJT-0" edge="1">
                    <mxGeometry relative="1" as="geometry">
                        <Array as="points">
                            <mxPoint x="540" y="505"/>
                            <mxPoint x="540" y="785"/>
                        </Array>
                    </mxGeometry>
                </mxCell>
                <mxCell id="gq4MyZiORt4mINtFZCpM-7" style="edgeStyle=none;html=1;entryX=0;entryY=0.5;entryDx=0;entryDy=0;startArrow=ERone;startFill=0;endArrow=ERoneToMany;endFill=0;exitX=1;exitY=0.5;exitDx=0;exitDy=0;" parent="tsfdQXIsgQZ40Di4_jB7-1" source="u3rLqJC1RdhB7AkvsSWy-4" target="Mhqcv_uOE_dDusQeQv4D-4" edge="1">
                    <mxGeometry relative="1" as="geometry">
                        <Array as="points">
                            <mxPoint x="260" y="435"/>
                            <mxPoint x="260" y="815"/>
                        </Array>
                    </mxGeometry>
                </mxCell>
            </root>
        </mxGraphModel>
    </diagram>
    <diagram name="physical" id="Ln-hZaJb0aV7SqY3jLKK">
        <mxGraphModel dx="769" dy="348" grid="1" gridSize="10" guides="1" tooltips="1" connect="1" arrows="1" fold="1" page="1" pageScale="1" pageWidth="1700" pageHeight="1100" background="none" math="0" shadow="0">
            <root>
                <mxCell id="2IhjApcEytpdZWnfWCbo-0"/>
                <mxCell id="2IhjApcEytpdZWnfWCbo-1" parent="2IhjApcEytpdZWnfWCbo-0"/>
                <mxCell id="2IhjApcEytpdZWnfWCbo-2" value="teams" style="shape=table;startSize=30;container=1;collapsible=1;childLayout=tableLayout;fixedRows=1;rowLines=0;fontStyle=1;align=center;resizeLast=1;fillColor=#60a917;fontColor=#ffffff;strokeColor=#2D7600;" vertex="1" parent="2IhjApcEytpdZWnfWCbo-1">
                    <mxGeometry x="40" y="40" width="340" height="160" as="geometry"/>
                </mxCell>
                <mxCell id="2IhjApcEytpdZWnfWCbo-3" value="" style="shape=partialRectangle;collapsible=0;dropTarget=0;pointerEvents=0;fillColor=none;top=0;left=0;bottom=0;right=0;points=[[0,0.5],[1,0.5]];portConstraint=eastwest;" vertex="1" parent="2IhjApcEytpdZWnfWCbo-2">
                    <mxGeometry y="30" width="340" height="30" as="geometry"/>
                </mxCell>
                <mxCell id="2IhjApcEytpdZWnfWCbo-4" value="PK" style="shape=partialRectangle;connectable=0;fillColor=none;top=0;left=0;bottom=0;right=0;fontStyle=1;overflow=hidden;" vertex="1" parent="2IhjApcEytpdZWnfWCbo-3">
                    <mxGeometry width="60" height="30" as="geometry">
                        <mxRectangle width="60" height="30" as="alternateBounds"/>
                    </mxGeometry>
                </mxCell>
                <mxCell id="2IhjApcEytpdZWnfWCbo-5" value="team_id" style="shape=partialRectangle;connectable=0;fillColor=none;top=0;left=0;bottom=0;right=0;align=left;spacingLeft=6;fontStyle=5;overflow=hidden;" vertex="1" parent="2IhjApcEytpdZWnfWCbo-3">
                    <mxGeometry x="60" width="140" height="30" as="geometry">
                        <mxRectangle width="140" height="30" as="alternateBounds"/>
                    </mxGeometry>
                </mxCell>
                <mxCell id="2IhjApcEytpdZWnfWCbo-191" value="INTEGER" style="shape=partialRectangle;connectable=0;fillColor=none;top=0;left=0;bottom=0;right=0;align=left;spacingLeft=6;fontStyle=5;overflow=hidden;" vertex="1" parent="2IhjApcEytpdZWnfWCbo-3">
                    <mxGeometry x="200" width="140" height="30" as="geometry">
                        <mxRectangle width="140" height="30" as="alternateBounds"/>
                    </mxGeometry>
                </mxCell>
                <mxCell id="2IhjApcEytpdZWnfWCbo-6" style="shape=partialRectangle;collapsible=0;dropTarget=0;pointerEvents=0;fillColor=none;top=0;left=0;bottom=0;right=0;points=[[0,0.5],[1,0.5]];portConstraint=eastwest;" vertex="1" parent="2IhjApcEytpdZWnfWCbo-2">
                    <mxGeometry y="60" width="340" height="30" as="geometry"/>
                </mxCell>
                <mxCell id="2IhjApcEytpdZWnfWCbo-7" value="FK" style="shape=partialRectangle;connectable=0;fillColor=none;top=0;left=0;bottom=0;right=0;fontStyle=1;overflow=hidden;" vertex="1" parent="2IhjApcEytpdZWnfWCbo-6">
                    <mxGeometry width="60" height="30" as="geometry">
                        <mxRectangle width="60" height="30" as="alternateBounds"/>
                    </mxGeometry>
                </mxCell>
                <mxCell id="2IhjApcEytpdZWnfWCbo-8" value="country_id" style="shape=partialRectangle;connectable=0;fillColor=none;top=0;left=0;bottom=0;right=0;align=left;spacingLeft=6;fontStyle=5;overflow=hidden;" vertex="1" parent="2IhjApcEytpdZWnfWCbo-6">
                    <mxGeometry x="60" width="140" height="30" as="geometry">
                        <mxRectangle width="140" height="30" as="alternateBounds"/>
                    </mxGeometry>
                </mxCell>
                <mxCell id="2IhjApcEytpdZWnfWCbo-192" value="INTEGER" style="shape=partialRectangle;connectable=0;fillColor=none;top=0;left=0;bottom=0;right=0;align=left;spacingLeft=6;fontStyle=5;overflow=hidden;" vertex="1" parent="2IhjApcEytpdZWnfWCbo-6">
                    <mxGeometry x="200" width="140" height="30" as="geometry">
                        <mxRectangle width="140" height="30" as="alternateBounds"/>
                    </mxGeometry>
                </mxCell>
                <mxCell id="2IhjApcEytpdZWnfWCbo-9" value="" style="shape=partialRectangle;collapsible=0;dropTarget=0;pointerEvents=0;fillColor=none;top=0;left=0;bottom=1;right=0;points=[[0,0.5],[1,0.5]];portConstraint=eastwest;" vertex="1" parent="2IhjApcEytpdZWnfWCbo-2">
                    <mxGeometry y="90" width="340" height="30" as="geometry"/>
                </mxCell>
                <mxCell id="2IhjApcEytpdZWnfWCbo-10" value="FK" style="shape=partialRectangle;connectable=0;fillColor=none;top=0;left=0;bottom=0;right=0;fontStyle=1;overflow=hidden;" vertex="1" parent="2IhjApcEytpdZWnfWCbo-9">
                    <mxGeometry width="60" height="30" as="geometry">
                        <mxRectangle width="60" height="30" as="alternateBounds"/>
                    </mxGeometry>
                </mxCell>
                <mxCell id="2IhjApcEytpdZWnfWCbo-11" value="sede_id" style="shape=partialRectangle;connectable=0;fillColor=none;top=0;left=0;bottom=0;right=0;align=left;spacingLeft=6;fontStyle=5;overflow=hidden;" vertex="1" parent="2IhjApcEytpdZWnfWCbo-9">
                    <mxGeometry x="60" width="140" height="30" as="geometry">
                        <mxRectangle width="140" height="30" as="alternateBounds"/>
                    </mxGeometry>
                </mxCell>
                <mxCell id="2IhjApcEytpdZWnfWCbo-193" value="INTEGER" style="shape=partialRectangle;connectable=0;fillColor=none;top=0;left=0;bottom=0;right=0;align=left;spacingLeft=6;fontStyle=5;overflow=hidden;" vertex="1" parent="2IhjApcEytpdZWnfWCbo-9">
                    <mxGeometry x="200" width="140" height="30" as="geometry">
                        <mxRectangle width="140" height="30" as="alternateBounds"/>
                    </mxGeometry>
                </mxCell>
                <mxCell id="2IhjApcEytpdZWnfWCbo-12" value="" style="shape=partialRectangle;collapsible=0;dropTarget=0;pointerEvents=0;fillColor=none;top=0;left=0;bottom=0;right=0;points=[[0,0.5],[1,0.5]];portConstraint=eastwest;" vertex="1" parent="2IhjApcEytpdZWnfWCbo-2">
                    <mxGeometry y="120" width="340" height="30" as="geometry"/>
                </mxCell>
                <mxCell id="2IhjApcEytpdZWnfWCbo-13" value="" style="shape=partialRectangle;connectable=0;fillColor=none;top=0;left=0;bottom=0;right=0;editable=1;overflow=hidden;" vertex="1" parent="2IhjApcEytpdZWnfWCbo-12">
                    <mxGeometry width="60" height="30" as="geometry">
                        <mxRectangle width="60" height="30" as="alternateBounds"/>
                    </mxGeometry>
                </mxCell>
                <mxCell id="2IhjApcEytpdZWnfWCbo-14" value="team_name" style="shape=partialRectangle;connectable=0;fillColor=none;top=0;left=0;bottom=0;right=0;align=left;spacingLeft=6;overflow=hidden;" vertex="1" parent="2IhjApcEytpdZWnfWCbo-12">
                    <mxGeometry x="60" width="140" height="30" as="geometry">
                        <mxRectangle width="140" height="30" as="alternateBounds"/>
                    </mxGeometry>
                </mxCell>
                <mxCell id="2IhjApcEytpdZWnfWCbo-194" value="VARCHAR(30)" style="shape=partialRectangle;connectable=0;fillColor=none;top=0;left=0;bottom=0;right=0;align=left;spacingLeft=6;overflow=hidden;" vertex="1" parent="2IhjApcEytpdZWnfWCbo-12">
                    <mxGeometry x="200" width="140" height="30" as="geometry">
                        <mxRectangle width="140" height="30" as="alternateBounds"/>
                    </mxGeometry>
                </mxCell>
                <mxCell id="2IhjApcEytpdZWnfWCbo-15" value="sedes" style="shape=table;startSize=30;container=1;collapsible=1;childLayout=tableLayout;fixedRows=1;rowLines=0;fontStyle=1;align=center;resizeLast=1;fillColor=#60a917;fontColor=#ffffff;strokeColor=#2D7600;" vertex="1" parent="2IhjApcEytpdZWnfWCbo-1">
                    <mxGeometry x="40" y="230" width="340" height="130" as="geometry"/>
                </mxCell>
                <mxCell id="2IhjApcEytpdZWnfWCbo-16" value="" style="shape=partialRectangle;collapsible=0;dropTarget=0;pointerEvents=0;fillColor=none;top=0;left=0;bottom=0;right=0;points=[[0,0.5],[1,0.5]];portConstraint=eastwest;" vertex="1" parent="2IhjApcEytpdZWnfWCbo-15">
                    <mxGeometry y="30" width="340" height="30" as="geometry"/>
                </mxCell>
                <mxCell id="2IhjApcEytpdZWnfWCbo-17" value="PK" style="shape=partialRectangle;connectable=0;fillColor=none;top=0;left=0;bottom=0;right=0;fontStyle=1;overflow=hidden;" vertex="1" parent="2IhjApcEytpdZWnfWCbo-16">
                    <mxGeometry width="60" height="30" as="geometry">
                        <mxRectangle width="60" height="30" as="alternateBounds"/>
                    </mxGeometry>
                </mxCell>
                <mxCell id="2IhjApcEytpdZWnfWCbo-18" value="sede_id" style="shape=partialRectangle;connectable=0;fillColor=none;top=0;left=0;bottom=0;right=0;align=left;spacingLeft=6;fontStyle=5;overflow=hidden;" vertex="1" parent="2IhjApcEytpdZWnfWCbo-16">
                    <mxGeometry x="60" width="140" height="30" as="geometry">
                        <mxRectangle width="140" height="30" as="alternateBounds"/>
                    </mxGeometry>
                </mxCell>
                <mxCell id="2IhjApcEytpdZWnfWCbo-195" value="INTEGER" style="shape=partialRectangle;connectable=0;fillColor=none;top=0;left=0;bottom=0;right=0;align=left;spacingLeft=6;fontStyle=5;overflow=hidden;" vertex="1" parent="2IhjApcEytpdZWnfWCbo-16">
                    <mxGeometry x="200" width="140" height="30" as="geometry">
                        <mxRectangle width="140" height="30" as="alternateBounds"/>
                    </mxGeometry>
                </mxCell>
                <mxCell id="2IhjApcEytpdZWnfWCbo-19" value="" style="shape=partialRectangle;collapsible=0;dropTarget=0;pointerEvents=0;fillColor=none;top=0;left=0;bottom=1;right=0;points=[[0,0.5],[1,0.5]];portConstraint=eastwest;" vertex="1" parent="2IhjApcEytpdZWnfWCbo-15">
                    <mxGeometry y="60" width="340" height="30" as="geometry"/>
                </mxCell>
                <mxCell id="2IhjApcEytpdZWnfWCbo-20" value="FK" style="shape=partialRectangle;connectable=0;fillColor=none;top=0;left=0;bottom=0;right=0;fontStyle=1;overflow=hidden;" vertex="1" parent="2IhjApcEytpdZWnfWCbo-19">
                    <mxGeometry width="60" height="30" as="geometry">
                        <mxRectangle width="60" height="30" as="alternateBounds"/>
                    </mxGeometry>
                </mxCell>
                <mxCell id="2IhjApcEytpdZWnfWCbo-21" value="city_id" style="shape=partialRectangle;connectable=0;fillColor=none;top=0;left=0;bottom=0;right=0;align=left;spacingLeft=6;fontStyle=5;overflow=hidden;" vertex="1" parent="2IhjApcEytpdZWnfWCbo-19">
                    <mxGeometry x="60" width="140" height="30" as="geometry">
                        <mxRectangle width="140" height="30" as="alternateBounds"/>
                    </mxGeometry>
                </mxCell>
                <mxCell id="2IhjApcEytpdZWnfWCbo-196" value="INTEGER" style="shape=partialRectangle;connectable=0;fillColor=none;top=0;left=0;bottom=0;right=0;align=left;spacingLeft=6;fontStyle=5;overflow=hidden;" vertex="1" parent="2IhjApcEytpdZWnfWCbo-19">
                    <mxGeometry x="200" width="140" height="30" as="geometry">
                        <mxRectangle width="140" height="30" as="alternateBounds"/>
                    </mxGeometry>
                </mxCell>
                <mxCell id="2IhjApcEytpdZWnfWCbo-22" value="" style="shape=partialRectangle;collapsible=0;dropTarget=0;pointerEvents=0;fillColor=none;top=0;left=0;bottom=0;right=0;points=[[0,0.5],[1,0.5]];portConstraint=eastwest;" vertex="1" parent="2IhjApcEytpdZWnfWCbo-15">
                    <mxGeometry y="90" width="340" height="30" as="geometry"/>
                </mxCell>
                <mxCell id="2IhjApcEytpdZWnfWCbo-23" value="" style="shape=partialRectangle;connectable=0;fillColor=none;top=0;left=0;bottom=0;right=0;editable=1;overflow=hidden;" vertex="1" parent="2IhjApcEytpdZWnfWCbo-22">
                    <mxGeometry width="60" height="30" as="geometry">
                        <mxRectangle width="60" height="30" as="alternateBounds"/>
                    </mxGeometry>
                </mxCell>
                <mxCell id="2IhjApcEytpdZWnfWCbo-24" value="sede_name" style="shape=partialRectangle;connectable=0;fillColor=none;top=0;left=0;bottom=0;right=0;align=left;spacingLeft=6;overflow=hidden;" vertex="1" parent="2IhjApcEytpdZWnfWCbo-22">
                    <mxGeometry x="60" width="140" height="30" as="geometry">
                        <mxRectangle width="140" height="30" as="alternateBounds"/>
                    </mxGeometry>
                </mxCell>
                <mxCell id="2IhjApcEytpdZWnfWCbo-197" value="VARCHAR(30)" style="shape=partialRectangle;connectable=0;fillColor=none;top=0;left=0;bottom=0;right=0;align=left;spacingLeft=6;overflow=hidden;" vertex="1" parent="2IhjApcEytpdZWnfWCbo-22">
                    <mxGeometry x="200" width="140" height="30" as="geometry">
                        <mxRectangle width="140" height="30" as="alternateBounds"/>
                    </mxGeometry>
                </mxCell>
                <mxCell id="2IhjApcEytpdZWnfWCbo-25" style="edgeStyle=none;html=1;exitX=0;exitY=0.5;exitDx=0;exitDy=0;entryX=0;entryY=0.5;entryDx=0;entryDy=0;endArrow=ERoneToMany;endFill=0;startArrow=ERone;startFill=0;" edge="1" parent="2IhjApcEytpdZWnfWCbo-1" source="2IhjApcEytpdZWnfWCbo-16" target="2IhjApcEytpdZWnfWCbo-9">
                    <mxGeometry relative="1" as="geometry">
                        <Array as="points">
                            <mxPoint x="20" y="275"/>
                            <mxPoint x="20" y="210"/>
                            <mxPoint x="20" y="145"/>
                        </Array>
                    </mxGeometry>
                </mxCell>
                <mxCell id="2IhjApcEytpdZWnfWCbo-26" value="leagues" style="shape=table;startSize=30;container=1;collapsible=1;childLayout=tableLayout;fixedRows=1;rowLines=0;fontStyle=1;align=center;resizeLast=1;fillColor=#60a917;fontColor=#ffffff;strokeColor=#2D7600;" vertex="1" parent="2IhjApcEytpdZWnfWCbo-1">
                    <mxGeometry x="439" y="40" width="340" height="130" as="geometry"/>
                </mxCell>
                <mxCell id="2IhjApcEytpdZWnfWCbo-27" value="" style="shape=partialRectangle;collapsible=0;dropTarget=0;pointerEvents=0;fillColor=none;top=0;left=0;bottom=0;right=0;points=[[0,0.5],[1,0.5]];portConstraint=eastwest;" vertex="1" parent="2IhjApcEytpdZWnfWCbo-26">
                    <mxGeometry y="30" width="340" height="30" as="geometry"/>
                </mxCell>
                <mxCell id="2IhjApcEytpdZWnfWCbo-28" value="PK" style="shape=partialRectangle;connectable=0;fillColor=none;top=0;left=0;bottom=0;right=0;fontStyle=1;overflow=hidden;" vertex="1" parent="2IhjApcEytpdZWnfWCbo-27">
                    <mxGeometry width="60" height="30" as="geometry">
                        <mxRectangle width="60" height="30" as="alternateBounds"/>
                    </mxGeometry>
                </mxCell>
                <mxCell id="2IhjApcEytpdZWnfWCbo-29" value="league_id" style="shape=partialRectangle;connectable=0;fillColor=none;top=0;left=0;bottom=0;right=0;align=left;spacingLeft=6;fontStyle=5;overflow=hidden;" vertex="1" parent="2IhjApcEytpdZWnfWCbo-27">
                    <mxGeometry x="60" width="140" height="30" as="geometry">
                        <mxRectangle width="140" height="30" as="alternateBounds"/>
                    </mxGeometry>
                </mxCell>
                <mxCell id="2IhjApcEytpdZWnfWCbo-168" value="INTEGER" style="shape=partialRectangle;connectable=0;fillColor=none;top=0;left=0;bottom=0;right=0;align=left;spacingLeft=6;fontStyle=5;overflow=hidden;" vertex="1" parent="2IhjApcEytpdZWnfWCbo-27">
                    <mxGeometry x="200" width="140" height="30" as="geometry">
                        <mxRectangle width="140" height="30" as="alternateBounds"/>
                    </mxGeometry>
                </mxCell>
                <mxCell id="2IhjApcEytpdZWnfWCbo-30" value="" style="shape=partialRectangle;collapsible=0;dropTarget=0;pointerEvents=0;fillColor=none;top=0;left=0;bottom=1;right=0;points=[[0,0.5],[1,0.5]];portConstraint=eastwest;" vertex="1" parent="2IhjApcEytpdZWnfWCbo-26">
                    <mxGeometry y="60" width="340" height="30" as="geometry"/>
                </mxCell>
                <mxCell id="2IhjApcEytpdZWnfWCbo-31" value="FK" style="shape=partialRectangle;connectable=0;fillColor=none;top=0;left=0;bottom=0;right=0;fontStyle=1;overflow=hidden;" vertex="1" parent="2IhjApcEytpdZWnfWCbo-30">
                    <mxGeometry width="60" height="30" as="geometry">
                        <mxRectangle width="60" height="30" as="alternateBounds"/>
                    </mxGeometry>
                </mxCell>
                <mxCell id="2IhjApcEytpdZWnfWCbo-32" value="country_id" style="shape=partialRectangle;connectable=0;fillColor=none;top=0;left=0;bottom=0;right=0;align=left;spacingLeft=6;fontStyle=5;overflow=hidden;" vertex="1" parent="2IhjApcEytpdZWnfWCbo-30">
                    <mxGeometry x="60" width="140" height="30" as="geometry">
                        <mxRectangle width="140" height="30" as="alternateBounds"/>
                    </mxGeometry>
                </mxCell>
                <mxCell id="2IhjApcEytpdZWnfWCbo-169" value="INTEGER" style="shape=partialRectangle;connectable=0;fillColor=none;top=0;left=0;bottom=0;right=0;align=left;spacingLeft=6;fontStyle=5;overflow=hidden;" vertex="1" parent="2IhjApcEytpdZWnfWCbo-30">
                    <mxGeometry x="200" width="140" height="30" as="geometry">
                        <mxRectangle width="140" height="30" as="alternateBounds"/>
                    </mxGeometry>
                </mxCell>
                <mxCell id="2IhjApcEytpdZWnfWCbo-33" value="" style="shape=partialRectangle;collapsible=0;dropTarget=0;pointerEvents=0;fillColor=none;top=0;left=0;bottom=0;right=0;points=[[0,0.5],[1,0.5]];portConstraint=eastwest;" vertex="1" parent="2IhjApcEytpdZWnfWCbo-26">
                    <mxGeometry y="90" width="340" height="30" as="geometry"/>
                </mxCell>
                <mxCell id="2IhjApcEytpdZWnfWCbo-34" value="" style="shape=partialRectangle;connectable=0;fillColor=none;top=0;left=0;bottom=0;right=0;editable=1;overflow=hidden;" vertex="1" parent="2IhjApcEytpdZWnfWCbo-33">
                    <mxGeometry width="60" height="30" as="geometry">
                        <mxRectangle width="60" height="30" as="alternateBounds"/>
                    </mxGeometry>
                </mxCell>
                <mxCell id="2IhjApcEytpdZWnfWCbo-35" value="league_name" style="shape=partialRectangle;connectable=0;fillColor=none;top=0;left=0;bottom=0;right=0;align=left;spacingLeft=6;overflow=hidden;" vertex="1" parent="2IhjApcEytpdZWnfWCbo-33">
                    <mxGeometry x="60" width="140" height="30" as="geometry">
                        <mxRectangle width="140" height="30" as="alternateBounds"/>
                    </mxGeometry>
                </mxCell>
                <mxCell id="2IhjApcEytpdZWnfWCbo-170" value="VARCHAR(30)" style="shape=partialRectangle;connectable=0;fillColor=none;top=0;left=0;bottom=0;right=0;align=left;spacingLeft=6;overflow=hidden;" vertex="1" parent="2IhjApcEytpdZWnfWCbo-33">
                    <mxGeometry x="200" width="140" height="30" as="geometry">
                        <mxRectangle width="140" height="30" as="alternateBounds"/>
                    </mxGeometry>
                </mxCell>
                <mxCell id="2IhjApcEytpdZWnfWCbo-36" value="seasons" style="shape=table;startSize=30;container=1;collapsible=1;childLayout=tableLayout;fixedRows=1;rowLines=0;fontStyle=1;align=center;resizeLast=1;fillColor=#60a917;fontColor=#ffffff;strokeColor=#2D7600;" vertex="1" parent="2IhjApcEytpdZWnfWCbo-1">
                    <mxGeometry x="439" y="200" width="340" height="220" as="geometry"/>
                </mxCell>
                <mxCell id="2IhjApcEytpdZWnfWCbo-37" value="" style="shape=partialRectangle;collapsible=0;dropTarget=0;pointerEvents=0;fillColor=none;top=0;left=0;bottom=0;right=0;points=[[0,0.5],[1,0.5]];portConstraint=eastwest;" vertex="1" parent="2IhjApcEytpdZWnfWCbo-36">
                    <mxGeometry y="30" width="340" height="30" as="geometry"/>
                </mxCell>
                <mxCell id="2IhjApcEytpdZWnfWCbo-38" value="PK" style="shape=partialRectangle;connectable=0;fillColor=none;top=0;left=0;bottom=0;right=0;fontStyle=1;overflow=hidden;" vertex="1" parent="2IhjApcEytpdZWnfWCbo-37">
                    <mxGeometry width="60" height="30" as="geometry">
                        <mxRectangle width="60" height="30" as="alternateBounds"/>
                    </mxGeometry>
                </mxCell>
                <mxCell id="2IhjApcEytpdZWnfWCbo-39" value="season_id" style="shape=partialRectangle;connectable=0;fillColor=none;top=0;left=0;bottom=0;right=0;align=left;spacingLeft=6;fontStyle=5;overflow=hidden;" vertex="1" parent="2IhjApcEytpdZWnfWCbo-37">
                    <mxGeometry x="60" width="140" height="30" as="geometry">
                        <mxRectangle width="140" height="30" as="alternateBounds"/>
                    </mxGeometry>
                </mxCell>
                <mxCell id="2IhjApcEytpdZWnfWCbo-171" value="INTEGER" style="shape=partialRectangle;connectable=0;fillColor=none;top=0;left=0;bottom=0;right=0;align=left;spacingLeft=6;fontStyle=5;overflow=hidden;" vertex="1" parent="2IhjApcEytpdZWnfWCbo-37">
                    <mxGeometry x="200" width="140" height="30" as="geometry">
                        <mxRectangle width="140" height="30" as="alternateBounds"/>
                    </mxGeometry>
                </mxCell>
                <mxCell id="2IhjApcEytpdZWnfWCbo-40" style="shape=partialRectangle;collapsible=0;dropTarget=0;pointerEvents=0;fillColor=none;top=0;left=0;bottom=0;right=0;points=[[0,0.5],[1,0.5]];portConstraint=eastwest;" vertex="1" parent="2IhjApcEytpdZWnfWCbo-36">
                    <mxGeometry y="60" width="340" height="30" as="geometry"/>
                </mxCell>
                <mxCell id="2IhjApcEytpdZWnfWCbo-41" value="FK" style="shape=partialRectangle;connectable=0;fillColor=none;top=0;left=0;bottom=0;right=0;fontStyle=1;overflow=hidden;" vertex="1" parent="2IhjApcEytpdZWnfWCbo-40">
                    <mxGeometry width="60" height="30" as="geometry">
                        <mxRectangle width="60" height="30" as="alternateBounds"/>
                    </mxGeometry>
                </mxCell>
                <mxCell id="2IhjApcEytpdZWnfWCbo-42" value="league_id" style="shape=partialRectangle;connectable=0;fillColor=none;top=0;left=0;bottom=0;right=0;align=left;spacingLeft=6;fontStyle=5;overflow=hidden;" vertex="1" parent="2IhjApcEytpdZWnfWCbo-40">
                    <mxGeometry x="60" width="140" height="30" as="geometry">
                        <mxRectangle width="140" height="30" as="alternateBounds"/>
                    </mxGeometry>
                </mxCell>
                <mxCell id="2IhjApcEytpdZWnfWCbo-172" value="INTEGER" style="shape=partialRectangle;connectable=0;fillColor=none;top=0;left=0;bottom=0;right=0;align=left;spacingLeft=6;fontStyle=5;overflow=hidden;" vertex="1" parent="2IhjApcEytpdZWnfWCbo-40">
                    <mxGeometry x="200" width="140" height="30" as="geometry">
                        <mxRectangle width="140" height="30" as="alternateBounds"/>
                    </mxGeometry>
                </mxCell>
                <mxCell id="2IhjApcEytpdZWnfWCbo-43" value="" style="shape=partialRectangle;collapsible=0;dropTarget=0;pointerEvents=0;fillColor=none;top=0;left=0;bottom=1;right=0;points=[[0,0.5],[1,0.5]];portConstraint=eastwest;" vertex="1" parent="2IhjApcEytpdZWnfWCbo-36">
                    <mxGeometry y="90" width="340" height="30" as="geometry"/>
                </mxCell>
                <mxCell id="2IhjApcEytpdZWnfWCbo-44" value="FK" style="shape=partialRectangle;connectable=0;fillColor=none;top=0;left=0;bottom=0;right=0;fontStyle=1;overflow=hidden;" vertex="1" parent="2IhjApcEytpdZWnfWCbo-43">
                    <mxGeometry width="60" height="30" as="geometry">
                        <mxRectangle width="60" height="30" as="alternateBounds"/>
                    </mxGeometry>
                </mxCell>
                <mxCell id="2IhjApcEytpdZWnfWCbo-45" value="country_id" style="shape=partialRectangle;connectable=0;fillColor=none;top=0;left=0;bottom=0;right=0;align=left;spacingLeft=6;fontStyle=5;overflow=hidden;" vertex="1" parent="2IhjApcEytpdZWnfWCbo-43">
                    <mxGeometry x="60" width="140" height="30" as="geometry">
                        <mxRectangle width="140" height="30" as="alternateBounds"/>
                    </mxGeometry>
                </mxCell>
                <mxCell id="2IhjApcEytpdZWnfWCbo-173" value="INTEGER" style="shape=partialRectangle;connectable=0;fillColor=none;top=0;left=0;bottom=0;right=0;align=left;spacingLeft=6;fontStyle=5;overflow=hidden;" vertex="1" parent="2IhjApcEytpdZWnfWCbo-43">
                    <mxGeometry x="200" width="140" height="30" as="geometry">
                        <mxRectangle width="140" height="30" as="alternateBounds"/>
                    </mxGeometry>
                </mxCell>
                <mxCell id="2IhjApcEytpdZWnfWCbo-46" value="" style="shape=partialRectangle;collapsible=0;dropTarget=0;pointerEvents=0;fillColor=none;top=0;left=0;bottom=0;right=0;points=[[0,0.5],[1,0.5]];portConstraint=eastwest;" vertex="1" parent="2IhjApcEytpdZWnfWCbo-36">
                    <mxGeometry y="120" width="340" height="30" as="geometry"/>
                </mxCell>
                <mxCell id="2IhjApcEytpdZWnfWCbo-47" value="" style="shape=partialRectangle;connectable=0;fillColor=none;top=0;left=0;bottom=0;right=0;editable=1;overflow=hidden;" vertex="1" parent="2IhjApcEytpdZWnfWCbo-46">
                    <mxGeometry width="60" height="30" as="geometry">
                        <mxRectangle width="60" height="30" as="alternateBounds"/>
                    </mxGeometry>
                </mxCell>
                <mxCell id="2IhjApcEytpdZWnfWCbo-48" value="season_name" style="shape=partialRectangle;connectable=0;fillColor=none;top=0;left=0;bottom=0;right=0;align=left;spacingLeft=6;overflow=hidden;" vertex="1" parent="2IhjApcEytpdZWnfWCbo-46">
                    <mxGeometry x="60" width="140" height="30" as="geometry">
                        <mxRectangle width="140" height="30" as="alternateBounds"/>
                    </mxGeometry>
                </mxCell>
                <mxCell id="2IhjApcEytpdZWnfWCbo-174" value="VARCHAR(30)" style="shape=partialRectangle;connectable=0;fillColor=none;top=0;left=0;bottom=0;right=0;align=left;spacingLeft=6;overflow=hidden;" vertex="1" parent="2IhjApcEytpdZWnfWCbo-46">
                    <mxGeometry x="200" width="140" height="30" as="geometry">
                        <mxRectangle width="140" height="30" as="alternateBounds"/>
                    </mxGeometry>
                </mxCell>
                <mxCell id="2IhjApcEytpdZWnfWCbo-49" style="shape=partialRectangle;collapsible=0;dropTarget=0;pointerEvents=0;fillColor=none;top=0;left=0;bottom=0;right=0;points=[[0,0.5],[1,0.5]];portConstraint=eastwest;" vertex="1" parent="2IhjApcEytpdZWnfWCbo-36">
                    <mxGeometry y="150" width="340" height="30" as="geometry"/>
                </mxCell>
                <mxCell id="2IhjApcEytpdZWnfWCbo-50" style="shape=partialRectangle;connectable=0;fillColor=none;top=0;left=0;bottom=0;right=0;editable=1;overflow=hidden;" vertex="1" parent="2IhjApcEytpdZWnfWCbo-49">
                    <mxGeometry width="60" height="30" as="geometry">
                        <mxRectangle width="60" height="30" as="alternateBounds"/>
                    </mxGeometry>
                </mxCell>
                <mxCell id="2IhjApcEytpdZWnfWCbo-51" value="start_date" style="shape=partialRectangle;connectable=0;fillColor=none;top=0;left=0;bottom=0;right=0;align=left;spacingLeft=6;overflow=hidden;" vertex="1" parent="2IhjApcEytpdZWnfWCbo-49">
                    <mxGeometry x="60" width="140" height="30" as="geometry">
                        <mxRectangle width="140" height="30" as="alternateBounds"/>
                    </mxGeometry>
                </mxCell>
                <mxCell id="2IhjApcEytpdZWnfWCbo-175" value="DATE" style="shape=partialRectangle;connectable=0;fillColor=none;top=0;left=0;bottom=0;right=0;align=left;spacingLeft=6;overflow=hidden;" vertex="1" parent="2IhjApcEytpdZWnfWCbo-49">
                    <mxGeometry x="200" width="140" height="30" as="geometry">
                        <mxRectangle width="140" height="30" as="alternateBounds"/>
                    </mxGeometry>
                </mxCell>
                <mxCell id="2IhjApcEytpdZWnfWCbo-52" style="shape=partialRectangle;collapsible=0;dropTarget=0;pointerEvents=0;fillColor=none;top=0;left=0;bottom=0;right=0;points=[[0,0.5],[1,0.5]];portConstraint=eastwest;" vertex="1" parent="2IhjApcEytpdZWnfWCbo-36">
                    <mxGeometry y="180" width="340" height="30" as="geometry"/>
                </mxCell>
                <mxCell id="2IhjApcEytpdZWnfWCbo-53" style="shape=partialRectangle;connectable=0;fillColor=none;top=0;left=0;bottom=0;right=0;editable=1;overflow=hidden;" vertex="1" parent="2IhjApcEytpdZWnfWCbo-52">
                    <mxGeometry width="60" height="30" as="geometry">
                        <mxRectangle width="60" height="30" as="alternateBounds"/>
                    </mxGeometry>
                </mxCell>
                <mxCell id="2IhjApcEytpdZWnfWCbo-54" value="end_date" style="shape=partialRectangle;connectable=0;fillColor=none;top=0;left=0;bottom=0;right=0;align=left;spacingLeft=6;overflow=hidden;" vertex="1" parent="2IhjApcEytpdZWnfWCbo-52">
                    <mxGeometry x="60" width="140" height="30" as="geometry">
                        <mxRectangle width="140" height="30" as="alternateBounds"/>
                    </mxGeometry>
                </mxCell>
                <mxCell id="2IhjApcEytpdZWnfWCbo-176" value="DATE" style="shape=partialRectangle;connectable=0;fillColor=none;top=0;left=0;bottom=0;right=0;align=left;spacingLeft=6;overflow=hidden;" vertex="1" parent="2IhjApcEytpdZWnfWCbo-52">
                    <mxGeometry x="200" width="140" height="30" as="geometry">
                        <mxRectangle width="140" height="30" as="alternateBounds"/>
                    </mxGeometry>
                </mxCell>
                <mxCell id="2IhjApcEytpdZWnfWCbo-55" style="edgeStyle=none;html=1;exitX=1;exitY=0.5;exitDx=0;exitDy=0;entryX=1;entryY=0.5;entryDx=0;entryDy=0;startArrow=ERone;startFill=0;endArrow=ERoneToMany;endFill=0;" edge="1" parent="2IhjApcEytpdZWnfWCbo-1" source="2IhjApcEytpdZWnfWCbo-27" target="2IhjApcEytpdZWnfWCbo-40">
                    <mxGeometry relative="1" as="geometry">
                        <Array as="points">
                            <mxPoint x="820" y="85"/>
                            <mxPoint x="820" y="275"/>
                        </Array>
                    </mxGeometry>
                </mxCell>
                <mxCell id="2IhjApcEytpdZWnfWCbo-56" value="season_teams" style="shape=table;startSize=30;container=1;collapsible=1;childLayout=tableLayout;fixedRows=1;rowLines=0;fontStyle=1;align=center;resizeLast=1;fillColor=#e3c800;fontColor=#000000;strokeColor=#B09500;" vertex="1" parent="2IhjApcEytpdZWnfWCbo-1">
                    <mxGeometry x="839" y="40" width="340" height="130" as="geometry"/>
                </mxCell>
                <mxCell id="2IhjApcEytpdZWnfWCbo-57" value="" style="shape=partialRectangle;collapsible=0;dropTarget=0;pointerEvents=0;fillColor=none;top=0;left=0;bottom=0;right=0;points=[[0,0.5],[1,0.5]];portConstraint=eastwest;" vertex="1" parent="2IhjApcEytpdZWnfWCbo-56">
                    <mxGeometry y="30" width="340" height="30" as="geometry"/>
                </mxCell>
                <mxCell id="2IhjApcEytpdZWnfWCbo-58" value="PK" style="shape=partialRectangle;connectable=0;fillColor=none;top=0;left=0;bottom=0;right=0;fontStyle=1;overflow=hidden;" vertex="1" parent="2IhjApcEytpdZWnfWCbo-57">
                    <mxGeometry width="60" height="30" as="geometry">
                        <mxRectangle width="60" height="30" as="alternateBounds"/>
                    </mxGeometry>
                </mxCell>
                <mxCell id="2IhjApcEytpdZWnfWCbo-59" value="season_team_id" style="shape=partialRectangle;connectable=0;fillColor=none;top=0;left=0;bottom=0;right=0;align=left;spacingLeft=6;fontStyle=5;overflow=hidden;" vertex="1" parent="2IhjApcEytpdZWnfWCbo-57">
                    <mxGeometry x="60" width="140" height="30" as="geometry">
                        <mxRectangle width="140" height="30" as="alternateBounds"/>
                    </mxGeometry>
                </mxCell>
                <mxCell id="2IhjApcEytpdZWnfWCbo-165" value="INTEGER" style="shape=partialRectangle;connectable=0;fillColor=none;top=0;left=0;bottom=0;right=0;align=left;spacingLeft=6;fontStyle=5;overflow=hidden;" vertex="1" parent="2IhjApcEytpdZWnfWCbo-57">
                    <mxGeometry x="200" width="140" height="30" as="geometry">
                        <mxRectangle width="140" height="30" as="alternateBounds"/>
                    </mxGeometry>
                </mxCell>
                <mxCell id="2IhjApcEytpdZWnfWCbo-60" style="shape=partialRectangle;collapsible=0;dropTarget=0;pointerEvents=0;fillColor=none;top=0;left=0;bottom=0;right=0;points=[[0,0.5],[1,0.5]];portConstraint=eastwest;" vertex="1" parent="2IhjApcEytpdZWnfWCbo-56">
                    <mxGeometry y="60" width="340" height="30" as="geometry"/>
                </mxCell>
                <mxCell id="2IhjApcEytpdZWnfWCbo-61" value="FK" style="shape=partialRectangle;connectable=0;fillColor=none;top=0;left=0;bottom=0;right=0;fontStyle=1;overflow=hidden;" vertex="1" parent="2IhjApcEytpdZWnfWCbo-60">
                    <mxGeometry width="60" height="30" as="geometry">
                        <mxRectangle width="60" height="30" as="alternateBounds"/>
                    </mxGeometry>
                </mxCell>
                <mxCell id="2IhjApcEytpdZWnfWCbo-62" value="season_id" style="shape=partialRectangle;connectable=0;fillColor=none;top=0;left=0;bottom=0;right=0;align=left;spacingLeft=6;fontStyle=5;overflow=hidden;" vertex="1" parent="2IhjApcEytpdZWnfWCbo-60">
                    <mxGeometry x="60" width="140" height="30" as="geometry">
                        <mxRectangle width="140" height="30" as="alternateBounds"/>
                    </mxGeometry>
                </mxCell>
                <mxCell id="2IhjApcEytpdZWnfWCbo-166" value="INTEGER" style="shape=partialRectangle;connectable=0;fillColor=none;top=0;left=0;bottom=0;right=0;align=left;spacingLeft=6;fontStyle=5;overflow=hidden;" vertex="1" parent="2IhjApcEytpdZWnfWCbo-60">
                    <mxGeometry x="200" width="140" height="30" as="geometry">
                        <mxRectangle width="140" height="30" as="alternateBounds"/>
                    </mxGeometry>
                </mxCell>
                <mxCell id="2IhjApcEytpdZWnfWCbo-63" value="" style="shape=partialRectangle;collapsible=0;dropTarget=0;pointerEvents=0;fillColor=none;top=0;left=0;bottom=1;right=0;points=[[0,0.5],[1,0.5]];portConstraint=eastwest;" vertex="1" parent="2IhjApcEytpdZWnfWCbo-56">
                    <mxGeometry y="90" width="340" height="30" as="geometry"/>
                </mxCell>
                <mxCell id="2IhjApcEytpdZWnfWCbo-64" value="FK" style="shape=partialRectangle;connectable=0;fillColor=none;top=0;left=0;bottom=0;right=0;fontStyle=1;overflow=hidden;" vertex="1" parent="2IhjApcEytpdZWnfWCbo-63">
                    <mxGeometry width="60" height="30" as="geometry">
                        <mxRectangle width="60" height="30" as="alternateBounds"/>
                    </mxGeometry>
                </mxCell>
                <mxCell id="2IhjApcEytpdZWnfWCbo-65" value="team_id" style="shape=partialRectangle;connectable=0;fillColor=none;top=0;left=0;bottom=0;right=0;align=left;spacingLeft=6;fontStyle=5;overflow=hidden;" vertex="1" parent="2IhjApcEytpdZWnfWCbo-63">
                    <mxGeometry x="60" width="140" height="30" as="geometry">
                        <mxRectangle width="140" height="30" as="alternateBounds"/>
                    </mxGeometry>
                </mxCell>
                <mxCell id="2IhjApcEytpdZWnfWCbo-167" value="INTEGER" style="shape=partialRectangle;connectable=0;fillColor=none;top=0;left=0;bottom=0;right=0;align=left;spacingLeft=6;fontStyle=5;overflow=hidden;" vertex="1" parent="2IhjApcEytpdZWnfWCbo-63">
                    <mxGeometry x="200" width="140" height="30" as="geometry">
                        <mxRectangle width="140" height="30" as="alternateBounds"/>
                    </mxGeometry>
                </mxCell>
                <mxCell id="2IhjApcEytpdZWnfWCbo-66" style="edgeStyle=none;html=1;exitX=0;exitY=0.5;exitDx=0;exitDy=0;startArrow=ERone;startFill=0;endArrow=ERoneToMany;endFill=0;entryX=0;entryY=0.5;entryDx=0;entryDy=0;" edge="1" parent="2IhjApcEytpdZWnfWCbo-1" source="2IhjApcEytpdZWnfWCbo-3" target="2IhjApcEytpdZWnfWCbo-63">
                    <mxGeometry relative="1" as="geometry">
                        <mxPoint x="580" y="140" as="targetPoint"/>
                        <Array as="points">
                            <mxPoint x="20" y="85"/>
                            <mxPoint x="20" y="10"/>
                            <mxPoint x="800" y="10"/>
                            <mxPoint x="800" y="145"/>
                        </Array>
                    </mxGeometry>
                </mxCell>
                <mxCell id="2IhjApcEytpdZWnfWCbo-67" style="edgeStyle=none;html=1;exitX=1;exitY=0.5;exitDx=0;exitDy=0;entryX=0;entryY=0.5;entryDx=0;entryDy=0;startArrow=ERone;startFill=0;endArrow=ERoneToMany;endFill=0;" edge="1" parent="2IhjApcEytpdZWnfWCbo-1" source="2IhjApcEytpdZWnfWCbo-37" target="2IhjApcEytpdZWnfWCbo-60">
                    <mxGeometry relative="1" as="geometry">
                        <Array as="points">
                            <mxPoint x="810" y="245"/>
                            <mxPoint x="810" y="115"/>
                        </Array>
                    </mxGeometry>
                </mxCell>
                <mxCell id="2IhjApcEytpdZWnfWCbo-68" value="players" style="shape=table;startSize=30;container=1;collapsible=1;childLayout=tableLayout;fixedRows=1;rowLines=0;fontStyle=1;align=center;resizeLast=1;fillColor=#60a917;fontColor=#ffffff;strokeColor=#2D7600;" vertex="1" parent="2IhjApcEytpdZWnfWCbo-1">
                    <mxGeometry x="40" y="390" width="340" height="220" as="geometry"/>
                </mxCell>
                <mxCell id="2IhjApcEytpdZWnfWCbo-69" value="" style="shape=partialRectangle;collapsible=0;dropTarget=0;pointerEvents=0;fillColor=none;top=0;left=0;bottom=1;right=0;points=[[0,0.5],[1,0.5]];portConstraint=eastwest;" vertex="1" parent="2IhjApcEytpdZWnfWCbo-68">
                    <mxGeometry y="30" width="340" height="30" as="geometry"/>
                </mxCell>
                <mxCell id="2IhjApcEytpdZWnfWCbo-70" value="PK" style="shape=partialRectangle;connectable=0;fillColor=none;top=0;left=0;bottom=0;right=0;fontStyle=1;overflow=hidden;" vertex="1" parent="2IhjApcEytpdZWnfWCbo-69">
                    <mxGeometry width="60" height="30" as="geometry">
                        <mxRectangle width="60" height="30" as="alternateBounds"/>
                    </mxGeometry>
                </mxCell>
                <mxCell id="2IhjApcEytpdZWnfWCbo-71" value="player_id" style="shape=partialRectangle;connectable=0;fillColor=none;top=0;left=0;bottom=0;right=0;align=left;spacingLeft=6;fontStyle=5;overflow=hidden;" vertex="1" parent="2IhjApcEytpdZWnfWCbo-69">
                    <mxGeometry x="60" width="140" height="30" as="geometry">
                        <mxRectangle width="140" height="30" as="alternateBounds"/>
                    </mxGeometry>
                </mxCell>
                <mxCell id="2IhjApcEytpdZWnfWCbo-198" value="INTEGER" style="shape=partialRectangle;connectable=0;fillColor=none;top=0;left=0;bottom=0;right=0;align=left;spacingLeft=6;fontStyle=5;overflow=hidden;" vertex="1" parent="2IhjApcEytpdZWnfWCbo-69">
                    <mxGeometry x="200" width="140" height="30" as="geometry">
                        <mxRectangle width="140" height="30" as="alternateBounds"/>
                    </mxGeometry>
                </mxCell>
                <mxCell id="2IhjApcEytpdZWnfWCbo-72" value="" style="shape=partialRectangle;collapsible=0;dropTarget=0;pointerEvents=0;fillColor=none;top=0;left=0;bottom=0;right=0;points=[[0,0.5],[1,0.5]];portConstraint=eastwest;" vertex="1" parent="2IhjApcEytpdZWnfWCbo-68">
                    <mxGeometry y="60" width="340" height="30" as="geometry"/>
                </mxCell>
                <mxCell id="2IhjApcEytpdZWnfWCbo-73" value="" style="shape=partialRectangle;connectable=0;fillColor=none;top=0;left=0;bottom=0;right=0;editable=1;overflow=hidden;" vertex="1" parent="2IhjApcEytpdZWnfWCbo-72">
                    <mxGeometry width="60" height="30" as="geometry">
                        <mxRectangle width="60" height="30" as="alternateBounds"/>
                    </mxGeometry>
                </mxCell>
                <mxCell id="2IhjApcEytpdZWnfWCbo-74" value="nickname" style="shape=partialRectangle;connectable=0;fillColor=none;top=0;left=0;bottom=0;right=0;align=left;spacingLeft=6;overflow=hidden;" vertex="1" parent="2IhjApcEytpdZWnfWCbo-72">
                    <mxGeometry x="60" width="140" height="30" as="geometry">
                        <mxRectangle width="140" height="30" as="alternateBounds"/>
                    </mxGeometry>
                </mxCell>
                <mxCell id="2IhjApcEytpdZWnfWCbo-199" value="VARCHAR(30)" style="shape=partialRectangle;connectable=0;fillColor=none;top=0;left=0;bottom=0;right=0;align=left;spacingLeft=6;overflow=hidden;" vertex="1" parent="2IhjApcEytpdZWnfWCbo-72">
                    <mxGeometry x="200" width="140" height="30" as="geometry">
                        <mxRectangle width="140" height="30" as="alternateBounds"/>
                    </mxGeometry>
                </mxCell>
                <mxCell id="2IhjApcEytpdZWnfWCbo-75" style="shape=partialRectangle;collapsible=0;dropTarget=0;pointerEvents=0;fillColor=none;top=0;left=0;bottom=0;right=0;points=[[0,0.5],[1,0.5]];portConstraint=eastwest;" vertex="1" parent="2IhjApcEytpdZWnfWCbo-68">
                    <mxGeometry y="90" width="340" height="30" as="geometry"/>
                </mxCell>
                <mxCell id="2IhjApcEytpdZWnfWCbo-76" style="shape=partialRectangle;connectable=0;fillColor=none;top=0;left=0;bottom=0;right=0;editable=1;overflow=hidden;" vertex="1" parent="2IhjApcEytpdZWnfWCbo-75">
                    <mxGeometry width="60" height="30" as="geometry">
                        <mxRectangle width="60" height="30" as="alternateBounds"/>
                    </mxGeometry>
                </mxCell>
                <mxCell id="2IhjApcEytpdZWnfWCbo-77" value="name" style="shape=partialRectangle;connectable=0;fillColor=none;top=0;left=0;bottom=0;right=0;align=left;spacingLeft=6;overflow=hidden;" vertex="1" parent="2IhjApcEytpdZWnfWCbo-75">
                    <mxGeometry x="60" width="140" height="30" as="geometry">
                        <mxRectangle width="140" height="30" as="alternateBounds"/>
                    </mxGeometry>
                </mxCell>
                <mxCell id="2IhjApcEytpdZWnfWCbo-200" value="VARCHAR(30)" style="shape=partialRectangle;connectable=0;fillColor=none;top=0;left=0;bottom=0;right=0;align=left;spacingLeft=6;overflow=hidden;" vertex="1" parent="2IhjApcEytpdZWnfWCbo-75">
                    <mxGeometry x="200" width="140" height="30" as="geometry">
                        <mxRectangle width="140" height="30" as="alternateBounds"/>
                    </mxGeometry>
                </mxCell>
                <mxCell id="2IhjApcEytpdZWnfWCbo-78" style="shape=partialRectangle;collapsible=0;dropTarget=0;pointerEvents=0;fillColor=none;top=0;left=0;bottom=0;right=0;points=[[0,0.5],[1,0.5]];portConstraint=eastwest;" vertex="1" parent="2IhjApcEytpdZWnfWCbo-68">
                    <mxGeometry y="120" width="340" height="30" as="geometry"/>
                </mxCell>
                <mxCell id="2IhjApcEytpdZWnfWCbo-79" style="shape=partialRectangle;connectable=0;fillColor=none;top=0;left=0;bottom=0;right=0;editable=1;overflow=hidden;" vertex="1" parent="2IhjApcEytpdZWnfWCbo-78">
                    <mxGeometry width="60" height="30" as="geometry">
                        <mxRectangle width="60" height="30" as="alternateBounds"/>
                    </mxGeometry>
                </mxCell>
                <mxCell id="2IhjApcEytpdZWnfWCbo-80" value="last_name" style="shape=partialRectangle;connectable=0;fillColor=none;top=0;left=0;bottom=0;right=0;align=left;spacingLeft=6;overflow=hidden;" vertex="1" parent="2IhjApcEytpdZWnfWCbo-78">
                    <mxGeometry x="60" width="140" height="30" as="geometry">
                        <mxRectangle width="140" height="30" as="alternateBounds"/>
                    </mxGeometry>
                </mxCell>
                <mxCell id="2IhjApcEytpdZWnfWCbo-201" value="VARCHAR(30" style="shape=partialRectangle;connectable=0;fillColor=none;top=0;left=0;bottom=0;right=0;align=left;spacingLeft=6;overflow=hidden;" vertex="1" parent="2IhjApcEytpdZWnfWCbo-78">
                    <mxGeometry x="200" width="140" height="30" as="geometry">
                        <mxRectangle width="140" height="30" as="alternateBounds"/>
                    </mxGeometry>
                </mxCell>
                <mxCell id="2IhjApcEytpdZWnfWCbo-81" style="shape=partialRectangle;collapsible=0;dropTarget=0;pointerEvents=0;fillColor=none;top=0;left=0;bottom=0;right=0;points=[[0,0.5],[1,0.5]];portConstraint=eastwest;" vertex="1" parent="2IhjApcEytpdZWnfWCbo-68">
                    <mxGeometry y="150" width="340" height="30" as="geometry"/>
                </mxCell>
                <mxCell id="2IhjApcEytpdZWnfWCbo-82" style="shape=partialRectangle;connectable=0;fillColor=none;top=0;left=0;bottom=0;right=0;editable=1;overflow=hidden;" vertex="1" parent="2IhjApcEytpdZWnfWCbo-81">
                    <mxGeometry width="60" height="30" as="geometry">
                        <mxRectangle width="60" height="30" as="alternateBounds"/>
                    </mxGeometry>
                </mxCell>
                <mxCell id="2IhjApcEytpdZWnfWCbo-83" value="birthdate" style="shape=partialRectangle;connectable=0;fillColor=none;top=0;left=0;bottom=0;right=0;align=left;spacingLeft=6;overflow=hidden;" vertex="1" parent="2IhjApcEytpdZWnfWCbo-81">
                    <mxGeometry x="60" width="140" height="30" as="geometry">
                        <mxRectangle width="140" height="30" as="alternateBounds"/>
                    </mxGeometry>
                </mxCell>
                <mxCell id="2IhjApcEytpdZWnfWCbo-202" value="DATE" style="shape=partialRectangle;connectable=0;fillColor=none;top=0;left=0;bottom=0;right=0;align=left;spacingLeft=6;overflow=hidden;" vertex="1" parent="2IhjApcEytpdZWnfWCbo-81">
                    <mxGeometry x="200" width="140" height="30" as="geometry">
                        <mxRectangle width="140" height="30" as="alternateBounds"/>
                    </mxGeometry>
                </mxCell>
                <mxCell id="2IhjApcEytpdZWnfWCbo-84" style="shape=partialRectangle;collapsible=0;dropTarget=0;pointerEvents=0;fillColor=none;top=0;left=0;bottom=0;right=0;points=[[0,0.5],[1,0.5]];portConstraint=eastwest;" vertex="1" parent="2IhjApcEytpdZWnfWCbo-68">
                    <mxGeometry y="180" width="340" height="30" as="geometry"/>
                </mxCell>
                <mxCell id="2IhjApcEytpdZWnfWCbo-85" style="shape=partialRectangle;connectable=0;fillColor=none;top=0;left=0;bottom=0;right=0;editable=1;overflow=hidden;" vertex="1" parent="2IhjApcEytpdZWnfWCbo-84">
                    <mxGeometry width="60" height="30" as="geometry">
                        <mxRectangle width="60" height="30" as="alternateBounds"/>
                    </mxGeometry>
                </mxCell>
                <mxCell id="2IhjApcEytpdZWnfWCbo-86" value="nationality" style="shape=partialRectangle;connectable=0;fillColor=none;top=0;left=0;bottom=0;right=0;align=left;spacingLeft=6;overflow=hidden;" vertex="1" parent="2IhjApcEytpdZWnfWCbo-84">
                    <mxGeometry x="60" width="140" height="30" as="geometry">
                        <mxRectangle width="140" height="30" as="alternateBounds"/>
                    </mxGeometry>
                </mxCell>
                <mxCell id="2IhjApcEytpdZWnfWCbo-203" value="INTEGER" style="shape=partialRectangle;connectable=0;fillColor=none;top=0;left=0;bottom=0;right=0;align=left;spacingLeft=6;overflow=hidden;" vertex="1" parent="2IhjApcEytpdZWnfWCbo-84">
                    <mxGeometry x="200" width="140" height="30" as="geometry">
                        <mxRectangle width="140" height="30" as="alternateBounds"/>
                    </mxGeometry>
                </mxCell>
                <mxCell id="2IhjApcEytpdZWnfWCbo-87" value="players_team" style="shape=table;startSize=30;container=1;collapsible=1;childLayout=tableLayout;fixedRows=1;rowLines=0;fontStyle=1;align=center;resizeLast=1;fillColor=#e3c800;fontColor=#000000;strokeColor=#B09500;" vertex="1" parent="2IhjApcEytpdZWnfWCbo-1">
                    <mxGeometry x="40" y="660" width="340" height="220" as="geometry"/>
                </mxCell>
                <mxCell id="2IhjApcEytpdZWnfWCbo-88" value="" style="shape=partialRectangle;collapsible=0;dropTarget=0;pointerEvents=0;fillColor=none;top=0;left=0;bottom=0;right=0;points=[[0,0.5],[1,0.5]];portConstraint=eastwest;" vertex="1" parent="2IhjApcEytpdZWnfWCbo-87">
                    <mxGeometry y="30" width="340" height="30" as="geometry"/>
                </mxCell>
                <mxCell id="2IhjApcEytpdZWnfWCbo-89" value="PK" style="shape=partialRectangle;connectable=0;fillColor=none;top=0;left=0;bottom=0;right=0;fontStyle=1;overflow=hidden;" vertex="1" parent="2IhjApcEytpdZWnfWCbo-88">
                    <mxGeometry width="60" height="30" as="geometry">
                        <mxRectangle width="60" height="30" as="alternateBounds"/>
                    </mxGeometry>
                </mxCell>
                <mxCell id="2IhjApcEytpdZWnfWCbo-90" value="player_team_id" style="shape=partialRectangle;connectable=0;fillColor=none;top=0;left=0;bottom=0;right=0;align=left;spacingLeft=6;fontStyle=5;overflow=hidden;" vertex="1" parent="2IhjApcEytpdZWnfWCbo-88">
                    <mxGeometry x="60" width="140" height="30" as="geometry">
                        <mxRectangle width="140" height="30" as="alternateBounds"/>
                    </mxGeometry>
                </mxCell>
                <mxCell id="2IhjApcEytpdZWnfWCbo-204" value="INTEGER" style="shape=partialRectangle;connectable=0;fillColor=none;top=0;left=0;bottom=0;right=0;align=left;spacingLeft=6;fontStyle=5;overflow=hidden;" vertex="1" parent="2IhjApcEytpdZWnfWCbo-88">
                    <mxGeometry x="200" width="140" height="30" as="geometry">
                        <mxRectangle width="140" height="30" as="alternateBounds"/>
                    </mxGeometry>
                </mxCell>
                <mxCell id="2IhjApcEytpdZWnfWCbo-91" style="shape=partialRectangle;collapsible=0;dropTarget=0;pointerEvents=0;fillColor=none;top=0;left=0;bottom=0;right=0;points=[[0,0.5],[1,0.5]];portConstraint=eastwest;" vertex="1" parent="2IhjApcEytpdZWnfWCbo-87">
                    <mxGeometry y="60" width="340" height="30" as="geometry"/>
                </mxCell>
                <mxCell id="2IhjApcEytpdZWnfWCbo-92" value="FK" style="shape=partialRectangle;connectable=0;fillColor=none;top=0;left=0;bottom=0;right=0;fontStyle=1;overflow=hidden;" vertex="1" parent="2IhjApcEytpdZWnfWCbo-91">
                    <mxGeometry width="60" height="30" as="geometry">
                        <mxRectangle width="60" height="30" as="alternateBounds"/>
                    </mxGeometry>
                </mxCell>
                <mxCell id="2IhjApcEytpdZWnfWCbo-93" value="player_id" style="shape=partialRectangle;connectable=0;fillColor=none;top=0;left=0;bottom=0;right=0;align=left;spacingLeft=6;fontStyle=5;overflow=hidden;" vertex="1" parent="2IhjApcEytpdZWnfWCbo-91">
                    <mxGeometry x="60" width="140" height="30" as="geometry">
                        <mxRectangle width="140" height="30" as="alternateBounds"/>
                    </mxGeometry>
                </mxCell>
                <mxCell id="2IhjApcEytpdZWnfWCbo-205" value="INTEGER" style="shape=partialRectangle;connectable=0;fillColor=none;top=0;left=0;bottom=0;right=0;align=left;spacingLeft=6;fontStyle=5;overflow=hidden;" vertex="1" parent="2IhjApcEytpdZWnfWCbo-91">
                    <mxGeometry x="200" width="140" height="30" as="geometry">
                        <mxRectangle width="140" height="30" as="alternateBounds"/>
                    </mxGeometry>
                </mxCell>
                <mxCell id="2IhjApcEytpdZWnfWCbo-94" value="" style="shape=partialRectangle;collapsible=0;dropTarget=0;pointerEvents=0;fillColor=none;top=0;left=0;bottom=1;right=0;points=[[0,0.5],[1,0.5]];portConstraint=eastwest;" vertex="1" parent="2IhjApcEytpdZWnfWCbo-87">
                    <mxGeometry y="90" width="340" height="30" as="geometry"/>
                </mxCell>
                <mxCell id="2IhjApcEytpdZWnfWCbo-95" value="FK" style="shape=partialRectangle;connectable=0;fillColor=none;top=0;left=0;bottom=0;right=0;fontStyle=1;overflow=hidden;" vertex="1" parent="2IhjApcEytpdZWnfWCbo-94">
                    <mxGeometry width="60" height="30" as="geometry">
                        <mxRectangle width="60" height="30" as="alternateBounds"/>
                    </mxGeometry>
                </mxCell>
                <mxCell id="2IhjApcEytpdZWnfWCbo-96" value="team_id" style="shape=partialRectangle;connectable=0;fillColor=none;top=0;left=0;bottom=0;right=0;align=left;spacingLeft=6;fontStyle=5;overflow=hidden;" vertex="1" parent="2IhjApcEytpdZWnfWCbo-94">
                    <mxGeometry x="60" width="140" height="30" as="geometry">
                        <mxRectangle width="140" height="30" as="alternateBounds"/>
                    </mxGeometry>
                </mxCell>
                <mxCell id="2IhjApcEytpdZWnfWCbo-206" value="INTEGER" style="shape=partialRectangle;connectable=0;fillColor=none;top=0;left=0;bottom=0;right=0;align=left;spacingLeft=6;fontStyle=5;overflow=hidden;" vertex="1" parent="2IhjApcEytpdZWnfWCbo-94">
                    <mxGeometry x="200" width="140" height="30" as="geometry">
                        <mxRectangle width="140" height="30" as="alternateBounds"/>
                    </mxGeometry>
                </mxCell>
                <mxCell id="2IhjApcEytpdZWnfWCbo-97" style="shape=partialRectangle;collapsible=0;dropTarget=0;pointerEvents=0;fillColor=none;top=0;left=0;bottom=0;right=0;points=[[0,0.5],[1,0.5]];portConstraint=eastwest;" vertex="1" parent="2IhjApcEytpdZWnfWCbo-87">
                    <mxGeometry y="120" width="340" height="30" as="geometry"/>
                </mxCell>
                <mxCell id="2IhjApcEytpdZWnfWCbo-98" style="shape=partialRectangle;connectable=0;fillColor=none;top=0;left=0;bottom=0;right=0;editable=1;overflow=hidden;" vertex="1" parent="2IhjApcEytpdZWnfWCbo-97">
                    <mxGeometry width="60" height="30" as="geometry">
                        <mxRectangle width="60" height="30" as="alternateBounds"/>
                    </mxGeometry>
                </mxCell>
                <mxCell id="2IhjApcEytpdZWnfWCbo-99" value="start_date" style="shape=partialRectangle;connectable=0;fillColor=none;top=0;left=0;bottom=0;right=0;align=left;spacingLeft=6;overflow=hidden;" vertex="1" parent="2IhjApcEytpdZWnfWCbo-97">
                    <mxGeometry x="60" width="140" height="30" as="geometry">
                        <mxRectangle width="140" height="30" as="alternateBounds"/>
                    </mxGeometry>
                </mxCell>
                <mxCell id="2IhjApcEytpdZWnfWCbo-207" value="DATE" style="shape=partialRectangle;connectable=0;fillColor=none;top=0;left=0;bottom=0;right=0;align=left;spacingLeft=6;overflow=hidden;" vertex="1" parent="2IhjApcEytpdZWnfWCbo-97">
                    <mxGeometry x="200" width="140" height="30" as="geometry">
                        <mxRectangle width="140" height="30" as="alternateBounds"/>
                    </mxGeometry>
                </mxCell>
                <mxCell id="2IhjApcEytpdZWnfWCbo-100" style="shape=partialRectangle;collapsible=0;dropTarget=0;pointerEvents=0;fillColor=none;top=0;left=0;bottom=0;right=0;points=[[0,0.5],[1,0.5]];portConstraint=eastwest;" vertex="1" parent="2IhjApcEytpdZWnfWCbo-87">
                    <mxGeometry y="150" width="340" height="30" as="geometry"/>
                </mxCell>
                <mxCell id="2IhjApcEytpdZWnfWCbo-101" style="shape=partialRectangle;connectable=0;fillColor=none;top=0;left=0;bottom=0;right=0;editable=1;overflow=hidden;" vertex="1" parent="2IhjApcEytpdZWnfWCbo-100">
                    <mxGeometry width="60" height="30" as="geometry">
                        <mxRectangle width="60" height="30" as="alternateBounds"/>
                    </mxGeometry>
                </mxCell>
                <mxCell id="2IhjApcEytpdZWnfWCbo-102" value="end_date" style="shape=partialRectangle;connectable=0;fillColor=none;top=0;left=0;bottom=0;right=0;align=left;spacingLeft=6;overflow=hidden;" vertex="1" parent="2IhjApcEytpdZWnfWCbo-100">
                    <mxGeometry x="60" width="140" height="30" as="geometry">
                        <mxRectangle width="140" height="30" as="alternateBounds"/>
                    </mxGeometry>
                </mxCell>
                <mxCell id="2IhjApcEytpdZWnfWCbo-208" value="DATE" style="shape=partialRectangle;connectable=0;fillColor=none;top=0;left=0;bottom=0;right=0;align=left;spacingLeft=6;overflow=hidden;" vertex="1" parent="2IhjApcEytpdZWnfWCbo-100">
                    <mxGeometry x="200" width="140" height="30" as="geometry">
                        <mxRectangle width="140" height="30" as="alternateBounds"/>
                    </mxGeometry>
                </mxCell>
                <mxCell id="2IhjApcEytpdZWnfWCbo-103" style="shape=partialRectangle;collapsible=0;dropTarget=0;pointerEvents=0;fillColor=none;top=0;left=0;bottom=0;right=0;points=[[0,0.5],[1,0.5]];portConstraint=eastwest;" vertex="1" parent="2IhjApcEytpdZWnfWCbo-87">
                    <mxGeometry y="180" width="340" height="30" as="geometry"/>
                </mxCell>
                <mxCell id="2IhjApcEytpdZWnfWCbo-104" style="shape=partialRectangle;connectable=0;fillColor=none;top=0;left=0;bottom=0;right=0;editable=1;overflow=hidden;" vertex="1" parent="2IhjApcEytpdZWnfWCbo-103">
                    <mxGeometry width="60" height="30" as="geometry">
                        <mxRectangle width="60" height="30" as="alternateBounds"/>
                    </mxGeometry>
                </mxCell>
                <mxCell id="2IhjApcEytpdZWnfWCbo-105" value="tshirt_number" style="shape=partialRectangle;connectable=0;fillColor=none;top=0;left=0;bottom=0;right=0;align=left;spacingLeft=6;overflow=hidden;" vertex="1" parent="2IhjApcEytpdZWnfWCbo-103">
                    <mxGeometry x="60" width="140" height="30" as="geometry">
                        <mxRectangle width="140" height="30" as="alternateBounds"/>
                    </mxGeometry>
                </mxCell>
                <mxCell id="2IhjApcEytpdZWnfWCbo-209" value="INTEGER" style="shape=partialRectangle;connectable=0;fillColor=none;top=0;left=0;bottom=0;right=0;align=left;spacingLeft=6;overflow=hidden;" vertex="1" parent="2IhjApcEytpdZWnfWCbo-103">
                    <mxGeometry x="200" width="140" height="30" as="geometry">
                        <mxRectangle width="140" height="30" as="alternateBounds"/>
                    </mxGeometry>
                </mxCell>
                <mxCell id="2IhjApcEytpdZWnfWCbo-106" style="edgeStyle=none;html=1;entryX=0;entryY=0.5;entryDx=0;entryDy=0;startArrow=ERone;startFill=0;endArrow=ERoneToMany;endFill=0;exitX=0;exitY=0.5;exitDx=0;exitDy=0;" edge="1" parent="2IhjApcEytpdZWnfWCbo-1" source="2IhjApcEytpdZWnfWCbo-3" target="2IhjApcEytpdZWnfWCbo-94">
                    <mxGeometry relative="1" as="geometry">
                        <Array as="points">
                            <mxPoint x="10" y="85"/>
                            <mxPoint x="10" y="765"/>
                        </Array>
                    </mxGeometry>
                </mxCell>
                <mxCell id="2IhjApcEytpdZWnfWCbo-107" style="edgeStyle=none;html=1;entryX=0;entryY=0.5;entryDx=0;entryDy=0;startArrow=ERone;startFill=0;endArrow=ERoneToMany;endFill=0;exitX=0;exitY=0.5;exitDx=0;exitDy=0;" edge="1" parent="2IhjApcEytpdZWnfWCbo-1" source="2IhjApcEytpdZWnfWCbo-69" target="2IhjApcEytpdZWnfWCbo-91">
                    <mxGeometry relative="1" as="geometry">
                        <Array as="points">
                            <mxPoint x="20" y="435"/>
                            <mxPoint x="20" y="735"/>
                        </Array>
                    </mxGeometry>
                </mxCell>
                <mxCell id="2IhjApcEytpdZWnfWCbo-108" value="matches" style="shape=table;startSize=30;container=1;collapsible=1;childLayout=tableLayout;fixedRows=1;rowLines=0;fontStyle=1;align=center;resizeLast=1;fillColor=#60a917;fontColor=#ffffff;strokeColor=#2D7600;" vertex="1" parent="2IhjApcEytpdZWnfWCbo-1">
                    <mxGeometry x="439" y="460" width="340" height="220" as="geometry"/>
                </mxCell>
                <mxCell id="2IhjApcEytpdZWnfWCbo-109" value="" style="shape=partialRectangle;collapsible=0;dropTarget=0;pointerEvents=0;fillColor=none;top=0;left=0;bottom=0;right=0;points=[[0,0.5],[1,0.5]];portConstraint=eastwest;" vertex="1" parent="2IhjApcEytpdZWnfWCbo-108">
                    <mxGeometry y="30" width="340" height="30" as="geometry"/>
                </mxCell>
                <mxCell id="2IhjApcEytpdZWnfWCbo-110" value="PK" style="shape=partialRectangle;connectable=0;fillColor=none;top=0;left=0;bottom=0;right=0;fontStyle=1;overflow=hidden;" vertex="1" parent="2IhjApcEytpdZWnfWCbo-109">
                    <mxGeometry width="60" height="30" as="geometry">
                        <mxRectangle width="60" height="30" as="alternateBounds"/>
                    </mxGeometry>
                </mxCell>
                <mxCell id="2IhjApcEytpdZWnfWCbo-111" value="match_id" style="shape=partialRectangle;connectable=0;fillColor=none;top=0;left=0;bottom=0;right=0;align=left;spacingLeft=6;fontStyle=5;overflow=hidden;" vertex="1" parent="2IhjApcEytpdZWnfWCbo-109">
                    <mxGeometry x="60" width="140" height="30" as="geometry">
                        <mxRectangle width="140" height="30" as="alternateBounds"/>
                    </mxGeometry>
                </mxCell>
                <mxCell id="2IhjApcEytpdZWnfWCbo-177" value="INTEGER" style="shape=partialRectangle;connectable=0;fillColor=none;top=0;left=0;bottom=0;right=0;align=left;spacingLeft=6;fontStyle=5;overflow=hidden;" vertex="1" parent="2IhjApcEytpdZWnfWCbo-109">
                    <mxGeometry x="200" width="140" height="30" as="geometry">
                        <mxRectangle width="140" height="30" as="alternateBounds"/>
                    </mxGeometry>
                </mxCell>
                <mxCell id="2IhjApcEytpdZWnfWCbo-112" style="shape=partialRectangle;collapsible=0;dropTarget=0;pointerEvents=0;fillColor=none;top=0;left=0;bottom=0;right=0;points=[[0,0.5],[1,0.5]];portConstraint=eastwest;" vertex="1" parent="2IhjApcEytpdZWnfWCbo-108">
                    <mxGeometry y="60" width="340" height="30" as="geometry"/>
                </mxCell>
                <mxCell id="2IhjApcEytpdZWnfWCbo-113" value="FK" style="shape=partialRectangle;connectable=0;fillColor=none;top=0;left=0;bottom=0;right=0;fontStyle=1;overflow=hidden;" vertex="1" parent="2IhjApcEytpdZWnfWCbo-112">
                    <mxGeometry width="60" height="30" as="geometry">
                        <mxRectangle width="60" height="30" as="alternateBounds"/>
                    </mxGeometry>
                </mxCell>
                <mxCell id="2IhjApcEytpdZWnfWCbo-114" value="sede_id" style="shape=partialRectangle;connectable=0;fillColor=none;top=0;left=0;bottom=0;right=0;align=left;spacingLeft=6;fontStyle=5;overflow=hidden;" vertex="1" parent="2IhjApcEytpdZWnfWCbo-112">
                    <mxGeometry x="60" width="140" height="30" as="geometry">
                        <mxRectangle width="140" height="30" as="alternateBounds"/>
                    </mxGeometry>
                </mxCell>
                <mxCell id="2IhjApcEytpdZWnfWCbo-178" value="INTEGER" style="shape=partialRectangle;connectable=0;fillColor=none;top=0;left=0;bottom=0;right=0;align=left;spacingLeft=6;fontStyle=5;overflow=hidden;" vertex="1" parent="2IhjApcEytpdZWnfWCbo-112">
                    <mxGeometry x="200" width="140" height="30" as="geometry">
                        <mxRectangle width="140" height="30" as="alternateBounds"/>
                    </mxGeometry>
                </mxCell>
                <mxCell id="2IhjApcEytpdZWnfWCbo-115" style="shape=partialRectangle;collapsible=0;dropTarget=0;pointerEvents=0;fillColor=none;top=0;left=0;bottom=0;right=0;points=[[0,0.5],[1,0.5]];portConstraint=eastwest;" vertex="1" parent="2IhjApcEytpdZWnfWCbo-108">
                    <mxGeometry y="90" width="340" height="30" as="geometry"/>
                </mxCell>
                <mxCell id="2IhjApcEytpdZWnfWCbo-116" value="FK" style="shape=partialRectangle;connectable=0;fillColor=none;top=0;left=0;bottom=0;right=0;fontStyle=1;overflow=hidden;" vertex="1" parent="2IhjApcEytpdZWnfWCbo-115">
                    <mxGeometry width="60" height="30" as="geometry">
                        <mxRectangle width="60" height="30" as="alternateBounds"/>
                    </mxGeometry>
                </mxCell>
                <mxCell id="2IhjApcEytpdZWnfWCbo-117" value="season_id" style="shape=partialRectangle;connectable=0;fillColor=none;top=0;left=0;bottom=0;right=0;align=left;spacingLeft=6;fontStyle=5;overflow=hidden;" vertex="1" parent="2IhjApcEytpdZWnfWCbo-115">
                    <mxGeometry x="60" width="140" height="30" as="geometry">
                        <mxRectangle width="140" height="30" as="alternateBounds"/>
                    </mxGeometry>
                </mxCell>
                <mxCell id="2IhjApcEytpdZWnfWCbo-179" value="INTEGER" style="shape=partialRectangle;connectable=0;fillColor=none;top=0;left=0;bottom=0;right=0;align=left;spacingLeft=6;fontStyle=5;overflow=hidden;" vertex="1" parent="2IhjApcEytpdZWnfWCbo-115">
                    <mxGeometry x="200" width="140" height="30" as="geometry">
                        <mxRectangle width="140" height="30" as="alternateBounds"/>
                    </mxGeometry>
                </mxCell>
                <mxCell id="2IhjApcEytpdZWnfWCbo-118" style="shape=partialRectangle;collapsible=0;dropTarget=0;pointerEvents=0;fillColor=none;top=0;left=0;bottom=0;right=0;points=[[0,0.5],[1,0.5]];portConstraint=eastwest;" vertex="1" parent="2IhjApcEytpdZWnfWCbo-108">
                    <mxGeometry y="120" width="340" height="30" as="geometry"/>
                </mxCell>
                <mxCell id="2IhjApcEytpdZWnfWCbo-119" value="FK" style="shape=partialRectangle;connectable=0;fillColor=none;top=0;left=0;bottom=0;right=0;fontStyle=1;overflow=hidden;" vertex="1" parent="2IhjApcEytpdZWnfWCbo-118">
                    <mxGeometry width="60" height="30" as="geometry">
                        <mxRectangle width="60" height="30" as="alternateBounds"/>
                    </mxGeometry>
                </mxCell>
                <mxCell id="2IhjApcEytpdZWnfWCbo-120" value="local_team_id" style="shape=partialRectangle;connectable=0;fillColor=none;top=0;left=0;bottom=0;right=0;align=left;spacingLeft=6;fontStyle=5;overflow=hidden;" vertex="1" parent="2IhjApcEytpdZWnfWCbo-118">
                    <mxGeometry x="60" width="140" height="30" as="geometry">
                        <mxRectangle width="140" height="30" as="alternateBounds"/>
                    </mxGeometry>
                </mxCell>
                <mxCell id="2IhjApcEytpdZWnfWCbo-180" value="INTEGER" style="shape=partialRectangle;connectable=0;fillColor=none;top=0;left=0;bottom=0;right=0;align=left;spacingLeft=6;fontStyle=5;overflow=hidden;" vertex="1" parent="2IhjApcEytpdZWnfWCbo-118">
                    <mxGeometry x="200" width="140" height="30" as="geometry">
                        <mxRectangle width="140" height="30" as="alternateBounds"/>
                    </mxGeometry>
                </mxCell>
                <mxCell id="2IhjApcEytpdZWnfWCbo-121" value="" style="shape=partialRectangle;collapsible=0;dropTarget=0;pointerEvents=0;fillColor=none;top=0;left=0;bottom=1;right=0;points=[[0,0.5],[1,0.5]];portConstraint=eastwest;" vertex="1" parent="2IhjApcEytpdZWnfWCbo-108">
                    <mxGeometry y="150" width="340" height="30" as="geometry"/>
                </mxCell>
                <mxCell id="2IhjApcEytpdZWnfWCbo-122" value="FK" style="shape=partialRectangle;connectable=0;fillColor=none;top=0;left=0;bottom=0;right=0;fontStyle=1;overflow=hidden;" vertex="1" parent="2IhjApcEytpdZWnfWCbo-121">
                    <mxGeometry width="60" height="30" as="geometry">
                        <mxRectangle width="60" height="30" as="alternateBounds"/>
                    </mxGeometry>
                </mxCell>
                <mxCell id="2IhjApcEytpdZWnfWCbo-123" value="visitor_team_id" style="shape=partialRectangle;connectable=0;fillColor=none;top=0;left=0;bottom=0;right=0;align=left;spacingLeft=6;fontStyle=5;overflow=hidden;" vertex="1" parent="2IhjApcEytpdZWnfWCbo-121">
                    <mxGeometry x="60" width="140" height="30" as="geometry">
                        <mxRectangle width="140" height="30" as="alternateBounds"/>
                    </mxGeometry>
                </mxCell>
                <mxCell id="2IhjApcEytpdZWnfWCbo-181" value="INTEGER" style="shape=partialRectangle;connectable=0;fillColor=none;top=0;left=0;bottom=0;right=0;align=left;spacingLeft=6;fontStyle=5;overflow=hidden;" vertex="1" parent="2IhjApcEytpdZWnfWCbo-121">
                    <mxGeometry x="200" width="140" height="30" as="geometry">
                        <mxRectangle width="140" height="30" as="alternateBounds"/>
                    </mxGeometry>
                </mxCell>
                <mxCell id="2IhjApcEytpdZWnfWCbo-124" value="" style="shape=partialRectangle;collapsible=0;dropTarget=0;pointerEvents=0;fillColor=none;top=0;left=0;bottom=0;right=0;points=[[0,0.5],[1,0.5]];portConstraint=eastwest;" vertex="1" parent="2IhjApcEytpdZWnfWCbo-108">
                    <mxGeometry y="180" width="340" height="30" as="geometry"/>
                </mxCell>
                <mxCell id="2IhjApcEytpdZWnfWCbo-125" value="" style="shape=partialRectangle;connectable=0;fillColor=none;top=0;left=0;bottom=0;right=0;editable=1;overflow=hidden;" vertex="1" parent="2IhjApcEytpdZWnfWCbo-124">
                    <mxGeometry width="60" height="30" as="geometry">
                        <mxRectangle width="60" height="30" as="alternateBounds"/>
                    </mxGeometry>
                </mxCell>
                <mxCell id="2IhjApcEytpdZWnfWCbo-126" value="date" style="shape=partialRectangle;connectable=0;fillColor=none;top=0;left=0;bottom=0;right=0;align=left;spacingLeft=6;overflow=hidden;" vertex="1" parent="2IhjApcEytpdZWnfWCbo-124">
                    <mxGeometry x="60" width="140" height="30" as="geometry">
                        <mxRectangle width="140" height="30" as="alternateBounds"/>
                    </mxGeometry>
                </mxCell>
                <mxCell id="2IhjApcEytpdZWnfWCbo-182" value="DATE" style="shape=partialRectangle;connectable=0;fillColor=none;top=0;left=0;bottom=0;right=0;align=left;spacingLeft=6;overflow=hidden;" vertex="1" parent="2IhjApcEytpdZWnfWCbo-124">
                    <mxGeometry x="200" width="140" height="30" as="geometry">
                        <mxRectangle width="140" height="30" as="alternateBounds"/>
                    </mxGeometry>
                </mxCell>
                <mxCell id="2IhjApcEytpdZWnfWCbo-127" style="edgeStyle=none;html=1;startArrow=ERone;startFill=0;endArrow=ERoneToMany;endFill=0;exitX=1;exitY=0.5;exitDx=0;exitDy=0;entryX=1;entryY=0.5;entryDx=0;entryDy=0;" edge="1" parent="2IhjApcEytpdZWnfWCbo-1" source="2IhjApcEytpdZWnfWCbo-16" target="2IhjApcEytpdZWnfWCbo-112">
                    <mxGeometry relative="1" as="geometry">
                        <mxPoint x="270" y="535" as="targetPoint"/>
                        <Array as="points">
                            <mxPoint x="410" y="275"/>
                            <mxPoint x="410" y="440"/>
                            <mxPoint x="840" y="440"/>
                            <mxPoint x="840" y="535"/>
                        </Array>
                    </mxGeometry>
                </mxCell>
                <mxCell id="2IhjApcEytpdZWnfWCbo-128" style="edgeStyle=none;html=1;entryX=1;entryY=0.5;entryDx=0;entryDy=0;startArrow=ERone;startFill=0;endArrow=ERoneToMany;endFill=0;exitX=1;exitY=0.5;exitDx=0;exitDy=0;" edge="1" parent="2IhjApcEytpdZWnfWCbo-1" target="2IhjApcEytpdZWnfWCbo-115" source="2IhjApcEytpdZWnfWCbo-37">
                    <mxGeometry relative="1" as="geometry">
                        <mxPoint x="620" y="245" as="sourcePoint"/>
                        <Array as="points">
                            <mxPoint x="840" y="245"/>
                            <mxPoint x="840" y="565"/>
                        </Array>
                    </mxGeometry>
                </mxCell>
                <mxCell id="2IhjApcEytpdZWnfWCbo-129" style="edgeStyle=none;html=1;entryX=0;entryY=0.5;entryDx=0;entryDy=0;startArrow=ERone;startFill=0;endArrow=ERoneToMany;endFill=0;exitX=1;exitY=0.5;exitDx=0;exitDy=0;" edge="1" parent="2IhjApcEytpdZWnfWCbo-1" source="2IhjApcEytpdZWnfWCbo-3" target="2IhjApcEytpdZWnfWCbo-118">
                    <mxGeometry relative="1" as="geometry">
                        <Array as="points">
                            <mxPoint x="410" y="85"/>
                            <mxPoint x="410" y="595"/>
                        </Array>
                    </mxGeometry>
                </mxCell>
                <mxCell id="2IhjApcEytpdZWnfWCbo-130" style="edgeStyle=none;html=1;entryX=0;entryY=0.5;entryDx=0;entryDy=0;startArrow=ERone;startFill=0;endArrow=ERoneToMany;endFill=0;exitX=1;exitY=0.5;exitDx=0;exitDy=0;" edge="1" parent="2IhjApcEytpdZWnfWCbo-1" source="2IhjApcEytpdZWnfWCbo-3" target="2IhjApcEytpdZWnfWCbo-121">
                    <mxGeometry relative="1" as="geometry">
                        <Array as="points">
                            <mxPoint x="410" y="85"/>
                            <mxPoint x="410" y="625"/>
                        </Array>
                    </mxGeometry>
                </mxCell>
                <mxCell id="2IhjApcEytpdZWnfWCbo-131" value="match_goals" style="shape=table;startSize=30;container=1;collapsible=1;childLayout=tableLayout;fixedRows=1;rowLines=0;fontStyle=1;align=center;resizeLast=1;fillColor=#60a917;fontColor=#ffffff;strokeColor=#2D7600;" vertex="1" parent="2IhjApcEytpdZWnfWCbo-1">
                    <mxGeometry x="439" y="710" width="340" height="280" as="geometry"/>
                </mxCell>
                <mxCell id="2IhjApcEytpdZWnfWCbo-132" value="" style="shape=partialRectangle;collapsible=0;dropTarget=0;pointerEvents=0;fillColor=none;top=0;left=0;bottom=0;right=0;points=[[0,0.5],[1,0.5]];portConstraint=eastwest;" vertex="1" parent="2IhjApcEytpdZWnfWCbo-131">
                    <mxGeometry y="30" width="340" height="30" as="geometry"/>
                </mxCell>
                <mxCell id="2IhjApcEytpdZWnfWCbo-133" value="PK" style="shape=partialRectangle;connectable=0;fillColor=none;top=0;left=0;bottom=0;right=0;fontStyle=1;overflow=hidden;" vertex="1" parent="2IhjApcEytpdZWnfWCbo-132">
                    <mxGeometry width="60" height="30" as="geometry">
                        <mxRectangle width="60" height="30" as="alternateBounds"/>
                    </mxGeometry>
                </mxCell>
                <mxCell id="2IhjApcEytpdZWnfWCbo-134" value="match_goal_id" style="shape=partialRectangle;connectable=0;fillColor=none;top=0;left=0;bottom=0;right=0;align=left;spacingLeft=6;fontStyle=5;overflow=hidden;" vertex="1" parent="2IhjApcEytpdZWnfWCbo-132">
                    <mxGeometry x="60" width="140" height="30" as="geometry">
                        <mxRectangle width="140" height="30" as="alternateBounds"/>
                    </mxGeometry>
                </mxCell>
                <mxCell id="2IhjApcEytpdZWnfWCbo-183" value="INTEGER" style="shape=partialRectangle;connectable=0;fillColor=none;top=0;left=0;bottom=0;right=0;align=left;spacingLeft=6;fontStyle=5;overflow=hidden;" vertex="1" parent="2IhjApcEytpdZWnfWCbo-132">
                    <mxGeometry x="200" width="140" height="30" as="geometry">
                        <mxRectangle width="140" height="30" as="alternateBounds"/>
                    </mxGeometry>
                </mxCell>
                <mxCell id="2IhjApcEytpdZWnfWCbo-135" style="shape=partialRectangle;collapsible=0;dropTarget=0;pointerEvents=0;fillColor=none;top=0;left=0;bottom=0;right=0;points=[[0,0.5],[1,0.5]];portConstraint=eastwest;" vertex="1" parent="2IhjApcEytpdZWnfWCbo-131">
                    <mxGeometry y="60" width="340" height="30" as="geometry"/>
                </mxCell>
                <mxCell id="2IhjApcEytpdZWnfWCbo-136" value="FK" style="shape=partialRectangle;connectable=0;fillColor=none;top=0;left=0;bottom=0;right=0;fontStyle=1;overflow=hidden;" vertex="1" parent="2IhjApcEytpdZWnfWCbo-135">
                    <mxGeometry width="60" height="30" as="geometry">
                        <mxRectangle width="60" height="30" as="alternateBounds"/>
                    </mxGeometry>
                </mxCell>
                <mxCell id="2IhjApcEytpdZWnfWCbo-137" value="match_id" style="shape=partialRectangle;connectable=0;fillColor=none;top=0;left=0;bottom=0;right=0;align=left;spacingLeft=6;fontStyle=5;overflow=hidden;" vertex="1" parent="2IhjApcEytpdZWnfWCbo-135">
                    <mxGeometry x="60" width="140" height="30" as="geometry">
                        <mxRectangle width="140" height="30" as="alternateBounds"/>
                    </mxGeometry>
                </mxCell>
                <mxCell id="2IhjApcEytpdZWnfWCbo-184" value="INTEGER" style="shape=partialRectangle;connectable=0;fillColor=none;top=0;left=0;bottom=0;right=0;align=left;spacingLeft=6;fontStyle=5;overflow=hidden;" vertex="1" parent="2IhjApcEytpdZWnfWCbo-135">
                    <mxGeometry x="200" width="140" height="30" as="geometry">
                        <mxRectangle width="140" height="30" as="alternateBounds"/>
                    </mxGeometry>
                </mxCell>
                <mxCell id="2IhjApcEytpdZWnfWCbo-138" value="" style="shape=partialRectangle;collapsible=0;dropTarget=0;pointerEvents=0;fillColor=none;top=0;left=0;bottom=1;right=0;points=[[0,0.5],[1,0.5]];portConstraint=eastwest;" vertex="1" parent="2IhjApcEytpdZWnfWCbo-131">
                    <mxGeometry y="90" width="340" height="30" as="geometry"/>
                </mxCell>
                <mxCell id="2IhjApcEytpdZWnfWCbo-139" value="FK" style="shape=partialRectangle;connectable=0;fillColor=none;top=0;left=0;bottom=0;right=0;fontStyle=1;overflow=hidden;" vertex="1" parent="2IhjApcEytpdZWnfWCbo-138">
                    <mxGeometry width="60" height="30" as="geometry">
                        <mxRectangle width="60" height="30" as="alternateBounds"/>
                    </mxGeometry>
                </mxCell>
                <mxCell id="2IhjApcEytpdZWnfWCbo-140" value="player_id" style="shape=partialRectangle;connectable=0;fillColor=none;top=0;left=0;bottom=0;right=0;align=left;spacingLeft=6;fontStyle=5;overflow=hidden;" vertex="1" parent="2IhjApcEytpdZWnfWCbo-138">
                    <mxGeometry x="60" width="140" height="30" as="geometry">
                        <mxRectangle width="140" height="30" as="alternateBounds"/>
                    </mxGeometry>
                </mxCell>
                <mxCell id="2IhjApcEytpdZWnfWCbo-185" value="INTEGER" style="shape=partialRectangle;connectable=0;fillColor=none;top=0;left=0;bottom=0;right=0;align=left;spacingLeft=6;fontStyle=5;overflow=hidden;" vertex="1" parent="2IhjApcEytpdZWnfWCbo-138">
                    <mxGeometry x="200" width="140" height="30" as="geometry">
                        <mxRectangle width="140" height="30" as="alternateBounds"/>
                    </mxGeometry>
                </mxCell>
                <mxCell id="2IhjApcEytpdZWnfWCbo-141" value="" style="shape=partialRectangle;collapsible=0;dropTarget=0;pointerEvents=0;fillColor=none;top=0;left=0;bottom=0;right=0;points=[[0,0.5],[1,0.5]];portConstraint=eastwest;" vertex="1" parent="2IhjApcEytpdZWnfWCbo-131">
                    <mxGeometry y="120" width="340" height="30" as="geometry"/>
                </mxCell>
                <mxCell id="2IhjApcEytpdZWnfWCbo-142" value="" style="shape=partialRectangle;connectable=0;fillColor=none;top=0;left=0;bottom=0;right=0;editable=1;overflow=hidden;" vertex="1" parent="2IhjApcEytpdZWnfWCbo-141">
                    <mxGeometry width="60" height="30" as="geometry">
                        <mxRectangle width="60" height="30" as="alternateBounds"/>
                    </mxGeometry>
                </mxCell>
                <mxCell id="2IhjApcEytpdZWnfWCbo-143" value="match_time" style="shape=partialRectangle;connectable=0;fillColor=none;top=0;left=0;bottom=0;right=0;align=left;spacingLeft=6;overflow=hidden;" vertex="1" parent="2IhjApcEytpdZWnfWCbo-141">
                    <mxGeometry x="60" width="140" height="30" as="geometry">
                        <mxRectangle width="140" height="30" as="alternateBounds"/>
                    </mxGeometry>
                </mxCell>
                <mxCell id="2IhjApcEytpdZWnfWCbo-186" value="TIME" style="shape=partialRectangle;connectable=0;fillColor=none;top=0;left=0;bottom=0;right=0;align=left;spacingLeft=6;overflow=hidden;" vertex="1" parent="2IhjApcEytpdZWnfWCbo-141">
                    <mxGeometry x="200" width="140" height="30" as="geometry">
                        <mxRectangle width="140" height="30" as="alternateBounds"/>
                    </mxGeometry>
                </mxCell>
                <mxCell id="2IhjApcEytpdZWnfWCbo-144" style="shape=partialRectangle;collapsible=0;dropTarget=0;pointerEvents=0;fillColor=none;top=0;left=0;bottom=0;right=0;points=[[0,0.5],[1,0.5]];portConstraint=eastwest;" vertex="1" parent="2IhjApcEytpdZWnfWCbo-131">
                    <mxGeometry y="150" width="340" height="30" as="geometry"/>
                </mxCell>
                <mxCell id="2IhjApcEytpdZWnfWCbo-145" style="shape=partialRectangle;connectable=0;fillColor=none;top=0;left=0;bottom=0;right=0;editable=1;overflow=hidden;" vertex="1" parent="2IhjApcEytpdZWnfWCbo-144">
                    <mxGeometry width="60" height="30" as="geometry">
                        <mxRectangle width="60" height="30" as="alternateBounds"/>
                    </mxGeometry>
                </mxCell>
                <mxCell id="2IhjApcEytpdZWnfWCbo-146" value="match_seq_goal" style="shape=partialRectangle;connectable=0;fillColor=none;top=0;left=0;bottom=0;right=0;align=left;spacingLeft=6;overflow=hidden;" vertex="1" parent="2IhjApcEytpdZWnfWCbo-144">
                    <mxGeometry x="60" width="140" height="30" as="geometry">
                        <mxRectangle width="140" height="30" as="alternateBounds"/>
                    </mxGeometry>
                </mxCell>
                <mxCell id="2IhjApcEytpdZWnfWCbo-187" value="INTEGER" style="shape=partialRectangle;connectable=0;fillColor=none;top=0;left=0;bottom=0;right=0;align=left;spacingLeft=6;overflow=hidden;" vertex="1" parent="2IhjApcEytpdZWnfWCbo-144">
                    <mxGeometry x="200" width="140" height="30" as="geometry">
                        <mxRectangle width="140" height="30" as="alternateBounds"/>
                    </mxGeometry>
                </mxCell>
                <mxCell id="2IhjApcEytpdZWnfWCbo-147" style="shape=partialRectangle;collapsible=0;dropTarget=0;pointerEvents=0;fillColor=none;top=0;left=0;bottom=0;right=0;points=[[0,0.5],[1,0.5]];portConstraint=eastwest;" vertex="1" parent="2IhjApcEytpdZWnfWCbo-131">
                    <mxGeometry y="180" width="340" height="30" as="geometry"/>
                </mxCell>
                <mxCell id="2IhjApcEytpdZWnfWCbo-148" style="shape=partialRectangle;connectable=0;fillColor=none;top=0;left=0;bottom=0;right=0;editable=1;overflow=hidden;" vertex="1" parent="2IhjApcEytpdZWnfWCbo-147">
                    <mxGeometry width="60" height="30" as="geometry">
                        <mxRectangle width="60" height="30" as="alternateBounds"/>
                    </mxGeometry>
                </mxCell>
                <mxCell id="2IhjApcEytpdZWnfWCbo-149" value="body_part" style="shape=partialRectangle;connectable=0;fillColor=none;top=0;left=0;bottom=0;right=0;align=left;spacingLeft=6;overflow=hidden;" vertex="1" parent="2IhjApcEytpdZWnfWCbo-147">
                    <mxGeometry x="60" width="140" height="30" as="geometry">
                        <mxRectangle width="140" height="30" as="alternateBounds"/>
                    </mxGeometry>
                </mxCell>
                <mxCell id="2IhjApcEytpdZWnfWCbo-188" value="INTEGER" style="shape=partialRectangle;connectable=0;fillColor=none;top=0;left=0;bottom=0;right=0;align=left;spacingLeft=6;overflow=hidden;" vertex="1" parent="2IhjApcEytpdZWnfWCbo-147">
                    <mxGeometry x="200" width="140" height="30" as="geometry">
                        <mxRectangle width="140" height="30" as="alternateBounds"/>
                    </mxGeometry>
                </mxCell>
                <mxCell id="2IhjApcEytpdZWnfWCbo-150" style="shape=partialRectangle;collapsible=0;dropTarget=0;pointerEvents=0;fillColor=none;top=0;left=0;bottom=0;right=0;points=[[0,0.5],[1,0.5]];portConstraint=eastwest;" vertex="1" parent="2IhjApcEytpdZWnfWCbo-131">
                    <mxGeometry y="210" width="340" height="30" as="geometry"/>
                </mxCell>
                <mxCell id="2IhjApcEytpdZWnfWCbo-151" style="shape=partialRectangle;connectable=0;fillColor=none;top=0;left=0;bottom=0;right=0;editable=1;overflow=hidden;" vertex="1" parent="2IhjApcEytpdZWnfWCbo-150">
                    <mxGeometry width="60" height="30" as="geometry">
                        <mxRectangle width="60" height="30" as="alternateBounds"/>
                    </mxGeometry>
                </mxCell>
                <mxCell id="2IhjApcEytpdZWnfWCbo-152" value="auto_goal" style="shape=partialRectangle;connectable=0;fillColor=none;top=0;left=0;bottom=0;right=0;align=left;spacingLeft=6;overflow=hidden;" vertex="1" parent="2IhjApcEytpdZWnfWCbo-150">
                    <mxGeometry x="60" width="140" height="30" as="geometry">
                        <mxRectangle width="140" height="30" as="alternateBounds"/>
                    </mxGeometry>
                </mxCell>
                <mxCell id="2IhjApcEytpdZWnfWCbo-189" value="BOOLEAN" style="shape=partialRectangle;connectable=0;fillColor=none;top=0;left=0;bottom=0;right=0;align=left;spacingLeft=6;overflow=hidden;" vertex="1" parent="2IhjApcEytpdZWnfWCbo-150">
                    <mxGeometry x="200" width="140" height="30" as="geometry">
                        <mxRectangle width="140" height="30" as="alternateBounds"/>
                    </mxGeometry>
                </mxCell>
                <mxCell id="2IhjApcEytpdZWnfWCbo-153" style="shape=partialRectangle;collapsible=0;dropTarget=0;pointerEvents=0;fillColor=none;top=0;left=0;bottom=0;right=0;points=[[0,0.5],[1,0.5]];portConstraint=eastwest;" vertex="1" parent="2IhjApcEytpdZWnfWCbo-131">
                    <mxGeometry y="240" width="340" height="30" as="geometry"/>
                </mxCell>
                <mxCell id="2IhjApcEytpdZWnfWCbo-154" style="shape=partialRectangle;connectable=0;fillColor=none;top=0;left=0;bottom=0;right=0;editable=1;overflow=hidden;" vertex="1" parent="2IhjApcEytpdZWnfWCbo-153">
                    <mxGeometry width="60" height="30" as="geometry">
                        <mxRectangle width="60" height="30" as="alternateBounds"/>
                    </mxGeometry>
                </mxCell>
                <mxCell id="2IhjApcEytpdZWnfWCbo-155" value="goal_type" style="shape=partialRectangle;connectable=0;fillColor=none;top=0;left=0;bottom=0;right=0;align=left;spacingLeft=6;overflow=hidden;" vertex="1" parent="2IhjApcEytpdZWnfWCbo-153">
                    <mxGeometry x="60" width="140" height="30" as="geometry">
                        <mxRectangle width="140" height="30" as="alternateBounds"/>
                    </mxGeometry>
                </mxCell>
                <mxCell id="2IhjApcEytpdZWnfWCbo-190" value="INTEGER" style="shape=partialRectangle;connectable=0;fillColor=none;top=0;left=0;bottom=0;right=0;align=left;spacingLeft=6;overflow=hidden;" vertex="1" parent="2IhjApcEytpdZWnfWCbo-153">
                    <mxGeometry x="200" width="140" height="30" as="geometry">
                        <mxRectangle width="140" height="30" as="alternateBounds"/>
                    </mxGeometry>
                </mxCell>
                <mxCell id="2IhjApcEytpdZWnfWCbo-156" style="edgeStyle=none;html=1;entryX=1;entryY=0.5;entryDx=0;entryDy=0;startArrow=ERone;startFill=0;endArrow=ERoneToMany;endFill=0;exitX=1;exitY=0.5;exitDx=0;exitDy=0;" edge="1" parent="2IhjApcEytpdZWnfWCbo-1" source="2IhjApcEytpdZWnfWCbo-109" target="2IhjApcEytpdZWnfWCbo-135">
                    <mxGeometry relative="1" as="geometry">
                        <Array as="points">
                            <mxPoint x="820" y="505"/>
                            <mxPoint x="820" y="785"/>
                        </Array>
                    </mxGeometry>
                </mxCell>
                <mxCell id="2IhjApcEytpdZWnfWCbo-157" style="edgeStyle=none;html=1;entryX=0;entryY=0.5;entryDx=0;entryDy=0;startArrow=ERone;startFill=0;endArrow=ERoneToMany;endFill=0;exitX=1;exitY=0.5;exitDx=0;exitDy=0;" edge="1" parent="2IhjApcEytpdZWnfWCbo-1" source="2IhjApcEytpdZWnfWCbo-69" target="2IhjApcEytpdZWnfWCbo-138">
                    <mxGeometry relative="1" as="geometry">
                        <Array as="points">
                            <mxPoint x="410" y="435"/>
                            <mxPoint x="410" y="815"/>
                        </Array>
                    </mxGeometry>
                </mxCell>
            </root>
        </mxGraphModel>
    </diagram>
</mxfile>